<svg xmlns="http://www.w3.org/2000/svg" xmlns:xlink="http://www.w3.org/1999/xlink" width="405" height="545" viewBox="100 240 405 545"><path fill="#7CC7CC" stroke="#45362A" stroke-width="2" stroke-miterlimit="10" d="M488.13 432.05c.66 104.58-83.08 189.88-187.05 190.53-103.96.65-188.77-83.6-189.43-188.17-.66-104.56 83.1-189.86 187.05-190.52 103.97-.65 188.77 83.6 189.43 188.17z"/><circle cx="298.86" cy="431.67" r="173.37" fill="#45362A"/><circle cx="300.25" cy="432.8" r="134.32" fill="#7CC7CC"/><circle cx="299.91" cy="431.72" r="135.17" fill="none" stroke="#9E9369" stroke-width="4" stroke-miterlimit="10"/><ellipse cx="300.1" cy="438" fill="none" transform="rotate(-9.936 300.09 437.948)" rx="148.13" ry="151.5"/><text fill="#9E9369" stroke="#9E9369" stroke-width=".75" stroke-miterlimit="10" transform="matrix(.4716 -.8565 .876 .4823 167.02 369.798)" font-family="'Geneva'" font-size="26.83">L</text><text fill="#9E9369" stroke="#9E9369" stroke-width=".75" stroke-miterlimit="10" transform="matrix(.56 -.8014 .8196 .573 173.713 357.294)" font-family="'Geneva'" font-size="26.83">O</text><text fill="#9E9369" stroke="#9E9369" stroke-width=".75" stroke-miterlimit="10" transform="matrix(.6517 -.729 .7455 .6665 184 342.456)" font-family="'Geneva'" font-size="26.83">V</text><text fill="#9E9369" stroke="#9E9369" stroke-width=".75" stroke-miterlimit="10" transform="matrix(.707 -.6754 .6908 .723 196.192 329.137)" font-family="'Geneva'" font-size="26.83">I</text><text fill="#9E9369" stroke="#9E9369" stroke-width=".75" stroke-miterlimit="10" transform="matrix(.7334 -.6466 .6613 .75 200.45 325.056)" font-family="'Geneva'" font-size="26.83">I</text><text fill="#9E9369" stroke="#9E9369" stroke-width=".75" stroke-miterlimit="10" transform="matrix(.7777 -.5926 .606 .7954 204.625 321.117)" font-family="'Geneva'" font-size="26.83">S</text><text fill="#9E9369" stroke="#9E9369" stroke-width=".75" stroke-miterlimit="10" transform="matrix(.8403 -.5 .5113 .8594 216.564 311.846)" font-family="'Geneva'" font-size="26.83">A</text><text fill="#9E9369" stroke="#9E9369" stroke-width=".75" stroke-miterlimit="10" transform="matrix(.8948 -.3943 .4032 .915 231.875 302.668)" font-family="'Geneva'" font-size="26.83">N</text><text fill="#9E9369" stroke="#9E9369" stroke-width=".75" stroke-miterlimit="10" transform="matrix(.9658 -.1528 .1562 .9877 262.513 290.563)" font-family="'Geneva'" font-size="26.83">W</text><text fill="#9E9369" stroke="#9E9369" stroke-width=".75" stroke-miterlimit="10" transform="matrix(.9774 -.0257 .0263 .9997 285.807 286.866)" font-family="'Geneva'" font-size="26.83">A</text><text fill="#9E9369" stroke="#9E9369" stroke-width=".75" stroke-miterlimit="10" transform="matrix(.9733 .093 -.0952 .9955 303.646 286.34)" font-family="'Geneva'" font-size="26.83">N</text><text fill="#9E9369" stroke="#9E9369" stroke-width=".75" stroke-miterlimit="10" transform="matrix(.9555 .2072 -.212 .9773 320.958 287.938)" font-family="'Geneva'" font-size="26.83">H</text><text fill="#9E9369" stroke="#9E9369" stroke-width=".75" stroke-miterlimit="10" transform="matrix(.9242 .3192 -.3264 .9452 337.485 291.424)" font-family="'Geneva'" font-size="26.83">A</text><text fill="#9E9369" stroke="#9E9369" stroke-width=".75" stroke-miterlimit="10" transform="matrix(.8822 .4217 -.4313 .9022 354.404 297.267)" font-family="'Geneva'" font-size="26.83">T</text><text fill="#9E9369" stroke="#9E9369" stroke-width=".75" stroke-miterlimit="10" transform="matrix(.7755 .5955 -.609 .7932 381.96 312.132)" font-family="'Geneva'" font-size="26.83">T</text><text fill="#9E9369" stroke="#9E9369" stroke-width=".75" stroke-miterlimit="10" transform="matrix(.7052 .6773 -.6927 .7212 394.42 321.537)" font-family="'Geneva'" font-size="26.83">A</text><text fill="#9E9369" stroke="#9E9369" stroke-width=".75" stroke-miterlimit="10" transform="matrix(.63 .7477 -.7647 .6444 407.318 333.98)" font-family="'Geneva'" font-size="26.83">L</text><text fill="#9E9369" stroke="#9E9369" stroke-width=".75" stroke-miterlimit="10" transform="matrix(.5576 .8032 -.8215 .5702 415.398 343.203)" font-family="'Geneva'" font-size="26.83">O</text><text fill="#9E9369" stroke="#9E9369" stroke-width=".75" stroke-miterlimit="10" transform="matrix(.4764 .854 -.8733 .4872 424.7 356.446)" font-family="'Geneva'" font-size="26.83">T</text><g fill="#45362A"><path d="M271.12 552.57V462.6h12.8V496h29.26V462.6h12.8v92l-12.8 1.28v-45.5h-29.25v44.5l-12.8-2.3zm71.35-1.04V462.6h12.03V496h23.7V462.6h12.03v63.7l-12.02 9.3v-25.2h-23.7v37.13l-12.03 4zM226.2 521.46s14.07 10.18 30 12.7v15.66s-26.88-8.57-41.68-23.32v-5.6l11.67.56z"/><path d="M214.52 463.3h11.73v61.45h-11.73z"/></g><path fill="#45362A" d="M214.16 400.53V339.6l12.03-10.48v57.04h30v14.37h-42.04zm59.6 0l-14.86-87.57 11.9-3.55 9.97 64.56 10.92-63.37h14.37l10.5 64.35 10.36-66.44 11.42 2.98-14.95 89.05h-12.84L298.62 332l-11.83 68.53h-13.05zm70.5-87.42v14.02s5.48 1.93 18.23 10.84v62.57h12.02v-56.4s9.3 4.66 17.7 12.4v-13.65s-26.97-24.27-47.97-29.76z"/><path fill="#9E9369" stroke="#9E9369" stroke-width=".75" stroke-miterlimit="10" d="M152.48 507.3l17.87-10.3 1.3 2.27-15.9 9.16 5.23 9.08-1.97 1.14-6.52-11.32zm12.72 21.54c-1.45-2.04-1.85-4.25-1.22-6.64.63-2.38 2.38-4.6 5.23-6.6 2.87-2.03 5.52-2.95 7.98-2.75 2.45.2 4.4 1.3 5.85 3.34 1.45 2.03 1.86 4.24 1.23 6.63-.63 2.38-2.37 4.6-5.23 6.6-2.85 2.03-5.5 2.95-7.97 2.75s-4.42-1.3-5.86-3.34zm1.68-1.2c1.06 1.5 2.54 2.2 4.45 2.08 1.9-.1 3.96-.92 6.14-2.47 2.18-1.55 3.63-3.2 4.37-4.98s.57-3.4-.48-4.88c-1.05-1.5-2.54-2.18-4.45-2.08-1.9.1-3.96.92-6.14 2.47-2.18 1.54-3.64 3.2-4.36 4.97-.73 1.78-.57 3.4.48 4.88zm32 8.74l1.6 1.8-20.77 7.74-1.74-1.95 10.25-19.45 1.9 2.1-8.62 16.28 17.4-6.52zm-8.8 20l-1.9-1.78 14.1-15.05 1.9 1.77-14.1 15.06zm6.48-.24l2.03 1.62-.1.1c-.7.9-.9 1.77-.56 2.6.33.84 1 1.66 2 2.47.9.7 1.86 1.03 2.88.98 1.03-.05 1.9-.5 2.6-1.4.55-.7.75-1.48.6-2.34-.17-.86-.6-1.93-1.3-3.2l-.54-1c-.73-1.35-1.18-2.48-1.36-3.37-.18-.9-.18-1.74 0-2.52s.54-1.5 1.1-2.2c.97-1.22 2.2-1.92 3.7-2.1 1.5-.17 3.15.45 4.93 1.87 1.62 1.3 2.52 2.52 2.7 3.67.16 1.15-.1 2.15-.75 2.98l-.1.1-2.02-1.62.08-.1c.2-.27.32-.6.32-1.03 0-.42-.16-.85-.48-1.3a6.37 6.37 0 0 0-1.2-1.23c-1-.8-1.95-1.13-2.84-1-.9.15-1.6.54-2.12 1.2a3.13 3.13 0 0 0-.66 1.53 3.63 3.63 0 0 0 .17 1.72c.2.57.6 1.45 1.2 2.63l.6 1.2c1 1.9 1.44 3.43 1.35 4.6-.1 1.16-.48 2.17-1.18 3.04-.64.82-1.48 1.43-2.5 1.86-1.02.43-2.05.54-3.1.35-1.05-.2-2.2-.8-3.42-1.77-1.17-.93-2.03-1.85-2.58-2.76s-.77-1.85-.66-2.83c.12-1 .5-1.87 1.1-2.66l.1-.1zm12.7 15.54l-2.05-1.24L224.88 557l2.25 1.36-4.2 21.57-2.4-1.45 1.17-5.93-7.57-4.56-4.86 3.68zm6.6-5.05l6.24 3.76 1.95-10.03-8.18 6.26zm32.88 23.65l-2.5-.68 5.45-19.9 2.5.7-2.43 8.85 8.84 2.43 2.44-8.85 2.5.7-5.45 19.88-2.52-.68 2.5-9.05-8.86-2.43-2.48 9.04zm19.35 4.58l-2.57-.47 3.73-20.3 2.55.47-3.7 20.3zm5.25-3.7l2.58.27-.02.13c-.1 1.14.2 1.97.92 2.5.73.53 1.74.87 3.02 1 1.13.13 2.1-.1 2.95-.7.82-.6 1.3-1.45 1.42-2.56.1-.9-.15-1.67-.74-2.32-.6-.63-1.53-1.3-2.8-2.02l-1-.55c-1.34-.74-2.32-1.45-2.95-2.1-.63-.67-1.08-1.38-1.34-2.13-.28-.75-.36-1.56-.27-2.45.17-1.55.84-2.8 2.02-3.75 1.18-.95 2.9-1.3 5.15-1.06 2.07.24 3.48.8 4.24 1.68.76.88 1.08 1.85.97 2.9v.14l-2.6-.28.02-.13c.04-.33-.06-.67-.28-1.03-.22-.35-.6-.63-1.1-.83a6.3 6.3 0 0 0-1.68-.4c-1.27-.14-2.24.08-2.92.68s-1.07 1.3-1.16 2.14c-.06.56.03 1.1.27 1.64.23.53.58.98 1.06 1.36.48.4 1.3.9 2.43 1.6l1.15.67c1.85 1.08 3.05 2.14 3.6 3.17.54 1.03.76 2.1.64 3.2-.1 1.04-.5 2-1.12 2.92-.63.9-1.44 1.55-2.44 1.95-1 .4-2.27.5-3.83.34-1.48-.15-2.7-.47-3.65-.94-.96-.48-1.65-1.16-2.07-2.05a5.15 5.15 0 0 1-.47-2.82v-.13zm23.05 6.38l.02-18.57-6.8-.02v-2.06l16.1.02v2.06H299l-.02 18.56h-2.6zm21.83-1.02c-2.47.35-4.62-.3-6.45-1.95-1.83-1.66-3-4.22-3.5-7.68-.5-3.48-.1-6.26 1.2-8.35 1.3-2.1 3.17-3.33 5.64-3.68 2.47-.35 4.63.3 6.46 1.94s3 4.22 3.5 7.68c.5 3.47.1 6.25-1.2 8.35-1.3 2.1-3.18 3.33-5.65 3.7zm-.28-2.04c1.8-.26 3.1-1.26 3.87-3 .8-1.76 1-3.96.6-6.6-.38-2.65-1.2-4.7-2.43-6.17-1.25-1.45-2.77-2.05-4.57-1.8-1.8.26-3.1 1.27-3.87 3.02-.8 1.75-1 3.95-.6 6.6.37 2.64 1.18 4.7 2.43 6.16 1.24 1.45 2.75 2.05 4.55 1.8zm15.98-1.5l-2.52.64-5-20.02 6-1.5c1.47-.37 2.63-.42 3.48-.17.85.26 1.6.74 2.24 1.47a5.93 5.93 0 0 1 1.32 2.54 6.18 6.18 0 0 1 .13 2.35 6.64 6.64 0 0 1-.73 2.25c-.38.7-1.07 1.43-2.08 2.17.48.13.85.28 1.1.44.28.17.62.45 1.04.86.42.4.8.8 1.13 1.16l4.56 5.15-2.9.72-4-4.6a12.1 12.1 0 0 0-3.37-2.7l-2.55.63 2.16 8.6zm-2.65-10.6l2.47-.6c1.04-.27 1.8-.63 2.24-1.1.45-.46.75-1.05.9-1.77.17-.7.16-1.42-.02-2.14-.16-.63-.42-1.16-.8-1.6a3.42 3.42 0 0 0-1.4-.96c-.58-.22-1.44-.18-2.6.1l-2.65.67 1.85 7.42zm19.44 5.9l-2.48.8-6.32-19.65 2.48-.8 6.32 19.65zm2.84-5.74l2.42-.96.05.12c.42 1.06 1.08 1.66 1.97 1.78s1.94-.05 3.14-.52c1.05-.42 1.8-1.1 2.27-2 .47-.93.5-1.9.08-2.94-.34-.84-.92-1.4-1.75-1.7-.82-.3-1.96-.44-3.42-.47l-1.12-.02c-1.54-.04-2.74-.2-3.6-.5-.87-.28-1.6-.7-2.18-1.24-.6-.55-1.04-1.23-1.37-2.06-.58-1.45-.57-2.87.02-4.26.6-1.4 1.94-2.5 4.05-3.35 1.94-.77 3.45-.94 4.53-.5 1.08.42 1.82 1.12 2.22 2.1l.05.13-2.42.97-.05-.13c-.12-.3-.37-.57-.73-.78-.36-.2-.8-.28-1.35-.22-.54.05-1.1.2-1.68.43-1.2.47-1.94 1.13-2.27 1.97-.32.84-.33 1.65 0 2.43.2.53.53.97 1 1.33.44.36.97.6 1.56.7.6.13 1.56.22 2.88.28l1.34.06c2.14.1 3.7.46 4.66 1.1.97.67 1.65 1.52 2.07 2.55.4.96.52 2 .38 3.1-.13 1.1-.54 2.05-1.23 2.86-.7.83-1.77 1.52-3.23 2.1-1.38.56-2.6.85-3.67.88-1.07.02-2-.25-2.8-.84a5.18 5.18 0 0 1-1.74-2.28l-.04-.12zm21.02-3.96l-2.3 1.2-9.62-18.25 2.3-1.2 4.6 8.7 2.78-12.6 2.62-1.37-2.74 12.38 13.48 5.3-2.87 1.5-13.27-5.2 5.02 9.54zm15.67-8.7l-1.98 1.36-5.03-21.62 2.16-1.5 17.97 12.67-2.3 1.58-4.95-3.48-7.25 5.02 1.38 5.95zm-1.9-8.1l5.97-4.14-8.34-5.9 2.36 10.04zm35.08-19.83l-1.7 1.97-15.63-13.47 1.7-1.97 6.96 6 5.98-6.95-6.96-6 1.7-1.97 15.63 13.47-1.68 1.97-7.12-6.13-5.98 6.95 7.1 6.13zm-6.04-24.92l1.44-2.16 11.02 7.4c1.6 1.1 2.78 1.66 3.54 1.73.75.07 1.48-.12 2.2-.57.72-.45 1.34-1.07 1.87-1.86.5-.76.82-1.53.93-2.3.1-.8-.05-1.53-.48-2.24-.43-.7-1.63-1.73-3.6-3.06l-10.25-6.88 1.34-2 10.8 7.27c2 1.35 3.27 2.5 3.78 3.5s.72 2.06.62 3.22-.57 2.36-1.42 3.64c-.8 1.18-1.7 2.13-2.75 2.86-1.03.73-2.1 1.07-3.22 1.02-1.1-.05-2.6-.7-4.5-1.98l-11.3-7.6zm23.53-6.82l1.2-2.3.13.08c1 .53 1.9.56 2.66.08.76-.48 1.44-1.3 2.05-2.44.53-1 .67-2 .43-3-.25-1-.86-1.76-1.85-2.28-.8-.42-1.6-.48-2.43-.17-.8.32-1.78.94-2.9 1.86l-.9.72c-1.18.97-2.2 1.62-3.05 1.96-.85.35-1.67.5-2.46.47-.8-.03-1.58-.26-2.36-.67-1.38-.73-2.3-1.82-2.74-3.27-.45-1.44-.15-3.17.92-5.18.97-1.84 2-2.94 3.1-3.32 1.1-.38 2.13-.3 3.07.18l.1.07-1.2 2.3-.13-.06c-.3-.15-.65-.2-1.06-.1s-.8.3-1.17.7a6.34 6.34 0 0 0-1 1.4c-.6 1.14-.75 2.13-.45 2.98.3.85.82 1.48 1.57 1.87a3.13 3.13 0 0 0 1.62.36c.58 0 1.13-.17 1.66-.47s1.32-.85 2.37-1.66l1.05-.82c1.7-1.3 3.12-2.04 4.28-2.17 1.16-.12 2.23.08 3.22.6.9.5 1.68 1.2 2.28 2.12.6.92.92 1.92.92 2.98 0 1.07-.37 2.3-1.1 3.7-.7 1.3-1.45 2.32-2.24 3.03-.78.73-1.67 1.1-2.65 1.18a5.14 5.14 0 0 1-2.8-.6l-.12-.07z"/><path fill="none" stroke="#9E9369" stroke-width="13" stroke-miterlimit="10" d="M480.55 432.7c0 100.2-80.76 181.4-180.4 181.4s-180.38-81.2-180.38-181.4c0-100.17 80.76-181.4 180.4-181.4 99.62 0 180.38 81.23 180.38 181.4z" stroke-dasharray="9.02 9.02"/><circle cx="298.91" cy="431.76" r="173.67" fill="none" stroke="#45362A" stroke-width="7" stroke-miterlimit="10"/><path fill="none" stroke="#45362A" stroke-width="2" stroke-miterlimit="10" d="M487.67 432.05c.66 104.58-83.1 189.88-187.05 190.53-103.96.65-188.77-83.6-189.43-188.17-.67-104.56 83.08-189.86 187.04-190.52 103.96-.65 188.77 83.6 189.43 188.17z"/><path fill="#45362A" d="M181.83 410s-14.25.37-18.14-9.47h-12.63l-2.66-24.66-25.7-7.98s-1.84 2.02-2.93 7.13c0 0-18.42 14.5-19.02 32.36 0 0 .47 9.58 8.6 24.4 0 0-5.58 13.24 2.3 19.4 0 0 1.9 28.14 8.12 37.18l36.16-8.12 12.76-6.46s-8.14-15.84 22.63-17.4H428.5s11.08 11.16 9.1 15.95l9.23 3.3 7-5.95v5.84l27.2 12.84s-.45-14.77 3.18-16.5c1.88-.9 9.97-7 3.12-20.9 0 0 12.85-1.2 6.77-22.2 0 0 11.56-16.7 6.53-35.37 0 0-5.52-13.74-23.5-25.5l-16.02 4.35-11.26 4.76-.95 18.35-8.28 2.94s2.67 15.77-45.25 13.74L189.22 410h-7.4z"/><path fill="#262321" d="M445.75 433.23s-3 9.44-3.25 9.6-.25 2.38 0 5.15-1.63 6.8-.2 8.28 1.97 7.24 1.46 8-.24 5.68-2.25-1.67-3.33-11.1-6.42-11.85-14.08-2.8-20.08-2.77-21.04.23-23.52 0-10.38 2.57-20.56 1.92-54.67.9-63.92 0c0 0-93.75-.02-108-3.08 0 0-21.25-3.02-29.25 3.08 0 0-5.02 5.17-5 6.5s-3.37 5.3-2.7 6.2-.8 3.65-1.8 1.9-2.17-5.22-1.2-8.23 1.45-8.3.95-8.3-3.63-4-4.07-4.5-1.5 20.92-4.1 23.1l7.2 9.18 7.87-1.95s2.35-19.82 13.85-19.3l130.62 1.77 113.13-1.78s15 9 12 17c0 0 8.17 4.35 9.25 4.25s6.8-4.98 6.8-4.98l-2.7-25.45v-5.62l-4.1-6.47z" opacity=".63"/><path fill="#9E9369" stroke="#9E9369" stroke-width=".75" stroke-miterlimit="10" d="M222.75 436.9c0 1.94-.84 3.53-2.52 4.77-1.57 1.17-3.45 1.75-5.62 1.75-1.84 0-3.37-.3-4.58-.9-1.5-.74-2.23-1.82-2.23-3.26 0-1.1.4-2.02 1.2-2.77.8-.77 1.76-1.15 2.88-1.15 1.15 0 2.1.2 2.82.63.82.48 1.23 1.15 1.23 2.03 0 .56-.2 1.04-.6 1.45a1.92 1.92 0 0 1-1.42.62c-.52 0-.9-.1-1.14-.3-.06-.06-.1-.1-.1-.14 0-.1.1-.15.25-.2.22-.06.4-.2.54-.38s.2-.47.2-.86c0-.37-.18-.66-.56-.9a2.36 2.36 0 0 0-1.24-.33c-.87 0-1.6.2-2.2.63-.6.4-.9 1-.9 1.73 0 1.03.66 1.83 1.98 2.4 1.1.46 2.4.7 3.9.7 1.55 0 2.9-.36 4.08-1.06 1.37-.82 2.06-1.93 2.06-3.33 0-1.4-.5-2.44-1.5-3.12-.64-.42-1.83-.84-3.58-1.27l-3-.68c-1.14-.3-1.97-.7-2.5-1.2-.7-.64-1.03-1.53-1.03-2.7 0-1.3.7-2.4 2.1-3.25 1.26-.8 2.73-1.2 4.4-1.2 1.5 0 2.7.2 3.62.57 1.22.5 1.83 1.28 1.83 2.33 0 .68-.33 1.24-.98 1.68-.6.4-1.3.62-2.08.62-.75 0-1.38-.14-1.88-.43-.62-.35-.92-.84-.92-1.48 0-.33.1-.62.34-.88.22-.25.48-.42.76-.5l.2-.04c.1 0 .13.06.13.2l-.03.35c0 .27.08.5.25.67.22.22.57.33 1.06.33.32 0 .6-.1.83-.33.23-.22.34-.48.34-.78 0-.55-.4-.94-1.2-1.18-.58-.17-1.35-.26-2.3-.26-1.18 0-2.24.27-3.2.8-1.03.6-1.55 1.32-1.55 2.2 0 .77.33 1.4 1.02 1.83.43.3 1.8.7 4.13 1.22 1.43.33 2.54.65 3.3.96 1.1.44 1.9.97 2.45 1.6.64.73.96 1.67.96 2.8zm11 5.36c.14.14.22.26.22.36 0 .14-.14.2-.4.2H233a23.42 23.42 0 0 0-1.5-.1c-.44 0-.8.02-1.08.04-.27.03-.6.05-.95.07-.3 0-.44-.07-.44-.22 0-.07.06-.18.18-.33.32-.25.55-.44.7-.58.28-.26.42-.48.42-.7v-12.36c0-.6-.15-1.03-.44-1.23l-.8-.27s-.2-.12-.2-.22c0-.06.04-.14.16-.23.12-.1.32-.2.6-.35.42-.22.74-.4.98-.55.57-.36 1.03-.66 1.35-.9.33-.24.53-.4.62-.45.07-.06.14-.1.17-.1.17 0 .23.12.17.34-.06.27-.12.72-.18 1.35-.05.64-.08 1.38-.08 2.24v12.8c0 .2.13.42.4.65.2.2.43.38.67.56zm-.43-22.3c0 .45-.16.8-.48 1.12a1.64 1.64 0 0 1-1.17.45c-.44 0-.8-.16-1.1-.48a1.6 1.6 0 0 1-.47-1.15c0-.45.16-.82.5-1.13a1.63 1.63 0 0 1 1.15-.47c.44 0 .8.17 1.12.5.3.34.45.73.45 1.17zm23.3 11.57c0 1.82-.33 3.56-.97 5.23-.64 1.66-1.58 3.2-2.84 4.62h.2a8.33 8.33 0 0 0 1.45-.05c.33-.04.66-.17.98-.38l.63-.5a.24.24 0 0 1 .1-.05.26.26 0 0 1 .08-.02c.13 0 .17.1.1.33 0 .2-.04.4-.06.67a6.64 6.64 0 0 0-.04.5 11.92 11.92 0 0 0 .07 1.22c.06.24 0 .36-.13.36a.3.3 0 0 1-.2-.07c-.36-.2-.62-.35-.76-.4a3.86 3.86 0 0 0-.8-.22c-.25-.04-.64-.06-1.16-.06-.36 0-.64 0-.85.02-.22 0-.5.04-.84.1-.36.06-.54-.05-.54-.34a.43.43 0 0 1 .06-.22 42.87 42.87 0 0 0 1.55-2.56c.57-1.07 1-2.07 1.3-3 .33-1.12.5-2.27.5-3.43 0-1.94-.43-3.5-1.3-4.7-.9-1.28-2.1-1.9-3.64-1.9-1.04 0-1.97.28-2.8.86-.73.5-1.34 1.23-1.82 2.15V441c0 .23.14.46.4.7l.73.57c.14.14.2.27.2.38 0 .12-.1.2-.3.2l-.83-.07c-.5-.04-.95-.05-1.35-.05-.47 0-.85 0-1.12.03l-.96.08c-.3 0-.44-.07-.44-.2 0-.1.05-.2.16-.33.1-.12.3-.28.54-.48.42-.32.63-.6.63-.8v-10.9c0-1.05-.32-1.9-.94-2.55-.28-.28-.76-.6-1.43-.95-.1-.05-.15-.12-.15-.2 0-.1.04-.17.1-.25l.42-.35.42-.4c.17-.17.3-.3.4-.42.1-.1.2-.23.28-.34.05-.06.12-.1.2-.1.08 0 .14.03.17.07.45.35.92.85 1.4 1.5.7.86 1.08 1.62 1.2 2.26a9.44 9.44 0 0 1 1.96-2.32c1.16-.97 2.33-1.45 3.52-1.45 2.22 0 3.92.83 5.1 2.5a7.37 7.37 0 0 1 1.43 4.4zm22.37 6.85c0 .17-.06.38-.15.62-.4 1-1.1 1.9-2.1 2.73-1.4 1.13-3 1.7-4.83 1.7-2.7 0-4.83-.8-6.42-2.44-1.62-1.67-2.43-3.95-2.43-6.86 0-2.55.92-4.77 2.75-6.67 1.84-1.9 4.04-2.84 6.6-2.84 1.48 0 2.77.4 3.88 1.18 1.2.87 1.8 1.96 1.8 3.3 0 1.1-.35 2.05-1.05 2.82-.7.76-1.58 1.15-2.63 1.15-.88 0-1.64-.26-2.28-.78-.7-.56-1.03-1.26-1.03-2.1 0-.56.2-1.08.56-1.56.32-.43.65-.68 1-.77.13-.05.23-.04.3.04.08.08.1.17.06.26a3.64 3.64 0 0 0-.13.43 2.34 2.34 0 0 0-.12.65c0 .14 0 .24.02.32.08.38.28.67.6.87.33.2.7.3 1.13.3.6 0 1.07-.2 1.42-.64.36-.43.54-.96.54-1.6 0-.94-.46-1.68-1.36-2.22-.8-.5-1.76-.73-2.85-.73-2.1 0-3.77.8-5.05 2.37-1.3 1.57-1.93 3.55-1.93 5.92 0 2.06.66 3.83 1.97 5.3 1.35 1.5 3.04 2.26 5.06 2.26 1.26 0 2.32-.2 3.16-.56.84-.38 1.7-1.07 2.6-2.1 0-.02.07-.13.2-.3.1-.14.2-.24.27-.3.05-.02.13-.02.24 0 .1.04.15.1.15.24zm21.05.55c-.32 1.04-1.1 2.02-2.3 2.93-1.43 1.07-3 1.6-4.67 1.6-1.08 0-2.04-.1-2.87-.35a8.2 8.2 0 0 1-2.72-1.37c-.35.43-.66.9-.94 1.4-.36.63-.54 1.08-.54 1.36 0 .34.1.58.28.7.12.1.33.14.6.14a.93.93 0 0 0 .27-.04l.22-.07c.05-.02.1-.02.13 0 .08.05.1.15.05.3-.07.3-.22.56-.44.8-.28.33-.63.5-1.02.5-.42 0-.76-.17-1.03-.47-.27-.3-.4-.7-.4-1.2 0-.4.13-.87.4-1.44.07-.16.6-1.03 1.58-2.62-.9-.93-1.6-1.95-2.1-3.04-.54-1.22-.8-2.52-.8-3.92 0-2.58.83-4.8 2.5-6.7 1.68-1.87 3.77-2.8 6.26-2.8 1 0 2 .23 3.05.7.58.3 1.16.57 1.73.83.1.05.27.1.48.1.2.04.42.05.63.05l.54-.04c.14 0 .2.06.2.17 0 .1-.04.15-.12.2-.2.13-.4.3-.65.5-.32.27-.6.55-.83.83-1.2 1.33-2.57 3.06-4.14 5.22a130.45 130.45 0 0 0-4.44 6.47c.72.5 1.46.9 2.2 1.2.9.32 1.8.5 2.77.5 1.33 0 2.42-.26 3.28-.76.64-.36 1.34-1.02 2.1-1.97.1-.1.17-.23.27-.36.1-.13.2-.18.33-.15.16.04.24.15.24.35 0 .15-.03.3-.1.46zM295 428.05c0-.72-.4-1.3-1.18-1.7-.67-.34-1.47-.5-2.4-.5-1.74 0-3.18.73-4.3 2.22-1.07 1.4-1.6 3.07-1.6 5 0 1.14.28 2.28.83 3.42.47.96 1.05 1.8 1.75 2.46.84-1.24 1.5-2.2 1.96-2.9l1.9-2.77 2.04-2.9c.66-1.02 1-1.8 1-2.35zm34.4 11.67l-.48.87c-.14.3-.27.6-.37.9a5.48 5.48 0 0 0-.23.86c-.05.27-.1.53-.13.8-.06.17-.14.26-.25.26a.48.48 0 0 1-.2-.05 11.03 11.03 0 0 0-2.58-.83c-1.17-.2-2.5-.32-3.95-.32-1.78 0-3.3.18-4.6.53l-1.88.7c-.16.06-.24 0-.24-.14l.02-.17c.08-.42.4-1.1.93-2.03a27.67 27.67 0 0 1 1.6-2.47c1.08-1.44 2.56-3 4.46-4.66 1.9-1.66 3.12-2.86 3.65-3.6 1-1.37 1.5-2.98 1.5-4.83 0-1.46-.48-2.7-1.43-3.74-.98-1.07-2.24-1.6-3.78-1.6-1.32 0-2.44.37-3.35 1.12-.92.75-1.37 1.63-1.37 2.64 0 .7.14 1.3.44 1.75.34.54.82.8 1.44.8.3 0 .55-.04.75-.14.2-.1.4-.25.62-.5.08-.06.14-.14.2-.23l.12-.33c.02-.12.1-.18.22-.18.2.17.33.43.4.76.05.34.1.65.1.92-.06.55-.35 1.02-.9 1.42a2.97 2.97 0 0 1-1.8.6c-.93 0-1.7-.38-2.28-1.13-.6-.77-.9-1.64-.9-2.64 0-1.66.68-3.04 2.05-4.16 1.28-1.06 2.82-1.6 4.62-1.6 2.1 0 3.84.56 5.18 1.65 1.5 1.24 2.26 3 2.26 5.25 0 1.2-.27 2.28-.83 3.26-.44.78-1.14 1.6-2.12 2.5-.28.26-1.2 1.02-2.8 2.27a530.5 530.5 0 0 0-2.77 2.17c-.97.78-1.74 1.5-2.3 2.14-.73.82-1.42 1.83-2.07 3.02a14.8 14.8 0 0 1 3.5-1.13c1.2-.23 2.55-.34 4.06-.34.38 0 1.12.02 2.23.08.17 0 .35 0 .55-.02.2 0 .44-.04.74-.1.3-.04.63-.14 1-.3l.7-.3c.12-.04.2-.03.25.02.04.05.04.13 0 .24zm23.68-8.68c0 3.2-.9 6.03-2.7 8.5-1.86 2.6-4.08 3.88-6.67 3.88-2.48 0-4.46-1-5.93-3-1.47-2-2.2-4.68-2.2-8.05 0-1.9.4-3.84 1.22-5.8.65-1.6 1.4-2.85 2.27-3.75.2-.2.3-.25.37-.2.06.08.1.15.1.24a.53.53 0 0 1-.03.16c0 .08-.04.14-.06.2-.44 1.02-.8 2.2-1.1 3.5a18 18 0 0 0-.4 3.8c0 3.43.58 6.2 1.78 8.34 1.2 2.12 2.75 3.18 4.7 3.18 1.8 0 3.26-.75 4.35-2.25 1.22-1.7 1.84-4.23 1.84-7.55 0-3.45-.64-6.36-1.94-8.73-1.26-2.3-2.73-3.43-4.43-3.43-1.55 0-2.32.62-2.32 1.87 0 .3.1.56.3.77a.9.9 0 0 0 .67.3.65.65 0 0 0 .48-.2l.26-.37a.23.23 0 0 1 .2-.1c.08 0 .14.05.18.17.05.13.07.32.07.6l-.06.55c-.05.28-.23.57-.56.86-.33.3-.7.43-1.1.43-.6 0-1.1-.26-1.52-.75-.4-.5-.6-1.12-.6-1.87 0-.9.42-1.62 1.27-2.2.85-.57 1.86-.86 3.03-.86 2.4 0 4.43 1.13 6.08 3.4 1.65 2.25 2.48 5.02 2.48 8.32zm22.7 0c0 3.2-.88 6.03-2.68 8.5-1.86 2.6-4.1 3.88-6.67 3.88-2.5 0-4.48-1-5.94-3-1.48-2-2.22-4.68-2.22-8.05 0-1.9.4-3.84 1.22-5.8.66-1.6 1.43-2.85 2.3-3.75.17-.2.3-.25.36-.2a.3.3 0 0 1 .1.24.56.56 0 0 1-.03.16l-.07.2c-.45 1.02-.8 2.2-1.1 3.5a18 18 0 0 0-.42 3.8c0 3.43.6 6.2 1.8 8.34 1.18 2.12 2.75 3.18 4.7 3.18 1.8 0 3.26-.75 4.34-2.25 1.23-1.7 1.85-4.23 1.85-7.55 0-3.45-.65-6.36-1.96-8.73-1.25-2.3-2.73-3.43-4.42-3.43-1.55 0-2.32.62-2.32 1.87 0 .3.1.56.28.77a.9.9 0 0 0 .7.3.65.65 0 0 0 .47-.2l.25-.37a.23.23 0 0 1 .2-.1c.08 0 .14.05.18.17.04.13.06.32.06.6 0 .08 0 .27-.05.55-.03.28-.2.57-.54.86-.34.3-.7.43-1.1.43-.6 0-1.12-.26-1.52-.75-.4-.5-.6-1.12-.6-1.87 0-.9.42-1.62 1.27-2.2.87-.57 1.88-.86 3.04-.86 2.4 0 4.44 1.13 6.1 3.4 1.63 2.25 2.46 5.02 2.46 8.32zm19.6 1.7c0 2.8-1.05 5.28-3.14 7.4-2.15 2.2-4.74 3.28-7.77 3.28-1.42 0-2.62-.3-3.62-.92-1.13-.7-1.7-1.63-1.7-2.84 0-.57.2-1.1.57-1.55.37-.45.84-.68 1.4-.68.54 0 1 .1 1.38.34.38.23.56.58.56 1.06 0 .45-.1.8-.33 1.07-.07.07-.14.1-.22.1s-.15-.05-.24-.2a.8.8 0 0 0-.2-.26c-.14-.1-.33-.17-.58-.17-.18 0-.33.1-.45.27a1.03 1.03 0 0 0-.17.58c0 .76.45 1.36 1.36 1.8.75.34 1.64.52 2.7.52 2.18 0 4.07-.94 5.68-2.8 1.6-1.88 2.42-4.03 2.42-6.45 0-1.6-.42-3-1.27-4.2-.92-1.32-2.1-1.97-3.5-1.97-.88 0-1.66.13-2.33.4-.82.3-1.38.77-1.66 1.37-.05.14-.1.28-.13.42-.03.14-.1.35-.18.6-.06.08-.16.1-.28.1l-1.38-.16c-.22-.05-.3-.2-.26-.48l.34-2.02c.1-.86.13-1.7.13-2.47a372.34 372.34 0 0 1-.06-4.36c0-.13.02-.28.06-.45l.1-.2c.05-.07.16-.1.32-.1 1.12.3 2.28.54 3.5.74a23.2 23.2 0 0 0 3.72.3c.7 0 1.23-.07 1.6-.18.53-.17.8-.48.8-.94 0-.3-.06-.5-.17-.66a.62.62 0 0 0-.26-.2c-.1-.05-.15-.1-.15-.17 0-.1.06-.17.18-.24.1-.07.26-.1.44-.12l.6-.02c.5 0 .92.18 1.3.54.36.35.54.78.54 1.27 0 .82-.44 1.45-1.35 1.9-.74.35-1.63.53-2.7.53a21.8 21.8 0 0 1-4-.4c-.92-.16-2.02-.44-3.3-.82l-.03 1.74a103.87 103.87 0 0 0-.02 1.8 20.5 20.5 0 0 1-.3 3.58c.64-1.06 1.45-1.84 2.46-2.36 1-.52 2.1-.77 3.32-.77 1.93 0 3.46.65 4.6 1.96 1.13 1.3 1.7 3.1 1.7 5.44z"/><path fill="#2C2825" d="M173.63 409.7h251.14v5.04H173.64z"/><path fill="#9E9369" d="M138.6 404.45s8.14-11.07-3.72-9.1c0 0-13.3 6.7 1.4 16 0 0 12.6 4.26 17.75-7.52h9.2s1.03 9.8 27.3 8.2h144.48v-5.67H176.8s-9.84-1.08-10.05-11h-10.97s-1.03-16.15-20.27-16.15c0 0-22.75 2.28-22.75 26.08 0 0-2.27 17.58 22.35 32.7 0 0 13 6.13 13.85 15.7.08.95.23 1.9.22 2.9-.13 7.7-.4 9.36-3.73 13.66l13.66 13.03s3.72-8.7 15.1-5.38c0 0-6.82-19.7 15.72-20.12h140.03v-4.5H179.98s-13.04 1.86-14.5 16.54l-5.57 2.28-4.97-3.93s4.14-16.35 2.07-29.8c0 0 7.03-1.44 10.76-8.9 0 0-7.77-2.68-10.77-2.26l-3 .42s7.35-6.62-.93-10.34c0 0-12.56 13.96-28.76-6 0 0-6.83-14.07 4.35-20.28 0 0 9.7-5.6 15.92.83 0 0 7.03 2.48 1.45 13.03l-7.25.42"/><path fill="#9E9369" d="M138.9 450.25s-6.36-10.7-19.67-11.2a27 27 0 0 0-1.07-.03c-14.05.05 3.75 12.02 11.3 13.28 0 0-9.02.16-9.94 5.04 0 0 3.37 4.56 10.97 3.07l.38-.07c7.87-1.74.95 10.56-1.26 13.46 0 0 17.25-6.92 9.3-23.55zm327.16-45.8s-8.13-11.07 3.73-9.1c0 0 13.28 6.7-1.4 16 0 0-12.6 4.26-17.76-7.52h-9.2s-1.03 9.8-27.3 8.2h-87.3v-5.67h99.94s10.94-1.08 11.14-11h10.97s1.02-16.15 20.26-16.15c0 0 22.76 2.28 22.76 26.08 0 0 2.27 17.58-22.34 32.7 0 0-13 6.13-13.85 15.7-.1.95-.24 1.9-.22 2.9.13 7.7.42 9.36 3.73 13.66l-13.66 13.03s-3.72-8.7-15.1-5.38c0 0 6.83-19.7-15.72-20.12h-90.4v-4.5h100.33s13.03 1.86 14.48 16.54l5.6 2.28 4.95-3.93s-4.13-16.35-2.06-29.8c0 0-7.03-1.44-10.76-8.9 0 0 7.77-2.68 10.76-2.26l3 .42s-7.34-6.62.94-10.34c0 0 12.56 13.96 28.75-6 0 0 6.83-14.07-4.34-20.28 0 0-9.74-5.6-15.94.83 0 0-7.04 2.48-1.45 13.03l7.25.42"/><path fill="#9E9369" d="M465.76 450.25s6.37-10.7 19.7-11.2c.34-.02.7-.03 1.06-.03 14.04.05-3.75 12.02-11.3 13.28 0 0 9 .16 9.93 5.04 0 0-3.37 4.56-10.97 3.07a9.96 9.96 0 0 1-.4-.07c-7.86-1.74-.93 10.56 1.27 13.46 0 0-17.24-6.92-9.3-23.55z"/><path fill="#45362A" d="M130.97 424.48s6.88 9.42 15.8 2.55l9.17 6.15s-4.7-1.95 0 0c0 0-8.36 4-2.75 12.14 0 0-7.45-9.05-11.35-10.42 0 0-11.56-5.84-10.87-10.42zm342.6 0s-6.87 9.42-15.8 2.55l-9.15 6.15s4.7-1.95 0 0c0 0 8.35 4 2.74 12.14 0 0 7.44-9.05 11.34-10.42 0 0 11.56-5.84 10.88-10.42z"/><path fill="#DAC379" d="M174.2 477.9s39.92 94.3 137.17 85.8c0 0-96.17 12.47-137.17-85.8z"/><path fill="#DAC379" d="M428.55 477.9s-39.92 94.3-137.16 85.8c0 0 96.15 12.47 137.15-85.8z"/><g fill="#DAC379" opacity=".77"><path d="M119.77 387.12c-1.35.27 25.22-15.88 32.7 3.55 0 0-9.28-8.26-32.7-3.55z"/><ellipse cx="136.31" cy="399.35" rx="4.03" ry="2.18"/><path d="M113.84 439.8s21.4-2.4 26.5 16.46c0 0-10.15-15.04-26.5-16.47z"/></g><g fill="#DAC379" opacity=".77"><path d="M485.26 387.12c1.35.27-25.2-15.88-32.7 3.55 0 0 9.3-8.26 32.7-3.55z"/><ellipse cx="468.73" cy="399.35" rx="4.03" ry="2.18"/><path d="M491.2 439.8s-21.4-2.4-26.5 16.46c0 0 10.15-15.04 26.5-16.47z"/></g><g opacity=".39"><defs><path id="a" d="M159.04 494.84l12.6-2.32s27.72 58.7 99.4 77.2c0 0 111.88 19.3 164.04-83l5.54 4.34s2 6.14 0 5.98-5.54 2.88-5.54 2.88-3.74 6.32-6.6 7.3-2.73 1.03-4.3 5.63-8.27 27.57-45.03 39.5c0 0-9.52 12.75-32.83 19.46s-1.73-.53-1.73-.53-25.4 17.3-52.67 8.7c0 0-47.82 5-55.23-11.3 0 0-34.66-23.4-41.37-24.73s-3.24 0-3.24 0-21.28-21.9-33.06-49.1z" opacity=".39"/></defs><clipPath id="b"><use xlink:href="#a" overflow="visible"/></clipPath><g fill="#DAC379" stroke="#DAC379" stroke-width=".75" stroke-miterlimit="10" clip-path="url(#b)"><path d="M152.48 507.34l17.87-10.3 1.3 2.25-15.9 9.16 5.23 9.07-1.97 1.14-6.52-11.33zm12.72 21.52c-1.45-2.04-1.85-4.25-1.22-6.63.63-2.4 2.38-4.6 5.23-6.6 2.87-2.04 5.52-2.95 7.98-2.76 2.45.2 4.4 1.3 5.85 3.35 1.45 2.03 1.86 4.25 1.23 6.63-.63 2.4-2.37 4.6-5.23 6.62-2.85 2.02-5.5 2.93-7.97 2.74s-4.42-1.3-5.86-3.34zm1.68-1.2c1.06 1.5 2.54 2.2 4.45 2.1 1.9-.1 3.96-.94 6.14-2.5 2.18-1.53 3.63-3.2 4.37-4.96s.57-3.4-.48-4.9c-1.05-1.47-2.54-2.16-4.45-2.06-1.9.1-3.96.93-6.14 2.47-2.18 1.56-3.64 3.22-4.36 5-.73 1.77-.57 3.4.48 4.87zm32 8.74l1.6 1.8-20.77 7.75-1.74-1.95 10.25-19.45 1.9 2.1-8.62 16.27 17.4-6.52zm-8.8 20l-1.9-1.77 14.1-15.06 1.9 1.78-14.1 15.05zm6.48-.23l2.03 1.62-.1.1c-.7.9-.9 1.75-.56 2.6.33.83 1 1.65 2 2.46.9.7 1.86 1.03 2.88.97 1.03-.06 1.9-.52 2.6-1.4.55-.7.75-1.48.6-2.35-.17-.85-.6-1.92-1.3-3.2l-.54-1c-.73-1.35-1.18-2.47-1.36-3.37-.18-.9-.18-1.72 0-2.5.18-.77.54-1.5 1.1-2.2.97-1.22 2.2-1.92 3.7-2.1 1.5-.16 3.15.46 4.93 1.87 1.62 1.3 2.52 2.53 2.7 3.68.16 1.15-.1 2.14-.75 2.98l-.1.1-2.02-1.62.08-.1c.2-.26.32-.6.32-1.02 0-.42-.16-.85-.48-1.3a6.37 6.37 0 0 0-1.2-1.23c-1-.8-1.95-1.13-2.84-1-.9.15-1.6.54-2.12 1.2a3.13 3.13 0 0 0-.66 1.53 3.63 3.63 0 0 0 .17 1.72c.2.57.6 1.45 1.2 2.63l.6 1.2c1 1.9 1.44 3.43 1.35 4.6-.1 1.16-.48 2.18-1.18 3.05-.64.8-1.48 1.43-2.5 1.85-1.02.43-2.05.54-3.1.35-1.05-.2-2.2-.8-3.42-1.77-1.17-.92-2.03-1.84-2.58-2.75s-.77-1.85-.66-2.83c.12-.98.5-1.86 1.1-2.64l.1-.1zm12.7 15.54l-2.05-1.24 17.67-13.43 2.25 1.36-4.2 21.56-2.4-1.45 1.17-5.93-7.57-4.56-4.86 3.7zm6.6-5.05l6.24 3.77 1.95-10.02-8.18 6.25zm32.88 23.66l-2.5-.68 5.45-19.9 2.5.7-2.43 8.85 8.84 2.44 2.44-8.85 2.5.7-5.45 19.88-2.52-.7 2.5-9.04-8.86-2.44-2.48 9.05zm19.35 4.6l-2.57-.48 3.73-20.3 2.55.48-3.7 20.3zm5.25-3.72l2.58.28-.02.13c-.1 1.13.2 1.96.92 2.5.73.52 1.74.85 3.02 1 1.13.12 2.1-.12 2.95-.72.82-.6 1.3-1.45 1.42-2.56.1-.9-.15-1.67-.74-2.3-.6-.65-1.53-1.32-2.8-2.03l-1-.56c-1.34-.75-2.32-1.46-2.95-2.12-.63-.66-1.08-1.37-1.34-2.12-.28-.75-.36-1.57-.27-2.45.17-1.55.84-2.8 2.02-3.75 1.18-.95 2.9-1.3 5.15-1.06 2.07.22 3.48.78 4.24 1.66s1.08 1.86.97 2.92v.13l-2.6-.28.02-.14c.04-.33-.06-.68-.28-1.03-.22-.35-.6-.63-1.1-.83a6.3 6.3 0 0 0-1.68-.4c-1.27-.15-2.24.08-2.92.67s-1.07 1.3-1.16 2.14c-.06.57.03 1.12.27 1.65.23.53.58.98 1.06 1.36.48.37 1.3.9 2.43 1.58l1.15.68c1.85 1.08 3.05 2.14 3.6 3.17.54 1.03.76 2.1.64 3.2-.1 1.04-.5 2-1.12 2.9-.63.92-1.44 1.57-2.44 1.97-1 .4-2.27.5-3.83.33-1.48-.16-2.7-.48-3.65-.95-.96-.47-1.65-1.15-2.07-2.04a5.15 5.15 0 0 1-.47-2.83v-.12zm23.05 6.38l.02-18.57-6.8-.02v-2.06l16.1.02V579H299l-.02 18.56h-2.6zm21.83-1.02c-2.47.36-4.62-.3-6.45-1.95-1.83-1.66-3-4.22-3.5-7.7-.5-3.45-.1-6.23 1.2-8.33 1.3-2.1 3.17-3.32 5.64-3.68 2.47-.36 4.63.3 6.46 1.94s3 4.2 3.5 7.67c.5 3.48.1 6.26-1.2 8.36-1.3 2.1-3.18 3.33-5.65 3.68zm-.28-2.04c1.8-.26 3.1-1.26 3.87-3 .8-1.75 1-3.95.6-6.6-.38-2.64-1.2-4.7-2.43-6.16-1.25-1.46-2.77-2.06-4.57-1.8-1.8.25-3.1 1.25-3.87 3-.8 1.76-1 3.96-.6 6.6.37 2.65 1.18 4.7 2.43 6.16 1.24 1.46 2.75 2.06 4.55 1.8zm15.98-1.5l-2.52.64-5-20.02 6-1.5c1.47-.36 2.63-.42 3.48-.16.85.25 1.6.74 2.24 1.46a5.93 5.93 0 0 1 1.32 2.54 6.18 6.18 0 0 1 .13 2.36 6.64 6.64 0 0 1-.73 2.25c-.38.72-1.07 1.44-2.08 2.17.48.14.85.3 1.1.45.28.15.62.44 1.04.84.42.4.8.8 1.13 1.16l4.56 5.15-2.9.72-4-4.6a12.1 12.1 0 0 0-3.37-2.7l-2.55.64 2.16 8.6zm-2.65-10.6l2.47-.6c1.04-.26 1.8-.63 2.24-1.1.45-.46.75-1.05.9-1.76.17-.72.16-1.43-.02-2.16-.16-.63-.42-1.16-.8-1.6a3.42 3.42 0 0 0-1.4-.96c-.58-.2-1.44-.18-2.6.1l-2.65.67 1.85 7.4zm19.44 5.9l-2.48.8-6.32-19.64 2.48-.8 6.32 19.65zm2.84-5.73l2.42-.97.05.13c.42 1.06 1.08 1.65 1.97 1.78s1.94-.04 3.14-.52c1.05-.42 1.8-1.1 2.27-2 .47-.92.5-1.9.08-2.94-.34-.84-.92-1.4-1.75-1.7-.82-.28-1.96-.44-3.42-.47l-1.12-.02c-1.54-.04-2.74-.2-3.6-.5-.87-.28-1.6-.7-2.18-1.24-.6-.53-1.04-1.2-1.37-2.03-.58-1.45-.57-2.87.02-4.27.6-1.4 1.94-2.5 4.05-3.34 1.94-.77 3.45-.94 4.53-.52 1.08.43 1.82 1.14 2.22 2.12l.05.13-2.42.95-.05-.13c-.12-.3-.37-.57-.73-.78-.36-.2-.8-.28-1.35-.22-.54.05-1.1.2-1.68.43-1.2.47-1.94 1.13-2.27 1.97-.32.84-.33 1.65 0 2.44.2.52.53.97 1 1.32.44.36.97.6 1.56.7.6.13 1.56.22 2.88.28l1.34.06c2.14.1 3.7.47 4.66 1.12.97.65 1.65 1.5 2.07 2.54.4.96.52 2 .38 3.1-.13 1.1-.54 2.04-1.23 2.86-.7.8-1.77 1.5-3.23 2.1-1.38.54-2.6.83-3.67.86-1.07.03-2-.25-2.8-.84a5.18 5.18 0 0 1-1.74-2.27l-.04-.14zm21.02-3.97l-2.3 1.2-9.62-18.24 2.3-1.2 4.6 8.7 2.78-12.6 2.62-1.38-2.74 12.38 13.48 5.3-2.87 1.5-13.27-5.2 5.02 9.54zm15.67-8.7l-1.98 1.37-5.03-21.62 2.16-1.5 17.97 12.66-2.3 1.6-4.95-3.48-7.25 5.03 1.38 5.95zm-1.9-8.1l5.97-4.14-8.34-5.88 2.36 10.02zm35.08-19.83l-1.7 1.97-15.63-13.47 1.7-1.97 6.96 6 5.98-6.95-6.96-6 1.7-1.97 15.63 13.47-1.68 1.97-7.12-6.12-5.98 6.95 7.1 6.12zm-6.04-24.9l1.44-2.17 11.02 7.4c1.6 1.1 2.78 1.66 3.54 1.72.75.07 1.48-.12 2.2-.57.72-.45 1.34-1.06 1.87-1.85.5-.77.82-1.54.93-2.32.1-.78-.05-1.52-.48-2.23-.43-.7-1.63-1.72-3.6-3.05l-10.25-6.88 1.34-2 10.8 7.27c2 1.34 3.27 2.5 3.78 3.5s.72 2.05.62 3.2-.57 2.38-1.42 3.66c-.8 1.18-1.7 2.13-2.75 2.86-1.03.73-2.1 1.07-3.22 1.02-1.1-.05-2.6-.7-4.5-1.98l-11.3-7.6zm23.53-6.83l1.2-2.3.13.06c1 .53 1.9.56 2.66.08.76-.48 1.44-1.3 2.05-2.44.53-1 .67-2 .43-3-.25-1-.86-1.75-1.85-2.28-.8-.42-1.6-.48-2.43-.16-.8.32-1.78.94-2.9 1.86l-.9.7c-1.18.98-2.2 1.63-3.05 1.97-.85.34-1.67.5-2.46.46-.8-.04-1.58-.26-2.36-.68-1.38-.73-2.3-1.82-2.74-3.26-.45-1.45-.15-3.17.92-5.18.97-1.84 2-2.95 3.1-3.33 1.1-.37 2.13-.3 3.07.2l.1.05-1.2 2.3-.13-.07c-.3-.15-.65-.2-1.06-.12s-.8.32-1.17.72a6.34 6.34 0 0 0-1 1.42c-.6 1.13-.75 2.1-.45 2.97.3.86.82 1.48 1.57 1.87a3.13 3.13 0 0 0 1.62.37c.58-.03 1.13-.2 1.66-.48s1.32-.85 2.37-1.66l1.05-.83c1.7-1.3 3.12-2.04 4.28-2.17 1.16-.12 2.23.08 3.22.6.9.5 1.68 1.2 2.28 2.12.6.92.92 1.92.92 3 0 1.05-.37 2.28-1.1 3.67-.7 1.3-1.45 2.32-2.24 3.04-.78.7-1.67 1.1-2.65 1.16a5.14 5.14 0 0 1-2.8-.6l-.12-.06z"/></g></g><g opacity=".39"><defs><path id="c" d="M152.48 366.9s35.24-76 104.13-90c0 0 69.2-19.5 122.55 19.5 0 0 37.85 31 46.85 35 0 0 13.22 22.76 22.36 33.88h15.3S424 262.9 294.5 256.4c0 0-107.32 5.5-154.16 104l11.5 4.88" opacity=".39"/></defs><clipPath id="d"><use xlink:href="#c" overflow="visible"/></clipPath><g clip-path="url(#d)"><ellipse cx="300.1" cy="438.03" fill="none" transform="rotate(-9.936 300.095 437.984)" rx="148.13" ry="151.5"/><text fill="#DAC379" stroke="#DAC379" stroke-width=".75" stroke-miterlimit="10" transform="matrix(.4716 -.8565 .876 .4823 167.02 369.83)" font-family="'Geneva'" font-size="26.83">L</text><text fill="#DAC379" stroke="#DAC379" stroke-width=".75" stroke-miterlimit="10" transform="matrix(.56 -.8014 .8196 .573 173.713 357.327)" font-family="'Geneva'" font-size="26.83">O</text><text fill="#DAC379" stroke="#DAC379" stroke-width=".75" stroke-miterlimit="10" transform="matrix(.6517 -.729 .7455 .6665 184 342.49)" font-family="'Geneva'" font-size="26.83">V</text><text fill="#DAC379" stroke="#DAC379" stroke-width=".75" stroke-miterlimit="10" transform="matrix(.707 -.6754 .6908 .723 196.192 329.17)" font-family="'Geneva'" font-size="26.83">I</text><text fill="#DAC379" stroke="#DAC379" stroke-width=".75" stroke-miterlimit="10" transform="matrix(.7334 -.6466 .6613 .75 200.45 325.088)" font-family="'Geneva'" font-size="26.83">I</text><text fill="#DAC379" stroke="#DAC379" stroke-width=".75" stroke-miterlimit="10" transform="matrix(.7777 -.5926 .606 .7954 204.625 321.15)" font-family="'Geneva'" font-size="26.83">S</text><text fill="#DAC379" stroke="#DAC379" stroke-width=".75" stroke-miterlimit="10" transform="matrix(.8403 -.5 .5113 .8594 216.564 311.878)" font-family="'Geneva'" font-size="26.83">A</text><text fill="#DAC379" stroke="#DAC379" stroke-width=".75" stroke-miterlimit="10" transform="matrix(.8948 -.3943 .4032 .915 231.875 302.7)" font-family="'Geneva'" font-size="26.83">N</text><text fill="#DAC379" stroke="#DAC379" stroke-width=".75" stroke-miterlimit="10" transform="matrix(.9658 -.1528 .1562 .9877 262.513 290.596)" font-family="'Geneva'" font-size="26.83">W</text><text fill="#DAC379" stroke="#DAC379" stroke-width=".75" stroke-miterlimit="10" transform="matrix(.9774 -.0257 .0263 .9997 285.807 286.9)" font-family="'Geneva'" font-size="26.83">A</text><text fill="#DAC379" stroke="#DAC379" stroke-width=".75" stroke-miterlimit="10" transform="matrix(.9733 .093 -.0952 .9955 303.646 286.373)" font-family="'Geneva'" font-size="26.83">N</text><text fill="#DAC379" stroke="#DAC379" stroke-width=".75" stroke-miterlimit="10" transform="matrix(.9555 .2072 -.212 .9773 320.958 287.97)" font-family="'Geneva'" font-size="26.83">H</text><text fill="#DAC379" stroke="#DAC379" stroke-width=".75" stroke-miterlimit="10" transform="matrix(.9242 .3192 -.3264 .9452 337.485 291.457)" font-family="'Geneva'" font-size="26.83">A</text><text fill="#DAC379" stroke="#DAC379" stroke-width=".75" stroke-miterlimit="10" transform="matrix(.8822 .4217 -.4313 .9022 354.404 297.3)" font-family="'Geneva'" font-size="26.83">T</text><text fill="#DAC379" stroke="#DAC379" stroke-width=".75" stroke-miterlimit="10" transform="matrix(.7755 .5955 -.609 .7932 381.96 312.165)" font-family="'Geneva'" font-size="26.83">T</text><text fill="#DAC379" stroke="#DAC379" stroke-width=".75" stroke-miterlimit="10" transform="matrix(.7052 .6773 -.6927 .7212 394.42 321.57)" font-family="'Geneva'" font-size="26.83">A</text><text fill="#DAC379" stroke="#DAC379" stroke-width=".75" stroke-miterlimit="10" transform="matrix(.63 .7477 -.7647 .6444 407.318 334.012)" font-family="'Geneva'" font-size="26.83">L</text><text fill="#DAC379" stroke="#DAC379" stroke-width=".75" stroke-miterlimit="10" transform="matrix(.5576 .8032 -.8215 .5702 415.398 343.236)" font-family="'Geneva'" font-size="26.83">O</text><text fill="#DAC379" stroke="#DAC379" stroke-width=".75" stroke-miterlimit="10" transform="matrix(.4764 .854 -.8733 .4872 424.7 356.48)" font-family="'Geneva'" font-size="26.83">T</text></g></g><g opacity=".94"><defs><path id="e" d="M212.9 374.72s3.13 14.28 5.48 16.24 5.28 3.52 8.02 3.33 7.43 0 7.43 0 10.18.02 11.74 0 4.5-.36 6.85 0 5.9 1 6.47 0 10.35.72 11.13.55 2-5.07 2-5.07 5.83 10 13.46-3.32l13.12-55.06s8.2 58.2 8.4 58.78 1.15 2.75 2.33 2.84 1.77 2.42 3.14 1.84 2.15-.4 3.12.1 6.07 0 6.07 0 11.7-54.52 12.88-61.63c0 0 1.84-.1 3.77-1.07s3.9-3.74 3.9-3.74 17.6 4.33 21.3 6.1l-1.06 6.64-1.87 53.92s8.6 6.35 12.13-.9v-55.17s16.94 9.42 18.2 13.12l.52 3.03-14.8-8.9-.8 54.8H211.54l1.37-26.43z" opacity=".94"/></defs><clipPath id="f"><use xlink:href="#e" overflow="visible"/></clipPath><g fill="#302C2A" clip-path="url(#f)"><path d="M214.16 399.92v-60.94l12.03-10.47v57.05h30v14.37h-42.04zm59.6 0l-14.86-87.57 11.9-3.55 9.97 64.56L291.7 310h14.37l10.5 64.34 10.36-66.44 11.42 2.97-14.95 89.05h-12.84l-11.94-68.53-11.83 68.52h-13.05zm70.5-87.4v14s5.48 1.92 18.23 10.83v62.57h12.02v-56.4s9.3 4.66 17.7 12.4v-13.65S365.25 318 344.25 312.5z"/></g></g><defs><path id="g" d="M214.54 527.34l-.02-2.78c1.32 0 15.15 11.36 26.5 12.72 0 0 5.67 2.27 6.8 2.27s5.22 2.27 6.8 2.27h5.68c.68 0 13 7.8 13 7.8s4.92 1.24 5.37 0 3.4-42.75 3.4-42.75h31.08s-5.84 37-5.07 40.85.76 5 2.35 5.22 11.12-1.6 11.12-1.6l1.8-17.46 1.94-64.42 3.28 81.88s3.85.2 5.22 0 5-1.7 5-1.7l5.8-1.47s5.15-3.17 5-3.85 3.48-35.27 3.48-35.27l25.63-1.25-1.58 4.76c-.23.68-1.8 16.8-1.36 17.92s2.95 1.36 2.95 1.36 9.3-2.92 9.54-20.63l2-39.7 3.06 59.66s-75.6 51.04-140.7 23.6c0 0-31.94-11.56-38.06-27.42z"/></defs><clipPath id="h"><use xlink:href="#g" overflow="visible"/></clipPath><g fill="#282625" clip-path="url(#h)"><path d="M271.12 552.38V462.4h12.8v33.43h29.26V462.4h12.8v92.02l-12.8 1.27v-45.5h-29.25v44.5l-12.8-2.32zm71.35-1.04V462.4h12.03v33.43h23.7V462.4h12.03v63.7l-12.02 9.3v-25.2h-23.7v37.14l-12.03 4zM226.2 521.27s14.07 10.18 30 12.7v15.66s-27.24-8.74-42.04-23.5v.28-5.72l12.03.6z"/><path d="M214.52 463.1h11.73v61.46h-11.73z"/></g><g fill="#DAC379" opacity=".62"><ellipse cx="370.87" cy="263" rx="3.63" ry="3"/><ellipse cx="387.85" cy="271.25" rx="3.63" ry="3"/><ellipse cx="354.37" cy="256.4" rx="3.63" ry="3"/><ellipse cx="319.19" cy="249.09" rx="3.2" ry="2.64"/><ellipse cx="337.25" cy="251.73" rx="3.2" ry="2.64"/><ellipse cx="403" cy="280" rx="3.2" ry="2.64"/><ellipse cx="417.75" cy="291.25" rx="3.2" ry="2.64"/><ellipse cx="432.34" cy="303.66" rx="2.75" ry="2.3"/><ellipse cx="300.43" cy="247.24" rx="2.75" ry="2.3"/><ellipse cx="443" cy="316.75" rx="2.75" ry="2.3"/><ellipse cx="454.86" cy="330.91" rx="2.14" ry="1.79"/><ellipse cx="282" cy="248.24" rx="2.14" ry="1.79"/></g><g fill="#DAC379" opacity=".62"><ellipse cx="191.73" cy="576" transform="rotate(-166.09 191.72 575.99)" rx="3.63" ry="3"/><ellipse cx="177.23" cy="563.91" transform="rotate(-166.083 177.242 563.938)" rx="3.63" ry="3"/><path d="M202.63 585.5c.4-1.6 2.3-2.52 4.25-2.03 1.95.48 3.2 2.17 2.8 3.78-.4 1.6-2.3 2.52-4.24 2.04s-3.2-2.2-2.8-3.8z"/><ellipse cx="238.55" cy="601.94" transform="rotate(-166.072 238.568 601.942)" rx="3.2" ry="2.64"/><ellipse cx="221.65" cy="595.03" transform="rotate(-166.096 221.65 595.03)" rx="3.2" ry="2.64"/><ellipse cx="164.63" cy="551.77" transform="rotate(-166.09 164.62 551.76)" rx="3.2" ry="2.64"/><ellipse cx="153.02" cy="537.3" transform="rotate(-166.072 153.005 537.3)" rx="3.2" ry="2.64"/><ellipse cx="141.84" cy="521.75" transform="rotate(-166.083 141.853 521.778)" rx="2.75" ry="2.3"/><ellipse cx="256.31" cy="608.25" transform="rotate(-166.072 256.312 608.246)" rx="2.75" ry="2.3"/><ellipse cx="134.65" cy="506.48" transform="rotate(-166.072 134.656 506.487)" rx="2.75" ry="2.3"/><ellipse cx="126.54" cy="489.89" transform="rotate(-166.072 126.55 489.89)" rx="2.14" ry="1.79"/><ellipse cx="274.44" cy="611.71" transform="rotate(-166.083 274.45 611.74)" rx="2.14" ry="1.79"/></g></svg>
