<svg xmlns="http://www.w3.org/2000/svg" xmlns:xlink="http://www.w3.org/1999/xlink" viewBox="0 0 302.58 49.79"><defs><path id="a" d="M0-.96h302.9v50.43H0z"/></defs><clipPath id="b"><use xlink:href="#a" overflow="visible"/></clipPath><g clip-path="url(#b)"><defs><path id="c" d="M-.14-.8H605.4v50.67H-.15z"/></defs><clipPath id="d"><use xlink:href="#c" overflow="visible"/></clipPath><path fill="#45362A" d="M-.14 4.13H302.9V41.7H-.14z" clip-path="url(#d)"/><path fill="#7CC7CB" d="M-.14 44.26H302.9v5.6H-.14z" clip-path="url(#d)"/><path fill="#9E9369" d="M-.14 44.26h5.6v5.6h-5.6zm11.22 0h5.62v5.6h-5.62zm11.23 0h5.62v5.6h-5.6zm11.23 0h5.6v5.6h-5.6zm11.23 0h5.6v5.6h-5.6zm11.22 0h5.6v5.6H56zm11.22 0h5.62v5.6H67.2zm11.23 0h5.6v5.6h-5.6zm11.22 0h5.6v5.6h-5.6zm11.22 0h5.62v5.6h-5.63zm11.23 0h5.6v5.6h-5.6zm11.22 0h5.62v5.6h-5.62zm11.23 0h5.6v5.6h-5.6zm11.22 0h5.6v5.6h-5.6zm11.22 0h5.6v5.6H157zm11.22 0h5.6v5.6h-5.6zm11.22 0h5.62v5.6h-5.62zm11.23 0h5.6v5.6h-5.6zm11.22 0h5.6v5.6h-5.6zm11.2 0h5.63v5.6h-5.62zm11.24 0h5.6v5.6h-5.6zm11.22 0h5.6v5.6h-5.6zm11.23 0h5.6v5.6h-5.6zm11.2 0h5.62v5.6h-5.6zm11.23 0h5.62v5.6h-5.62zm11.23 0h5.6v5.6h-5.6zm11.22 0h5.6v5.6h-5.6z" clip-path="url(#d)"/><path fill="#7CC7CB" d="M-.14-.8H302.9v5.5H-.14zm0 37.87s20.42 3.08 38.45-14.94c0 0 39.33-28.37 59.75-5.93 0 0 27.8 26.52 53.98 21.85v2.3l-152.17.03v-3.3z" clip-path="url(#d)"/><path fill="#9E9369" d="M-.14 35.95s16.98 3.68 22.95-8.3c0 0 3.1-7.7-7-9.54 0 0-5.5-.18-6.8 3.9 0 0-.94 3.06 3.26 2.88 0 0-3.2-3.22.55-4.24 0 0 3.2.26 3.3 2.67 0 0-1.32 5.47-6.36 3.34 0 0-2.98-.65-2.9-4.54 0 0 .9-5.62 8-7.4 0 0 11.17-1.72 12.4 9.27 0 0 .17 5.3-5.44 8.98 0 0 13.5-7.5 12.98-16.4 0 0-.86-6.03-5.34-7.33 0 0 5.04-2.9 8.6.17l1.1-1.47s6.45 4.6 0 12.78l-.83 1.43s9.43-6.52 11.86-7.54l-.65 1.47 2.34-1.1s2.24 1.47 2.05 2.58c0 0-13.93 5.2-17.98 9.93 0 0 9.95-4.18 15.83-1.95 0 0 5.6 1.2 6.25 6.5 0 0-.46 4.8-4.76 5 0 0-5.04-1.48-2.33-5.1 0 0 2.8-1.5 2.34 2.6 0 0 4.25-3.38-3.2-6.5 0 0-4.98-2.32-16.94 3.16 0 0-15.74 9.44-33.24 7.12v-2.38z" clip-path="url(#d)"/><path fill="#9E9369" d="M49.8 14.76s15.8-9.7 30.52-8.24c0 0 4.22-.53 17.73 7.42 0 0 14.1 8.85 24.87 8.3 0 0 9.47 1.17 7.62-7.8 0 0-.46-3.37-7.5-2.77 0 0-2.8 1.7-.45 2.73 0 0 3.14-1.76 2.93 1.9 0 0-4.7 7-7.28-1.07 0 0-1.44-5.08 4.56-6.36 0 0 10.45-3.2 11.4 7.34 0 0 1.5 10.48-12.17 10.05 0 0-13.93-2.28-15.84-5.62 0 0 11.6 10.9 23.78 11.65 0 0 16.08 1.62 11.62-7.98 0 0 4.46.27 3.8 5.07 0 0 0 2.7-2.17 4.42 0 0 1.1-1.03 0 0 0 0-4.87 3.42-9.9 1.5 0 0 9.27 3.16 18.7 2.12v1.8s-15.88 1.58-31.13-4.33c0 0-8.1-3.1-14.12-8.4 0 0-6.86-6-7.33-8.14 0 0 5.98 13.82 11.73 14.36 0 0 1.63.2 3.15-.44 0 0 0 3.46-5 2.6l.55 1.94s-8.8.2-11.83-10.58c0 0-2.18 6.58-9.78 4.96l1.3-1.3s5.22 1.3 4.46-8.52c0 0 .26-8.3-13.65-11.44 0 0-16.3-1.64-29.17 6.8l-.25-.86-1.44.2.3-1.33z" clip-path="url(#d)"/><circle cx="151.38" cy="14.94" r="9.34" fill="#9E9369" clip-path="url(#d)"/><path fill="#ECA747" d="M148.32 12.64c-1.94 1.27-1.23 2.6-.37 4.3 1.12 2.23 2.5 2.92 4.7 1.4.6-.4 1.2-.93 1.84-1.26.48-.26 1.3-.3 1.66-.83.55-.83-.17-2.08-.97-2.43-.63-.27-.86-.03-1.4.18-1.03.4-1.6.6-2.7.23-1-.3-2-.94-3-1.07" clip-path="url(#d)"/><path fill="#F5EAA2" d="M153.4 11.1c.1-.33.68-.2.68-.2L154 12s.3.3.65.3c.36 0 1.42.1 1.42.1l.25.85-.35.25-.6.42s.7.8.24.92c-.46.1-1.45-.06-1.45-.06s-.87 1.42-1.12.8c-.25-.63-.45-2.06-.87-2.1-.42-.04-.37-1.32-.37-1.32l.33-1.24 1.26.18z" clip-path="url(#d)"/><path fill="#F8DF3B" d="M150.16 13.94l.82 1.16 1.84-.18-.66-1.44 1.1.02-.36-1.48s-.2-1.02-.48-1.06c-.3-.04-1.15-.27-1.15-.27s-.8.07-1.2.35c-.4.3-1.52.3-1.48.66.03.36-.63.82-.63.82l-.4.8s1-.6.8 0c-.2.6-.03.86.2 1.45s.96 1.35.96 1.35.16-.45.16-.9c0-.47.46-1.28.46-1.28z" clip-path="url(#d)"/><circle cx="-.14" cy="14.94" r="9.34" fill="#9E9369" clip-path="url(#d)"/><path fill="#ECA747" d="M-3.2 12.64c-1.94 1.27-1.24 2.6-.37 4.3 1.1 2.23 2.5 2.92 4.7 1.4.6-.4 1.2-.93 1.84-1.26.5-.26 1.3-.3 1.66-.83.55-.83-.17-2.08-.97-2.43-.62-.27-.85-.03-1.4.18-1 .4-1.6.6-2.7.23-.97-.3-2-.94-3-1.07" clip-path="url(#d)"/><path fill="#F5EAA2" d="M1.86 11.1c.13-.33.7-.2.7-.2L2.48 12s.26.3.63.3c.36 0 1.42.1 1.42.1l.25.85-.36.25-.6.42s.72.8.25.92c-.48.1-1.48-.06-1.48-.06s-.87 1.42-1.12.8c-.25-.63-.45-2.06-.87-2.1-.4-.04-.37-1.32-.37-1.32l.34-1.24 1.26.18z" clip-path="url(#d)"/><path fill="#F8DF3B" d="M-1.37 13.94l.82 1.16 1.85-.18-.67-1.44 1.1.02-.36-1.48S1.17 11 .9 10.96c-.3-.04-1.16-.27-1.16-.27s-.8.07-1.2.35c-.4.3-1.5.3-1.47.66.03.36-.62.82-.62.82l-.4.8s.98-.6.8 0c-.2.6-.04.86.2 1.45.25.6.96 1.35.96 1.35s.17-.45.17-.9c0-.47.46-1.28.46-1.28z" clip-path="url(#d)"/><path fill="#48883A" d="M94.28 26.42l-.1.47s1.38 1.24 1.48 1.5c.1.25.5.56 1 1 .53.47 1.12 1.53 1.2 1.7.1.2 1.13.98 1 1.44-.12.46.55 1.1.65 1.27.1.2-1 .27-1.3.06-.32-.2-.8-.87-1.3-.9-.53-.06-1.38-1.6-1.38-1.6s-.76.76-1.15.56c-.4-.2-.73-.22-1.06-.22-.33 0-1.35-.36-1.35-.36l-1.38-.05s-.87.63-1.15.6c-.28-.06-.67-.03-1.12-.2-.45-.2-1.04-.56-1.3-.92l-.96-1.37-1.18-1.2-.22-.8s2.64.5 2.74.76c.1.26 3 .2 3.4-.05.4-.24 1.33-.9 1.33-.9l-1.06-1.88 1.77.06 1.48 1.04z" clip-path="url(#d)"/><path fill="#ABD076" d="M83.27 27.43s1.4.64 1.6.77c.17.13 1.07.36 1.23.6.16.22.52.85.87 1.23s.93.62.93.62l-.33-1.05s.8 1.26 1 1.43c.2.16.6.17 1.07.35.46.2 1-.1 1.2-.26.23-.15.18-.1.84-.17.66-.05 1.56.3 1.9-.03.35-.32.86-1 1.2-.84.37.15.06.3-.34-.16-.4-.46-2.6-2.17-2.9-2.35-.28-.18-1.9-.96-2.5-1.22-.58-.27-2-.57-2.6-.2-.6.34-2.42.27-2.42.27l-1.94.1 1.2.9z" clip-path="url(#d)"/><path fill="#C7D764" d="M83.07 26.47s.5.35.83.36c.33 0 .65-.13 1.2-.18.52-.05 1-.32 1.4-.2.43.13.97-.15 1.74.5s.53.85 1.45 1.16c.9.33 1.23-.26 2.18.52.96.78 1.16 1.3 1.7 1.73.56.43 1.13.77 1.5.83.37.07 2.38 1.28 2.83 1.46.46.17 1.04.42 1.16.58.1.17-1.42-.97-1.42-.97s-1-.94-.9-1.26c.1-.33-1.08-1.2-1.22-1.77-.15-.55-.88-1.36-1.18-1.68-.3-.3-.55-.55-.95-.75l-1.47-.8 1.7.1.65.32s-.05-1-.98-1.4c-.93-.38-1.93-1-2.5-1-.58 0-3.1-.3-3.1-.3l-2.05.8-1.5.67-.94.65-.7.5-.96.03 1.63.45" clip-path="url(#d)"/><path fill="#48883A" d="M63.38 21.3l.04-.45s-1.48-1.14-1.6-1.4c-.12-.23-.53-.5-1.1-.9-.54-.42-1.22-1.42-1.32-1.6-.1-.18-1.2-.86-1.13-1.34.1-.46-.64-1.03-.74-1.2-.1-.17.98-.34 1.3-.16.34.2.86.8 1.38.8.53 0 1.52 1.46 1.52 1.46s.7-.82 1.1-.65c.4.17.73.15 1.07.13.32-.02 1.37.24 1.37.24l1.38-.07s.8-.7 1.1-.7c.28.03.66-.03 1.13.1.46.14 1.08.47 1.37.8l1.08 1.3 1.27 1.1.3.76s-2.68-.26-2.8-.5c-.12-.25-3.02.05-3.4.34a38.22 38.22 0 0 0-1.23 1.03l1.23 1.77-1.77.1-1.55-.92z" clip-path="url(#d)"/><path fill="#ABD076" d="M74.25 19.37s-1.46-.52-1.65-.63c-.18-.1-1.1-.27-1.3-.5-.17-.2-.57-.8-.96-1.14-.38-.36-.98-.55-.98-.55l.42 1.02s-.9-1.18-1.12-1.33c-.2-.15-.63-.12-1.1-.27-.47-.14-.98.2-1.18.37-.2.17-.16.13-.8.24-.66.1-1.6-.16-1.9.2-.33.34-.77 1.06-1.14.94-.36-.13-.07-.3.37.12.45.43 2.78 1.94 3.08 2.1.3.15 1.98.8 2.6 1 .62.22 2.05.4 2.62 0 .57-.4 2.4-.5 2.4-.5l1.9-.28-1.25-.8z" clip-path="url(#d)"/><path fill="#C7D764" d="M74.53 20.3s-.52-.3-.85-.28c-.34.02-.64.2-1.17.28-.52.1-.97.4-1.4.3s-.94.25-1.76-.32c-.83-.56-.6-.8-1.54-1.05-.94-.23-1.2.38-2.23-.3-1.02-.7-1.27-1.2-1.85-1.58-.6-.4-1.18-.68-1.56-.7-.38-.04-2.48-1.08-2.94-1.22-.47-.13-1.07-.33-1.2-.48-.13-.16 1.5.84 1.5.84s1.07.85 1 1.17c-.08.33 1.18 1.1 1.37 1.65.18.54 1 1.3 1.3 1.57.34.28.6.5 1.02.67l1.53.67-1.72.04-.66-.26s.13 1 1.1 1.3c.95.3 2 .83 2.58.78.57-.04 3.1.04 3.1.04l1.98-.97 1.43-.8.88-.73.66-.55.96-.13-1.66-.3" clip-path="url(#d)"/><path fill="#68B554" d="M69.18 32.3c-2.9-.57-5.7-1.35-6.72 2.14 1.47.27 3-.07 4.56.24.47.1 1.52.14 1.83.54.6.82-.32 1-1 1.62-2.78 2.52-5.17 2.3-8.8 1.4 0-1.54 2.17-3.64 3.05-4.86 1.18-1.64 1.47-3.33 3.67-3.6 1.07-.15 3.36-.17 4.22.63 1.4 1.32-.15 2.15-1.22 2.53" clip-path="url(#d)"/><path fill="#48883A" d="M61.67 34.02c2.26-.35 5.27.66 7.5 1.2-1.87 2.4-5.3 4.92-8.6 3.86 3.56.72 5.44.9 8.3-1.64 2.23-1.97 2.33-5.38 3.64-7.96-.87.83-1.68 2.12-2.94 2.3-.95.12-2.58-.38-3.54-.5-2.83-.4-4.72.8-5.5 3.65 1.02.04 1.86-.5 2.86-.4" clip-path="url(#d)"/><ellipse cx="63.94" cy="26.82" fill="#F8DF3B" transform="rotate(-174.34 63.945 26.824)" clip-path="url(#d)" rx="1.8" ry="1.62"/><ellipse cx="62.47" cy="27.63" fill="#DB752D" transform="rotate(-174.405 62.473 27.628)" clip-path="url(#d)" rx="1.39" ry="2.56"/><path fill="#577EB2" d="M65.95 28.55l1.7.27s1.7-.62 1.28.13c-.4.74-1.2 1.75-1.66 1.73-.47-.03-1.52-.15-1.52-.15s-1.3.82-1.3-.13c.03-.95-.2-1.48.2-1.88.4-.4 2.07-2.6 2.07-2.6l-.96-1.42-1-1.43 1.1-.84 1.45-.64 2.3.52s.45.26.42 1.46c-.04 1.2-.26 2.65-.26 2.65l-1.37-.13.12-1.33c.1-.93-.05-2.28-.05-2.28l-.78-.1s-.4-.6-.3.93c.14 1.54-.1 2.24-.1 3.02 0 .78-.35 1.72-.35 1.72" clip-path="url(#d)"/><path fill="#40649D" d="M65.8 24.2c.47-1.43-1.18-1.7-2.24-1.65.2 1.82-3.15.6-2.23 2.08.44.7 3.5.35 4.38.33.07-.23.12-.5.1-.75" clip-path="url(#d)"/><path fill="#C9DAE5" d="M67.5 23.57c-.16 0-.3-.05-.46-.03-.23 1.14-.72 5.63 1.02 5.27.5-1.46 2.82-5.44-.7-5.57m-3.83-2.33c.9.1 3.84.3 2.73 2.06-.62 1-4.07.44-4.37-.75-.1.17-.3.34-.4.6-.2-.65-.12-1.8.73-1.87m-1.2 3.95c-1.83-.44-1.9 4.2-1.3 5.2.64 1.1 3.9 2.33 5.15 1.85.9-.34 1-1.5-.16-2.1-.27-.14-1.66.2-2.24.07-2.24-.55-1.55-2.8-.87-4.6-.3-.23-.68-.52-1.05-.63" clip-path="url(#d)"/><path fill="#577EB2" d="M61.28 22.3c-1.64.4-2.12 1.32-2.53 2.78 1.8.07 2.44-.37 3.73-1.52-.33-.4-1-.74-1.38-1.1" clip-path="url(#d)"/><path fill="#40649D" d="M63.87 20.77c.2-2.2 6.45-1.45 6 1.4-2.28-.17-3.98-1.8-6.1-1.9m-5.34 6.14c-.27 2.83-.7 3.82 1.6 5.22 1.44.86 3.2 1.77 4.94 1.3-1.65-1.02-3.88-.85-5.25-2.64-1-1.3.27-4.5-1.14-5.14-.05.2-.06.4-.08.63" clip-path="url(#d)"/><path fill="#68B554" d="M77.36 24.17c-3.67-1.73-6.1.47-6.4-5.1-.24-4.12 1.94-5.93 4.12-8.88.82 2.94 1.34 3.32 3.3 5.32 2.7 2.73 1.12 3.52-2.1 5.87.6 1.4 2.34 2.74 3.17 2.9" clip-path="url(#d)"/><path fill="#48883A" d="M76.2 23.25s-.62-1.62-1.45-2.05c-.84-.43-2.74-3.3-2.27-3.56.46-.27.9-2.9.9-2.9l.84-.6s2.12 2.26 2 2.87c-.1.6 1.92 2.38 1.92 2.38l-.5 2.85-1.45 1.02z" clip-path="url(#d)"/><path fill="#E9CFD9" d="M81.44 19.23c-.7-.5-1.23-1.68-2.3-1.52-.36.07-.52.34-.83.43-.45.14-.93-.03-1.4.08-.78.2-1.57.86-2.25 1.3-.88.55-1.25.77-1.17 1.72.06.8-.2.8-1 1-.6.16-1.46.64-.55 1.22.32.2 1.1.3 1.48.37.63.13 1 .02 1.5-.38.56-.43 1.02-1.03 1.63-1.4.62-.36 1.32-.32 2.04-.34.73-.03 1.38-.13 1.93-.64.45-.4.26-.64.45-1.08.18-.42.55-.48.43-.93-.1-.4-.7-.64-1-.85" clip-path="url(#d)"/><path fill="#E29AB2" d="M86.54 28.35c-.57 1.83-2.05 2.12-3.73 2-.3-.04-.65-.22-.96-.15-.58.14-1.12.95-1.64 1.3-.4.26-1 .33-1.35.62-.4.33-.4.88-.7 1.33-.6.9-1.54 1.18-2.4 1.68.54.2.9.74 1.45.93.7.25 1.34.03 1.97-.33.88-.5 1.83-1.15 2.54-1.86.4-.37.63-.9 1.13-1 .84-.2 1.55.24 2.38-.22.62-.34.9-.93 1.03-1.6.15-.8.06-1.74.28-2.5" clip-path="url(#d)"/><path fill="#E9CFD9" d="M85.25 25.13l.58.83c.17.24.38.42.14.84-.25.4-.56.55-.4.85.17.3.23.02.53.74.3.7.34-.05.3.7-.03.78-.18 1.04-.45 1.24-.27.2-.24.24-.8.56-.55.3-.3.2-.94.7-.62.5-1.44.73-1.76.63-.3-.1-.4.27-.7-.23-.33-.5-.5-.76-1.08-.16-.6.6-2.36 1.67-2.36 1.67l-2.53.08s-.54-.27-.97-.2c-.42.1-2.07 1.14-2.43 1.2-.36.04-1.1-.48-1.1-.48l-1.2-1.13.23-1.34s-.3-.65-.86-1c-.57-.34-1.22-.5-1.3-1-.08-.5-.3-1.06-.14-1.27.18-.2.47-1.04.47-1.04l.87-.38s2.08.36 2.1.7c0 .36.27 1.94.73 2 .46.06 1.22.9 1.76.98.55.08 1.87-.02 2.85-.39.97-.36 2.36-.75 2.83-1.3.48-.53 2.68-1.53 2.9-1.9.2-.4.92-1.42 1.27-1.65.34-.23 1.48-.24 1.48-.24z" clip-path="url(#d)"/><path fill="#CE2B3D" d="M73.27 26.26l.58-.88 1.17-.82s1.05-.5 1.43-.54c.37-.04 1.04-.37 1.53-.4.48 0 .83.85.83.85s-1.3.57-.97.68c.35.12 1.4.05 1.64.14.22.07.93 1.55.57 1.97-.36.4-.42 1.27-.53 1.1-.1-.16.56-.14 1.04-.4.48-.25.5-1 .5-1l1.33-.12s1.02-.3.82-.57c-.2-.27-.32-.7-.66-.92-.34-.24-.9-.12-1.4-.68-.5-.55.77-.46 1.18-.47.4 0 1.5.07 1.7.1.2.03-.27-.63-.6-.86-.33-.23-1.78-.28-1.78-.28s-.87-.1-1.2-.37c-.34-.27.27-.52.17-1.02s-.75-.6-.93-.5c-.17.12-1 .64-1.43.75-.42.1-.3.15-1.96 0-1.66-.14-.7-.5-1.05-.6-.36-.13-.73-.52-1-.54-.25-.03.1.95.15 1.47.03.52-.63.74-.63.74s-1.48-.46-1.97-.5c-.5 0-.4.5-.48.88-.06.37-.7.26-1.07.23-.35-.03-1.26.9-1.26.9s.27.5.24.7c-.02.17.13.4.35.46.2.07.98 0 1.18-.3.2-.28.92.73 1.15 1.05.14.22.5.3.7.35l.2.02m.68 7.48s.97-.6 1.1-.77c.12-.17.68-.9 1.17-.8.48.12 1.3.22 1.83.17.53-.06 1.4-.2 1.9-.58.47-.36.53-.43.98-.7.46-.26 1.35-.94 1.35-.94l.3.5s-.14.75.3.93c.46.17 1.26.02 1.26.02l.55-.4-1.1.8s-.37.5-.87.2-.62-.88-.62-.88-1.8.73-1.87 1c-.05.27-1.37.96-1.37.96s-.38.04-.55.4c-.15.34-1.08.76-1.08.76l-1.28.17-1.63-.35-.76-.4.42-.1z" clip-path="url(#d)"/><path fill="#DB7594" d="M68.92 26.15c-.07.5-.3 1.2.32 1.27.52.05.7-.54 1.22-.23.32.18.26.63.44.83.14.17.44.25.52.35.24.3.1.4.2.78.26.77.8.9 1.3 1.38-.5.66-1.72.52-1.35 1.6.8-.24 1.36-.95 2.1-1.23.53-.18 1.08-.04 1.55-.33.37-.22.58-.7 1.03-.88.46-.17.73-.12 1.17-.42-.65.13-1.1.42-1.73.16-.47-.18-.95-.56-1.33-.85-.4-.3-.7-.58-.9-1.07-.22-.63.08-.94-.74-.8-.6.12-.7.42-1.25-.1-.27-.24-.37-.7-.65-.92-.6-.46-1.24-.04-1.8.37.1.1.08.22.14.3" clip-path="url(#d)"/><path fill="#DC5377" d="M74.6 20.92c-.06-.1-.1-.2-.13-.3.56-.47 1.4-1.56 2.15-.8.23.25.08.87.3 1.03.32.24.75-.14 1.03-.32.32-.2.73-.7 1.15-.64.3.02.77.82 1.07.3.14-.23-.3-.57-.25-.88.16-.78.94-.35 1.3-.02.66.58.62.93.86 1.63.14.42.5.6.4 1.1-.13 1-1 1.22-1.55.44-.46-.65-.6-1.4-1.5-.92-.32.16-.47.53-.74.68-.73.38-.92-.27-1.57-.47-.63-.2-.95.4-1.54.32-.5-.06-1.06-.87-1.2-1.2m7 3.3c.36.52.77.84 1.17 1.3.68.76.15 1.18-.6 1.58.3.62.62.7 1.26.86.25.05 1.1.52 1.23.48.65-.18-.23-2.3.05-2.82.1-.2.4-.3.5-.48.1-.2.06-.44.12-.63.12-.37.44-.86.4-1.22-.18-1.63-1.7-.86-2.3-.1.33.48.68.95.93 1.46-.4.48-2.7-.1-3-.32m-1.8 7.97c-1.02.72-1.84.93-2.9.26-.42-.25-1.2-1.2-1.68-.62.16.68-1.43 1.5-1.9 1.03.75.32.02.9-.48.95-.6.06-1.1-.44-1.28-.94.4 1.4 1.86 2.1 3.07 1.18.7-.53 1.08-1.22 1.95-1.27.55-.02 1.13.16 1.65.14" clip-path="url(#d)"/><path fill="#ECA747" d="M74.1 25.46c-1.35.88-.86 1.8-.26 3 .77 1.53 1.72 2 3.26.95.42-.28.83-.63 1.27-.87.34-.17.92-.2 1.16-.57.38-.58-.12-1.44-.68-1.68-.43-.2-.58-.02-.96.13-.72.28-1.12.4-1.88.16-.7-.2-1.4-.65-2.08-.74" clip-path="url(#d)"/><path fill="#F5EAA2" d="M77.6 24.4c.1-.24.5-.14.5-.14l-.06.75s.2.2.44.22c.25 0 1 .07 1 .07l.16.58-.25.18-.42.3s.5.55.17.62c-.33.07-1.02-.04-1.02-.04s-.6.98-.78.55c-.17-.44-.3-1.43-.6-1.46-.3-.03-.26-.9-.26-.9l.23-.87.87.12z" clip-path="url(#d)"/><path fill="#F8DF3B" d="M75.37 26.36l.56.8 1.28-.13-.45-1 .76.03-.24-1.04s-.13-.7-.33-.73c-.2-.03-.8-.2-.8-.2s-.55.06-.83.26c-.28.2-1.05.2-1.02.46.02.24-.43.56-.43.56l-.3.56s.7-.43.57 0c-.14.4-.02.58.15 1s.66.93.66.93.1-.3.1-.63c0-.32.34-.88.34-.88z" clip-path="url(#d)"/><path fill="#7CC7CB" d="M305.48 37.26s-23.32 2.9-41.35-15.13c0 0-39.32-28.37-59.74-5.93 0 0-27.8 26.52-54 21.85v2.3l158.82.03-3.74-3.12z" clip-path="url(#d)"/><path fill="#9E9369" d="M303.96 36.16s-18.36 3.47-24.33-8.5c0 0-3.08-7.7 7-9.55 0 0 5.5-.18 6.8 3.9 0 0 .95 3.06-3.26 2.88 0 0 3.2-3.22-.54-4.24 0 0-3.2.26-3.3 2.67 0 0 1.32 5.47 6.36 3.34 0 0 2.98-.65 2.9-4.54 0 0-.9-5.62-8.02-7.4 0 0-11.15-1.72-12.38 9.27 0 0-.17 5.3 5.44 8.98 0 0-13.5-7.5-13-16.4 0 0 .88-6.03 5.36-7.33 0 0-5.04-2.9-8.6.17l-1.1-1.47s-6.45 4.6 0 12.78l.83 1.43s-9.43-6.52-11.86-7.54l.66 1.47-2.34-1.1s-2.24 1.47-2.06 2.58c0 0 13.92 5.2 17.98 9.93 0 0-9.95-4.18-15.83-1.95 0 0-5.6 1.2-6.27 6.5 0 0 .47 4.8 4.76 5 0 0 5.03-1.48 2.33-5.1 0 0-2.8-1.5-2.34 2.6 0 0-4.26-3.38 3.2-6.5 0 0 4.97-2.32 16.94 3.16 0 0 17.12 9.6 34.62 7.27v-2.3z" clip-path="url(#d)"/><path fill="#9E9369" d="M252.65 14.76s-15.8-9.7-30.53-8.24c0 0-4.22-.53-17.73 7.42 0 0-14.12 8.85-24.88 8.3 0 0-9.47 1.17-7.62-7.8 0 0 .46-3.37 7.5-2.77 0 0 2.8 1.7.45 2.73 0 0-3.15-1.76-2.93 1.9 0 0 4.68 7 7.27-1.07 0 0 1.43-5.08-4.57-6.36 0 0-10.44-3.2-11.4 7.34 0 0-1.5 10.48 12.18 10.05 0 0 13.94-2.28 15.85-5.62 0 0-11.62 10.9-23.8 11.65 0 0-16.07 1.62-11.6-7.98 0 0-4.47.27-3.8 5.07 0 0 0 2.7 2.16 4.42 0 0-1.08-1.03 0 0 0 0 4.88 3.42 9.9 1.5 0 0-9.26 3.16-18.68 2.12v1.8s15.87 1.58 31.12-4.33c0 0 8.1-3.1 14.12-8.4 0 0 6.86-6 7.32-8.14 0 0-5.97 13.82-11.73 14.36 0 0-1.63.2-3.15-.44 0 0 0 3.46 5 2.6l-.54 1.94s8.8.2 11.83-10.58c0 0 2.17 6.58 9.77 4.96l-1.3-1.3s-5.22 1.3-4.46-8.52c0 0-.25-8.3 13.66-11.44 0 0 16.3-1.64 29.17 6.8l.26-.86 1.43.2-.28-1.33z" clip-path="url(#d)"/><path fill="#48883A" d="M208.17 26.42l.08.47s-1.37 1.24-1.47 1.5c-.1.25-.5.56-1 1-.53.47-1.12 1.53-1.2 1.7-.1.2-1.13.98-1 1.44.12.46-.56 1.1-.65 1.27-.1.2 1 .27 1.32.06.3-.2.78-.87 1.3-.9.52-.06 1.37-1.6 1.37-1.6s.76.76 1.15.56c.4-.2.73-.22 1.06-.22.34 0 1.36-.36 1.36-.36l1.37-.05s.87.63 1.15.6.67-.03 1.12-.2c.45-.2 1.04-.56 1.3-.92l.96-1.37 1.18-1.2.22-.8s-2.64.5-2.73.76c-.1.26-3.02.2-3.42-.05-.4-.24-1.32-.9-1.32-.9l1.07-1.88-1.77.06-1.46 1.04z" clip-path="url(#d)"/><path fill="#ABD076" d="M219.16 27.43s-1.4.64-1.58.77c-.17.13-1.08.36-1.24.6-.16.22-.52.85-.87 1.23s-.93.62-.93.62l.33-1.05s-.8 1.26-1 1.43c-.2.16-.6.17-1.07.35-.46.2-1-.1-1.2-.26-.23-.15-.18-.1-.84-.17-.66-.05-1.56.3-1.9-.03-.35-.32-.86-1-1.2-.84-.37.15-.06.3.34-.16.4-.46 2.6-2.17 2.9-2.35.28-.18 1.9-.96 2.5-1.22.58-.27 2-.57 2.6-.2.6.34 2.42.27 2.42.27l1.94.1-1.2.9z" clip-path="url(#d)"/><path fill="#C7D764" d="M219.37 26.47s-.5.35-.83.36c-.34 0-.65-.13-1.2-.18-.53-.05-1-.32-1.4-.2-.43.13-.97-.15-1.74.5-.78.62-.53.85-1.44 1.16-.92.33-1.24-.26-2.2.52-.96.78-1.16 1.3-1.7 1.73-.56.43-1.13.77-1.5.83-.37.07-2.38 1.28-2.83 1.46-.45.17-1.03.42-1.15.58-.1.17 1.42-.97 1.42-.97s1-.94.9-1.26c-.1-.33 1.08-1.2 1.22-1.77.15-.55.88-1.36 1.2-1.68.3-.3.54-.55.93-.75l1.46-.8-1.7.1-.63.32s.05-1 .97-1.4c.93-.38 1.94-1 2.5-1 .6 0 3.1-.3 3.1-.3l2.06.8 1.5.67.93.65.7.5.97.03-1.63.45" clip-path="url(#d)"/><path fill="#48883A" d="M239.07 21.3l-.05-.45s1.48-1.14 1.6-1.4c.12-.23.53-.5 1.1-.9.54-.42 1.22-1.42 1.32-1.6.1-.18 1.2-.86 1.13-1.34-.1-.46.64-1.03.74-1.2.12-.17-.97-.34-1.3-.16-.32.2-.85.8-1.37.8-.52 0-1.5 1.46-1.5 1.46s-.7-.82-1.1-.65c-.4.17-.74.15-1.08.13-.33-.02-1.38.24-1.38.24l-1.38-.07s-.82-.7-1.1-.7c-.28.03-.67-.03-1.13.1-.47.14-1.1.47-1.37.8l-1.08 1.3-1.28 1.1-.3.76s2.68-.26 2.8-.5c.12-.25 3.02.05 3.4.34a38.22 38.22 0 0 1 1.23 1.03l-1.22 1.77 1.76.1 1.57-.92z" clip-path="url(#d)"/><path fill="#ABD076" d="M228.2 19.37s1.45-.52 1.64-.63c.2-.1 1.1-.27 1.3-.5.17-.2.57-.8.96-1.14.38-.36.98-.55.98-.55l-.42 1.02s.9-1.18 1.12-1.33c.2-.15.63-.12 1.1-.27.47-.14.98.2 1.18.37.2.17.16.13.8.24.66.1 1.6-.16 1.9.2.33.34.77 1.06 1.14.94.37-.13.08-.3-.37.12-.44.43-2.77 1.94-3.07 2.1-.3.15-1.98.8-2.6 1-.6.22-2.05.4-2.6 0-.58-.4-2.4-.5-2.4-.5l-1.93-.28 1.26-.8z" clip-path="url(#d)"/><path fill="#C7D764" d="M227.9 20.3s.52-.3.86-.28c.34.02.64.2 1.17.28.53.1.98.4 1.4.3.43-.08.95.25 1.77-.32.83-.56.6-.8 1.54-1.05.94-.23 1.2.38 2.23-.3 1.02-.7 1.27-1.2 1.85-1.58.6-.4 1.18-.68 1.56-.7.38-.04 2.48-1.08 2.94-1.22.47-.13 1.07-.33 1.2-.48.13-.16-1.5.84-1.5.84s-1.07.85-1 1.17c.08.33-1.18 1.1-1.37 1.65-.2.54-1 1.3-1.32 1.57-.33.28-.6.5-1 .67l-1.54.67 1.7.04.67-.26s-.13 1-1.1 1.3c-.95.3-2 .83-2.58.78-.58-.04-3.1.04-3.1.04l-2-.97-1.43-.8-.87-.73-.66-.55-.96-.13 1.66-.3" clip-path="url(#d)"/><path fill="#68B554" d="M233.26 32.3c2.9-.57 5.72-1.35 6.73 2.14-1.5.27-3.02-.07-4.58.24-.46.1-1.52.14-1.82.54-.62.82.3 1 1 1.62 2.77 2.52 5.16 2.3 8.8 1.4 0-1.54-2.18-3.64-3.06-4.86-1.18-1.64-1.47-3.33-3.67-3.6-1.06-.15-3.35-.17-4.22.63-1.4 1.32.14 2.15 1.2 2.53" clip-path="url(#d)"/><path fill="#48883A" d="M240.77 34.02c-2.26-.35-5.27.66-7.5 1.2 1.88 2.4 5.3 4.92 8.6 3.86-3.56.72-5.44.9-8.3-1.64-2.23-1.97-2.33-5.38-3.64-7.96.88.83 1.7 2.12 2.95 2.3.95.12 2.58-.38 3.54-.5 2.83-.4 4.72.8 5.5 3.65-1.02.04-1.86-.5-2.86-.4" clip-path="url(#d)"/><ellipse cx="238.5" cy="26.82" fill="#F8DF3B" transform="rotate(-5.66 238.542 26.827)" clip-path="url(#d)" rx="1.8" ry="1.62"/><ellipse cx="239.97" cy="27.63" fill="#DB752D" transform="rotate(-5.595 240.054 27.633)" clip-path="url(#d)" rx="1.39" ry="2.56"/><path fill="#577EB2" d="M236.5 28.55l-1.7.27s-1.7-.62-1.3.13c.42.74 1.2 1.75 1.67 1.73.47-.03 1.52-.15 1.52-.15s1.3.82 1.28-.13c-.02-.95.2-1.48-.18-1.88-.4-.4-2.08-2.6-2.08-2.6l.96-1.42 1-1.43-1.1-.84-1.45-.64-2.3.52s-.44.26-.4 1.46c.03 1.2.26 2.65.26 2.65l1.36-.13-.14-1.33c-.1-.93.05-2.28.05-2.28l.78-.1s.4-.6.28.93c-.12 1.54.12 2.24.1 3.02 0 .78.37 1.72.37 1.72" clip-path="url(#d)"/><path fill="#40649D" d="M236.63 24.2c-.46-1.43 1.2-1.7 2.25-1.65-.2 1.82 3.15.6 2.23 2.08-.43.7-3.5.35-4.37.33-.06-.23-.1-.5-.1-.75" clip-path="url(#d)"/><path fill="#C9DAE5" d="M234.94 23.57c.16 0 .3-.05.46-.03.23 1.14.73 5.63-1.02 5.27-.5-1.46-2.8-5.44.7-5.57m3.83-2.33c-.88.1-3.83.3-2.72 2.06.62 1 4.06.44 4.37-.75.1.17.3.34.38.6.2-.65.13-1.8-.72-1.87m1.22 3.95c1.82-.44 1.9 4.2 1.3 5.2-.65 1.1-3.9 2.33-5.16 1.85-.9-.34-1-1.5.16-2.1.27-.14 1.66.2 2.24.07 2.24-.55 1.55-2.8.87-4.6.3-.23.7-.52 1.05-.63" clip-path="url(#d)"/><path fill="#577EB2" d="M241.16 22.3c1.64.4 2.12 1.32 2.53 2.78-1.8.07-2.45-.37-3.74-1.52.34-.4 1-.74 1.38-1.1" clip-path="url(#d)"/><path fill="#40649D" d="M238.57 20.77c-.2-2.2-6.44-1.45-6 1.4 2.28-.17 3.98-1.8 6.1-1.9m5.34 6.14c.3 2.83.7 3.82-1.6 5.22-1.43.86-3.2 1.77-4.93 1.3 1.65-1.02 3.88-.85 5.25-2.64 1-1.3-.27-4.5 1.14-5.14.05.2.06.4.08.63" clip-path="url(#d)"/><path fill="#68B554" d="M225.08 24.17c3.67-1.73 6.1.47 6.4-5.1.24-4.12-1.94-5.93-4.12-8.88-.82 2.94-1.34 3.32-3.3 5.32-2.7 2.73-1.12 3.52 2.1 5.87-.6 1.4-2.34 2.74-3.17 2.9" clip-path="url(#d)"/><path fill="#48883A" d="M226.25 23.25s.6-1.62 1.45-2.05c.83-.43 2.73-3.3 2.27-3.56-.47-.27-.92-2.9-.92-2.9l-.83-.6s-2.12 2.26-2 2.87c.1.6-1.92 2.38-1.92 2.38l.5 2.85 1.45 1.02z" clip-path="url(#d)"/><path fill="#E9CFD9" d="M221 19.23c.7-.5 1.24-1.68 2.3-1.52.36.07.52.34.83.43.47.14.94-.03 1.4.08.8.2 1.58.86 2.26 1.3.87.55 1.24.77 1.16 1.72-.06.8.2.8 1 1 .6.16 1.46.64.55 1.22-.3.2-1.08.3-1.47.37-.62.13-1 .02-1.5-.38-.55-.43-1-1.03-1.62-1.4-.6-.36-1.3-.32-2.03-.34-.73-.03-1.38-.13-1.93-.64-.45-.4-.26-.64-.45-1.08-.2-.42-.55-.48-.44-.93.1-.4.7-.64 1-.85" clip-path="url(#d)"/><path fill="#E29AB2" d="M215.9 28.35c.57 1.83 2.05 2.12 3.73 2 .3-.04.67-.22.97-.15.58.14 1.12.95 1.64 1.3.4.26 1 .33 1.34.62.4.33.4.88.7 1.33.62.9 1.55 1.18 2.4 1.68-.53.2-.88.74-1.45.93-.68.25-1.33.03-1.96-.33-.88-.5-1.83-1.15-2.54-1.86-.38-.37-.62-.9-1.12-1-.83-.2-1.54.24-2.37-.22-.6-.34-.9-.93-1.02-1.6-.15-.8-.05-1.74-.27-2.5" clip-path="url(#d)"/><path fill="#E9CFD9" d="M217.2 25.13l-.6.83c-.16.24-.37.42-.12.84.24.4.55.55.38.85s-.22.02-.52.74c-.3.7-.34-.05-.3.7.04.78.18 1.04.45 1.24.27.2.23.24.8.56.55.3.3.2.94.7.63.5 1.44.73 1.76.63.32-.1.4.27.7-.23.33-.5.5-.76 1.08-.16.6.6 2.37 1.67 2.37 1.67l2.52.08s.54-.27.97-.2c.42.1 2.07 1.14 2.43 1.2.36.04 1.1-.48 1.1-.48l1.2-1.13-.23-1.34s.3-.65.86-1c.57-.34 1.22-.5 1.3-1 .08-.5.3-1.06.14-1.27-.18-.2-.47-1.04-.47-1.04l-.87-.38s-2.08.36-2.1.7c0 .36-.27 1.94-.73 2-.46.06-1.22.9-1.76.98-.54.08-1.86-.02-2.84-.39-.97-.36-2.36-.75-2.83-1.3-.47-.53-2.67-1.53-2.88-1.9-.2-.4-.94-1.42-1.28-1.65-.34-.23-1.48-.24-1.48-.24z" clip-path="url(#d)"/><path fill="#CE2B3D" d="M229.18 26.26l-.6-.88-1.16-.82s-1.05-.5-1.43-.54c-.38-.04-1.05-.37-1.54-.4-.48 0-.83.85-.83.85s1.32.57.98.68c-.34.12-1.4.05-1.63.14-.22.07-.93 1.55-.57 1.97.36.4.42 1.27.53 1.1.12-.16-.55-.14-1.03-.4-.48-.25-.5-1-.5-1l-1.33-.12s-1.02-.3-.82-.57.3-.7.65-.92c.34-.24.9-.12 1.4-.68.5-.55-.77-.46-1.18-.47-.4 0-1.5.07-1.7.1-.2.03.28-.63.6-.86.33-.23 1.8-.28 1.8-.28s.85-.1 1.2-.37c.32-.27-.3-.52-.2-1.02.12-.5.77-.6.95-.5.17.12 1 .64 1.43.75.42.1.3.15 1.96 0 1.66-.14.7-.5 1.05-.6.37-.13.74-.52 1-.54s-.1.95-.14 1.47c-.03.52.63.74.63.74s1.47-.46 1.95-.5c.5 0 .42.5.48.88.07.37.72.26 1.08.23.36-.03 1.27.9 1.27.9s-.28.5-.24.7c.03.17-.12.4-.34.46-.22.07-1 0-1.2-.3-.2-.28-.9.73-1.14 1.05-.14.22-.5.3-.7.35l-.2.02m-.68 7.48s-.97-.6-1.1-.77c-.12-.17-.68-.9-1.17-.8-.48.12-1.28.22-1.82.17-.54-.06-1.4-.2-1.9-.58-.47-.36-.53-.43-1-.7-.44-.26-1.33-.94-1.33-.94l-.32.5s.15.75-.3.93c-.45.17-1.25.02-1.25.02l-.55-.4 1.12.8s.36.5.86.2.63-.88.63-.88 1.82.73 1.87 1c.06.27 1.38.96 1.38.96s.38.04.55.4c.16.34 1.1.76 1.1.76l1.27.17 1.63-.35.77-.4-.42-.1z" clip-path="url(#d)"/><path fill="#DB7594" d="M233.52 26.15c.07.5.3 1.2-.32 1.27-.52.05-.7-.54-1.22-.23-.32.18-.26.63-.44.83-.14.17-.44.25-.52.35-.24.3-.1.4-.2.78-.26.77-.8.9-1.3 1.38.5.66 1.72.52 1.35 1.6-.8-.24-1.36-.95-2.1-1.23-.53-.18-1.08-.04-1.55-.33-.36-.22-.58-.7-1.03-.88-.46-.17-.74-.12-1.18-.42.66.13 1.1.42 1.73.16.46-.18.94-.56 1.32-.85.4-.3.72-.58.9-1.07.23-.63-.07-.94.75-.8.6.12.7.42 1.24-.1.27-.24.37-.7.66-.92.6-.46 1.24-.04 1.78.37-.08.1-.07.22-.12.3" clip-path="url(#d)"/><path fill="#DC5377" d="M227.84 20.92c.06-.1.1-.2.13-.3-.56-.47-1.4-1.56-2.14-.8-.24.25-.1.87-.3 1.03-.32.24-.76-.14-1.04-.32-.33-.2-.74-.7-1.15-.64-.3.02-.77.82-1.07.3-.14-.23.3-.57.24-.88-.16-.78-.94-.35-1.3-.02-.66.58-.62.93-.85 1.63-.14.42-.5.6-.42 1.1.14 1 1.02 1.22 1.56.44.47-.65.6-1.4 1.52-.92.3.16.46.53.73.68.72.38.9-.27 1.56-.47.64-.2.95.4 1.55.32.5-.06 1.05-.87 1.18-1.2m-6.98 3.3c-.37.52-.78.84-1.18 1.3-.68.76-.14 1.18.6 1.58-.3.62-.62.7-1.25.86-.25.05-1.1.52-1.24.48-.65-.18.23-2.3-.04-2.82-.1-.2-.4-.3-.5-.48-.1-.2-.06-.44-.12-.63-.1-.37-.44-.86-.4-1.22.18-1.63 1.7-.86 2.3-.1-.32.48-.68.95-.92 1.46.4.48 2.68-.1 3-.32m1.78 7.97c1.03.72 1.85.93 2.9.26.42-.25 1.22-1.2 1.7-.62-.17.68 1.4 1.5 1.9 1.03-.76.32-.04.9.47.95.6.06 1.1-.44 1.27-.94-.4 1.4-1.86 2.1-3.07 1.18-.7-.53-1.1-1.22-1.96-1.27-.56-.02-1.14.16-1.66.14" clip-path="url(#d)"/><path fill="#ECA747" d="M228.35 25.46c1.34.88.85 1.8.26 3-.77 1.53-1.72 2-3.26.95-.42-.28-.82-.63-1.27-.87-.34-.17-.92-.2-1.15-.57-.4-.58.1-1.44.67-1.68.42-.2.58-.02.96.13.7.28 1.1.4 1.86.16.7-.2 1.4-.65 2.1-.74" clip-path="url(#d)"/><path fill="#F5EAA2" d="M224.84 24.4c-.1-.24-.48-.14-.48-.14l.04.75s-.2.2-.44.22c-.25 0-.98.07-.98.07l-.18.58.25.18.4.3s-.48.55-.16.62c.32.07 1-.04 1-.04s.6.98.8.55c.16-.44.3-1.43.6-1.46.28-.03.25-.9.25-.9l-.24-.87-.86.12z" clip-path="url(#d)"/><path fill="#F8DF3B" d="M227.07 26.36l-.56.8-1.27-.13.46-1-.77.03.25-1.04s.13-.7.33-.73c.2-.03.8-.2.8-.2s.56.06.84.26c.28.2 1.05.2 1.02.46-.02.24.43.56.43.56l.27.56s-.68-.43-.55 0c.14.4.02.58-.15 1-.17.4-.66.93-.66.93s-.1-.3-.1-.63c0-.32-.33-.88-.33-.88z" clip-path="url(#d)"/><path fill="#45362A" d="M302.67 4.13h303.05V41.7H302.67z" clip-path="url(#d)"/><path fill="#7CC7CB" d="M302.67 44.26h303.05v5.6H302.67z" clip-path="url(#d)"/><path fill="#9E9369" d="M302.67 44.26h5.6v5.6h-5.6zm11.23 0h5.6v5.6h-5.6zm11.22 0h5.6v5.6h-5.6zm11.23 0h5.6v5.6h-5.6zm11.22 0h5.6v5.6h-5.6zm11.22 0h5.6v5.6h-5.6zm11.22 0h5.6v5.6h-5.6zm11.22 0h5.6v5.6h-5.6zm11.22 0h5.6v5.6h-5.6zm11.23 0h5.6v5.6h-5.6zm11.2 0h5.63v5.6h-5.62zm11.24 0h5.6v5.6h-5.6zm11.22 0h5.6v5.6h-5.6zm11.22 0h5.62v5.6h-5.62zm11.23 0h5.62v5.6h-5.6zm11.23 0h5.6v5.6h-5.6zm11.22 0h5.62v5.6h-5.62zm11.23 0h5.6v5.6h-5.6zm11.22 0h5.62v5.6h-5.62zm11.23 0h5.6v5.6h-5.6zm11.22 0h5.6v5.6h-5.6zm11.23 0h5.6v5.6h-5.6zm11.22 0h5.6v5.6h-5.6zm11.22 0h5.6v5.6h-5.6zm11.23 0h5.6v5.6h-5.6zm11.22 0h5.6v5.6h-5.6zm11.23 0h5.6v5.6h-5.6z" clip-path="url(#d)"/><path fill="#7CC7CB" d="M302.67-.8h303.05v5.5H302.67zm0 37.87s20.42 3.08 38.45-14.94c0 0 39.33-28.37 59.74-5.93 0 0 27.8 26.52 53.98 21.85v2.3l-152.17.03v-3.3z" clip-path="url(#d)"/><path fill="#9E9369" d="M302.67 35.95s16.98 3.68 22.95-8.3c0 0 3.1-7.7-7-9.54 0 0-5.5-.18-6.8 3.9 0 0-.94 3.06 3.26 2.88 0 0-3.2-3.22.54-4.24 0 0 3.2.26 3.3 2.67 0 0-1.32 5.47-6.36 3.34 0 0-3-.65-2.9-4.54 0 0 .88-5.62 8-7.4 0 0 11.16-1.72 12.4 9.27 0 0 .16 5.3-5.45 8.98 0 0 13.5-7.5 13-16.4 0 0-.87-6.03-5.35-7.33 0 0 5.04-2.9 8.6.17l1.1-1.47s6.45 4.6 0 12.78l-.83 1.43s9.43-6.52 11.86-7.54l-.66 1.47 2.34-1.1s2.24 1.47 2.05 2.58c0 0-13.9 5.2-17.96 9.93 0 0 9.94-4.18 15.82-1.95 0 0 5.6 1.2 6.26 6.5 0 0-.47 4.8-4.76 5 0 0-5.04-1.48-2.34-5.1 0 0 2.8-1.5 2.33 2.6 0 0 4.26-3.38-3.2-6.5 0 0-4.97-2.32-16.94 3.16 0 0-15.73 9.44-33.23 7.12v-2.38z" clip-path="url(#d)"/><path fill="#9E9369" d="M352.6 14.76s15.82-9.7 30.53-8.24c0 0 4.23-.53 17.73 7.42 0 0 14.12 8.85 24.87 8.3 0 0 9.47 1.17 7.63-7.8 0 0-.47-3.37-7.52-2.77 0 0-2.78 1.7-.43 2.73 0 0 3.16-1.76 2.94 1.9 0 0-4.7 7-7.28-1.07 0 0-1.43-5.08 4.56-6.36 0 0 10.44-3.2 11.4 7.34 0 0 1.5 10.48-12.18 10.05 0 0-13.92-2.28-15.83-5.62 0 0 11.63 10.9 23.8 11.65 0 0 16.07 1.62 11.6-7.98 0 0 4.47.27 3.8 5.07 0 0 0 2.7-2.15 4.42 0 0 1.1-1.03 0 0 0 0-4.87 3.42-9.9 1.5 0 0 9.27 3.16 18.7 2.12v1.8s-15.9 1.58-31.13-4.33c0 0-8.12-3.1-14.12-8.4 0 0-6.87-6-7.33-8.14 0 0 5.98 13.82 11.73 14.36 0 0 1.63.2 3.15-.44 0 0 0 3.46-5 2.6l.55 1.94s-8.8.2-11.84-10.58c0 0-2.17 6.58-9.77 4.96l1.3-1.3s5.2 1.3 4.44-8.52c0 0 .26-8.3-13.64-11.44 0 0-16.3-1.64-29.17 6.8l-.26-.86-1.45.2.3-1.33z" clip-path="url(#d)"/><circle cx="454.2" cy="14.94" r="9.34" fill="#9E9369" clip-path="url(#d)"/><path fill="#ECA747" d="M451.14 12.64c-1.95 1.27-1.24 2.6-.38 4.3 1.12 2.23 2.5 2.92 4.7 1.4.62-.4 1.2-.93 1.85-1.26.5-.26 1.32-.3 1.67-.83.55-.83-.17-2.08-.97-2.43-.62-.27-.85-.03-1.4.18-1.02.4-1.6.6-2.7.23-.97-.3-2-.94-3-1.07" clip-path="url(#d)"/><path fill="#F5EAA2" d="M456.2 11.1c.12-.33.7-.2.7-.2l-.07 1.1s.27.3.63.3 1.43.1 1.43.1l.24.85-.36.25-.6.42s.72.8.25.92c-.47.1-1.47-.06-1.47-.06s-.87 1.42-1.12.8c-.25-.63-.45-2.06-.87-2.1-.42-.04-.37-1.32-.37-1.32l.34-1.24 1.26.18z" clip-path="url(#d)"/><path fill="#F8DF3B" d="M452.97 13.94l.82 1.16 1.84-.18-.67-1.44 1.1.02-.36-1.48s-.18-1.02-.47-1.06c-.3-.04-1.15-.27-1.15-.27s-.8.07-1.2.35c-.4.3-1.5.3-1.48.66.04.36-.62.82-.62.82l-.4.8s1-.6.8 0c-.2.6-.03.86.2 1.45s.96 1.35.96 1.35.16-.45.16-.9c0-.47.47-1.28.47-1.28z" clip-path="url(#d)"/><path fill="#48883A" d="M397.1 26.42l-.1.47s1.37 1.24 1.48 1.5c.1.25.48.56 1 1 .52.47 1.1 1.53 1.2 1.7.08.2 1.13.98 1 1.44-.13.46.55 1.1.64 1.27.1.2-1 .27-1.32.06-.3-.2-.78-.87-1.3-.9-.52-.06-1.37-1.6-1.37-1.6s-.76.76-1.15.56c-.4-.2-.73-.22-1.06-.22-.34 0-1.36-.36-1.36-.36l-1.38-.05s-.86.63-1.14.6-.67-.03-1.13-.2c-.44-.2-1.03-.56-1.3-.92l-.95-1.37-1.18-1.2-.22-.8s2.64.5 2.74.76c.1.26 3 .2 3.4-.05a40.33 40.33 0 0 0 1.32-.9l-1.07-1.88 1.77.06 1.47 1.04z" clip-path="url(#d)"/><path fill="#ABD076" d="M386.1 27.43s1.4.64 1.57.77c.18.13 1.08.36 1.24.6.18.22.53.85.88 1.23s.94.62.94.62l-.33-1.05s.8 1.26 1 1.43c.2.16.6.17 1.06.35.46.2 1-.1 1.2-.26.23-.15.17-.1.83-.17.65-.05 1.55.3 1.9-.03.35-.32.85-1 1.2-.84.36.15.06.3-.35-.16-.4-.46-2.6-2.17-2.88-2.35-.3-.18-1.9-.96-2.5-1.22-.6-.27-2-.57-2.6-.2-.6.34-2.44.27-2.44.27l-1.94.1 1.2.9z" clip-path="url(#d)"/><path fill="#C7D764" d="M385.9 26.47s.47.35.8.36c.35 0 .66-.13 1.2-.18.54-.05 1-.32 1.43-.2.4.13.95-.15 1.73.5.77.62.52.85 1.44 1.16.92.33 1.24-.26 2.2.52.95.78 1.15 1.3 1.7 1.73.55.43 1.12.77 1.5.83.37.07 2.37 1.28 2.82 1.46.45.17 1.03.42 1.15.58.1.17-1.42-.97-1.42-.97s-1-.94-.9-1.26c.12-.33-1.08-1.2-1.22-1.77-.15-.55-.88-1.36-1.18-1.68-.3-.3-.55-.55-.95-.75l-1.46-.8 1.7.1.65.32s-.06-1-1-1.4c-.92-.38-1.93-1-2.5-1-.58 0-3.08-.3-3.08-.3l-2.06.8-1.5.67-.94.65-.7.5-.97.03 1.63.45" clip-path="url(#d)"/><path fill="#48883A" d="M366.2 21.3l.03-.45s-1.47-1.14-1.6-1.4c-.12-.23-.53-.5-1.1-.9-.54-.42-1.22-1.42-1.33-1.6-.1-.18-1.2-.86-1.12-1.34.1-.46-.63-1.03-.74-1.2-.1-.17.98-.34 1.3-.16.34.2.86.8 1.38.8.52 0 1.5 1.46 1.5 1.46s.7-.82 1.1-.65c.4.17.74.15 1.08.13.33-.02 1.4.24 1.4.24l1.36-.07s.8-.7 1.1-.7c.28.03.67-.03 1.13.1.45.14 1.07.47 1.36.8l1.08 1.3 1.28 1.1.3.76s-2.68-.26-2.8-.5c-.13-.25-3.03.05-3.4.34a37.1 37.1 0 0 0-1.23 1.03l1.2 1.77-1.76.1-1.55-.92z" clip-path="url(#d)"/><path fill="#ABD076" d="M377.06 19.37s-1.46-.52-1.65-.63c-.17-.1-1.1-.27-1.27-.5-.18-.2-.6-.8-.97-1.14-.4-.36-1-.55-1-.55l.43 1.02s-.92-1.18-1.13-1.33c-.2-.15-.62-.12-1.1-.27-.47-.14-.97.2-1.18.37-.2.17-.16.13-.82.24-.65.1-1.57-.16-1.9.2-.3.34-.76 1.06-1.12.94-.37-.13-.08-.3.36.12.45.43 2.77 1.94 3.08 2.1.3.15 1.98.8 2.6 1 .6.22 2.04.4 2.6 0 .58-.4 2.4-.5 2.4-.5l1.93-.28-1.27-.8z" clip-path="url(#d)"/><path fill="#C7D764" d="M377.34 20.3s-.5-.3-.85-.28c-.35.02-.65.2-1.18.28s-.98.4-1.4.3c-.43-.08-.95.25-1.77-.32-.83-.56-.6-.8-1.54-1.05-.93-.23-1.2.38-2.22-.3-1.02-.7-1.26-1.2-1.85-1.58-.6-.4-1.18-.68-1.56-.7-.37-.04-2.48-1.08-2.94-1.22-.46-.13-1.06-.33-1.2-.48-.13-.16 1.5.84 1.5.84s1.07.85 1 1.17c-.08.33 1.18 1.1 1.37 1.65.2.54 1 1.3 1.32 1.57.33.28.6.5 1 .67l1.54.67-1.72.04-.66-.26s.14 1 1.1 1.3c.95.3 2 .83 2.58.78.57-.04 3.1.04 3.1.04l1.98-.97 1.44-.8.88-.73.65-.55.98-.13-1.67-.3" clip-path="url(#d)"/><path fill="#68B554" d="M372 32.3c-2.9-.57-5.72-1.35-6.73 2.14 1.48.27 3-.07 4.56.24.47.1 1.52.14 1.83.54.62.82-.32 1-1 1.62-2.78 2.52-5.17 2.3-8.8 1.4 0-1.54 2.17-3.64 3.05-4.86 1.2-1.64 1.48-3.33 3.68-3.6 1.06-.15 3.36-.17 4.22.63 1.4 1.32-.14 2.15-1.2 2.53" clip-path="url(#d)"/><path fill="#48883A" d="M364.5 34.02c2.24-.35 5.25.66 7.5 1.2-1.9 2.4-5.3 4.92-8.6 3.86 3.54.72 5.42.9 8.3-1.64 2.22-1.97 2.32-5.38 3.63-7.96-.9.83-1.7 2.12-2.96 2.3-.94.12-2.58-.38-3.53-.5-2.83-.4-4.72.8-5.52 3.65 1.03.04 1.87-.5 2.88-.4" clip-path="url(#d)"/><ellipse cx="366.75" cy="26.82" fill="#F8DF3B" transform="rotate(-174.34 366.764 26.832)" clip-path="url(#d)" rx="1.8" ry="1.62"/><path fill="#DB752D" d="M363.9 27.5c-.14 1.4.37 2.6 1.13 2.68.77.07 1.5-1 1.64-2.42.13-1.4-.37-2.6-1.13-2.68-.77-.08-1.5 1-1.64 2.4z" clip-path="url(#d)"/><path fill="#577EB2" d="M368.76 28.55l1.7.27s1.7-.62 1.28.13c-.4.74-1.2 1.75-1.66 1.73-.47-.03-1.52-.15-1.52-.15s-1.3.82-1.3-.13c.03-.95-.2-1.48.2-1.88.4-.4 2.07-2.6 2.07-2.6l-.96-1.42-1-1.43 1.1-.84 1.45-.64 2.3.52s.44.26.4 1.46c-.03 1.2-.25 2.65-.25 2.65l-1.37-.13.13-1.33c.1-.93-.05-2.28-.05-2.28l-.78-.1s-.4-.6-.28.93c.12 1.54-.1 2.24-.1 3.02 0 .78-.36 1.72-.36 1.72" clip-path="url(#d)"/><path fill="#40649D" d="M368.62 24.2c.46-1.43-1.2-1.7-2.25-1.65.2 1.82-3.14.6-2.23 2.08.44.7 3.5.35 4.38.33.06-.23.12-.5.1-.75" clip-path="url(#d)"/><path fill="#C9DAE5" d="M370.3 23.57c-.15 0-.3-.05-.45-.03-.23 1.14-.72 5.63 1.02 5.27.5-1.46 2.82-5.44-.7-5.57m-3.83-2.33c.9.1 3.84.3 2.73 2.06-.62 1-4.06.44-4.36-.75-.1.17-.3.34-.37.6-.22-.65-.14-1.8.7-1.87m-1.2 3.95c-1.82-.44-1.9 4.2-1.3 5.2.66 1.1 3.9 2.33 5.17 1.85.9-.34.98-1.5-.17-2.1-.27-.14-1.66.2-2.24.07-2.25-.55-1.56-2.8-.88-4.6-.3-.23-.7-.52-1.05-.63" clip-path="url(#d)"/><path fill="#577EB2" d="M364.1 22.3c-1.65.4-2.13 1.32-2.54 2.78 1.8.07 2.44-.37 3.73-1.52-.34-.4-1.02-.74-1.4-1.1" clip-path="url(#d)"/><path fill="#40649D" d="M366.68 20.77c.2-2.2 6.45-1.45 6 1.4-2.27-.17-3.98-1.8-6.1-1.9m-5.33 6.14c-.28 2.83-.7 3.82 1.6 5.22 1.43.86 3.2 1.77 4.93 1.3-1.65-1.02-3.88-.85-5.25-2.64-1-1.3.27-4.5-1.14-5.14-.06.2-.07.4-.1.63" clip-path="url(#d)"/><path fill="#68B554" d="M380.17 24.17c-3.67-1.73-6.1.47-6.4-5.1-.24-4.12 1.95-5.93 4.13-8.88.8 2.94 1.33 3.32 3.3 5.32 2.7 2.73 1.1 3.52-2.12 5.87.6 1.4 2.36 2.74 3.2 2.9" clip-path="url(#d)"/><path fill="#48883A" d="M379 23.25s-.6-1.62-1.44-2.05c-.84-.43-2.73-3.3-2.27-3.56.45-.27.9-2.9.9-2.9l.83-.6s2.12 2.26 2 2.87c-.1.6 1.92 2.38 1.92 2.38l-.5 2.85-1.45 1.02z" clip-path="url(#d)"/><path fill="#E9CFD9" d="M384.25 19.23c-.7-.5-1.23-1.68-2.3-1.52-.36.07-.52.34-.83.43-.46.14-.94-.03-1.4.08-.8.2-1.58.86-2.26 1.3-.88.55-1.25.77-1.17 1.72.05.8-.2.8-1 1-.6.16-1.47.64-.56 1.22.32.2 1.1.3 1.48.37.62.13 1 .02 1.5-.38.56-.43 1-1.03 1.62-1.4.63-.36 1.33-.32 2.04-.34.73-.03 1.38-.13 1.93-.64.46-.4.27-.64.46-1.08.18-.42.55-.48.43-.93-.1-.4-.7-.64-1-.85" clip-path="url(#d)"/><path fill="#E29AB2" d="M389.35 28.35c-.56 1.83-2.05 2.12-3.73 2-.3-.04-.66-.22-.97-.15-.58.14-1.1.95-1.64 1.3-.38.26-1 .33-1.33.62-.4.33-.4.88-.7 1.33-.62.9-1.55 1.18-2.4 1.68.54.2.9.74 1.45.93.7.25 1.34.03 1.97-.33.86-.5 1.82-1.15 2.53-1.86.37-.37.6-.9 1.12-1 .83-.2 1.55.24 2.37-.22.6-.34.9-.93 1.02-1.6.16-.8.06-1.74.28-2.5" clip-path="url(#d)"/><path fill="#E9CFD9" d="M388.06 25.13l.58.83c.17.24.38.42.14.84-.24.4-.56.55-.4.85.18.3.23.02.53.74.32.7.35-.05.32.7-.04.78-.18 1.04-.46 1.24-.27.2-.23.24-.8.56-.55.3-.3.2-.94.7-.63.5-1.44.73-1.76.63-.32-.1-.4.27-.72-.23-.32-.5-.48-.76-1.07-.16-.6.6-2.36 1.67-2.36 1.67l-2.52.08s-.54-.27-.96-.2c-.43.1-2.08 1.14-2.44 1.2-.35.04-1.1-.48-1.1-.48l-1.2-1.13.23-1.34s-.28-.65-.85-1c-.57-.34-1.22-.5-1.3-1-.08-.5-.3-1.06-.14-1.27.2-.2.48-1.04.48-1.04l.87-.38s2.1.36 2.1.7c0 .36.27 1.94.73 2 .46.06 1.22.9 1.77.98.54.08 1.87-.02 2.84-.39.97-.36 2.35-.75 2.82-1.3.47-.53 2.67-1.53 2.88-1.9.2-.4.94-1.42 1.28-1.65.34-.23 1.48-.24 1.48-.24z" clip-path="url(#d)"/><path fill="#CE2B3D" d="M376.08 26.26l.58-.88 1.17-.82s1.05-.5 1.43-.54c.38-.04 1.05-.37 1.53-.4.47 0 .82.85.82.85s-1.32.57-.97.68c.34.12 1.4.05 1.63.14.23.07.93 1.55.57 1.97-.36.4-.42 1.27-.53 1.1-.1-.16.56-.14 1.03-.4.48-.25.52-1 .52-1l1.3-.12s1.03-.3.83-.57-.3-.7-.64-.92c-.34-.24-.9-.12-1.4-.68-.5-.55.77-.46 1.17-.47.4 0 1.52.07 1.7.1.2.03-.27-.63-.6-.86-.32-.23-1.78-.28-1.78-.28s-.86-.1-1.2-.37c-.33-.27.28-.52.17-1.02-.1-.5-.76-.6-.93-.5-.2.12-1.03.64-1.44.75-.42.1-.3.15-1.97 0s-.7-.5-1.05-.6c-.36-.13-.73-.52-1-.54-.26-.03.1.95.14 1.47.03.52-.64.74-.64.74s-1.47-.46-1.96-.5c-.5 0-.4.5-.48.88-.07.37-.72.26-1.07.23-.36-.03-1.26.9-1.26.9s.26.5.23.7c-.04.17.12.4.33.46.2.07.98 0 1.2-.3.2-.28.9.73 1.13 1.05.14.22.5.3.7.35l.2.02m.67 7.48s.97-.6 1.1-.77c.13-.17.68-.9 1.17-.8.5.12 1.3.22 1.83.17.54-.06 1.4-.2 1.9-.58.48-.36.53-.43 1-.7.45-.26 1.33-.94 1.33-.94l.32.5s-.15.75.3.93c.45.17 1.25.02 1.25.02l.55-.4-1.12.8s-.36.5-.86.2-.6-.88-.6-.88-1.84.73-1.9 1c-.04.27-1.36.96-1.36.96s-.4.04-.55.4c-.17.34-1.1.76-1.1.76l-1.27.17-1.64-.35-.77-.4.42-.1z" clip-path="url(#d)"/><path fill="#DB7594" d="M371.73 26.15c-.07.5-.3 1.2.33 1.27.52.05.7-.54 1.2-.23.33.18.27.63.45.83.15.17.45.25.53.35.24.3.1.4.2.78.26.77.8.9 1.3 1.38-.48.66-1.72.52-1.34 1.6.78-.24 1.35-.95 2.1-1.23.5-.18 1.07-.04 1.53-.33.37-.22.58-.7 1.03-.88.46-.17.73-.12 1.17-.42-.65.13-1.1.42-1.73.16-.46-.18-.94-.56-1.32-.85-.4-.3-.7-.58-.9-1.07-.22-.63.08-.94-.74-.8-.6.12-.7.42-1.25-.1-.28-.24-.38-.7-.66-.92-.6-.46-1.24-.04-1.8.37.1.1.08.22.14.3" clip-path="url(#d)"/><path fill="#DC5377" d="M377.4 20.92c-.05-.1-.1-.2-.12-.3.57-.47 1.4-1.56 2.15-.8.23.25.08.87.3 1.03.32.24.76-.14 1.03-.32.33-.2.73-.7 1.15-.64.3.02.78.82 1.08.3.14-.23-.3-.57-.25-.88.16-.78.94-.35 1.3-.02.66.58.62.93.86 1.63.13.42.48.6.4 1.1-.14 1-1 1.22-1.56.44-.45-.65-.6-1.4-1.5-.92-.32.16-.47.53-.74.68-.72.38-.9-.27-1.56-.47-.63-.2-.94.4-1.54.32-.5-.06-1.04-.87-1.18-1.2m7 3.3c.35.52.76.84 1.17 1.3.66.76.13 1.18-.6 1.58.28.62.6.7 1.24.86.25.05 1.1.52 1.24.48.64-.18-.24-2.3.04-2.82.1-.2.4-.3.5-.48.1-.2.05-.44.1-.63.13-.37.45-.86.4-1.22-.17-1.63-1.7-.86-2.3-.1.34.48.7.95.94 1.46-.4.48-2.7-.1-3-.32m-1.8 7.97c-1 .72-1.84.93-2.9.26-.4-.25-1.2-1.2-1.67-.62.14.68-1.45 1.5-1.93 1.03.76.32.04.9-.47.95-.6.06-1.1-.44-1.27-.94.4 1.4 1.86 2.1 3.08 1.18.7-.53 1.1-1.22 1.96-1.27.56-.02 1.13.16 1.65.14" clip-path="url(#d)"/><path fill="#ECA747" d="M376.9 25.46c-1.34.88-.85 1.8-.25 3 .77 1.53 1.73 2 3.26.95.43-.28.84-.63 1.3-.87.33-.17.9-.2 1.14-.57.38-.58-.12-1.44-.67-1.68-.44-.2-.6-.02-.97.13-.7.28-1.1.4-1.87.16-.68-.2-1.4-.65-2.08-.74" clip-path="url(#d)"/><path fill="#F5EAA2" d="M380.42 24.4c.08-.24.48-.14.48-.14l-.05.75s.2.2.44.22c.25 0 .98.07.98.07l.17.58-.24.18-.4.3s.5.55.16.62c-.32.07-1.02-.04-1.02-.04s-.6.98-.78.55c-.17-.44-.3-1.43-.6-1.46-.3-.03-.26-.9-.26-.9l.24-.87.88.12z" clip-path="url(#d)"/><path fill="#F8DF3B" d="M378.18 26.36l.56.8 1.28-.13-.46-1 .76.03-.24-1.04s-.13-.7-.34-.73c-.2-.03-.8-.2-.8-.2s-.55.06-.83.26c-.27.2-1.03.2-1 .46.02.24-.44.56-.44.56l-.28.56s.7-.43.55 0c-.13.4-.02.58.15 1 .17.4.66.93.66.93s.1-.3.1-.63c.02-.32.34-.88.34-.88z" clip-path="url(#d)"/><path fill="#7CC7CB" d="M605.4 37.07s-20.42 3.08-38.45-14.94c0 0-39.33-28.37-59.75-5.93 0 0-27.8 26.52-53.97 21.85v2.3l152.16.03v-3.3z" clip-path="url(#d)"/><path fill="#9E9369" d="M605.4 35.95s-17 3.68-22.96-8.3c0 0-3.08-7.7 7-9.54 0 0 5.5-.18 6.8 3.9 0 0 .95 3.06-3.25 2.88 0 0 3.18-3.22-.56-4.24 0 0-3.2.26-3.3 2.67 0 0 1.32 5.47 6.37 3.34 0 0 3-.65 2.9-4.54 0 0-.88-5.62-8-7.4 0 0-11.16-1.72-12.4 9.27 0 0-.16 5.3 5.45 8.98 0 0-13.5-7.5-12.98-16.4 0 0 .86-6.03 5.34-7.33 0 0-5.03-2.9-8.58.17l-1.12-1.47s-6.44 4.6 0 12.78l.85 1.43s-9.43-6.52-11.86-7.54l.64 1.47-2.33-1.1s-2.23 1.47-2.04 2.58c0 0 13.9 5.2 17.97 9.93 0 0-9.95-4.18-15.83-1.95 0 0-5.6 1.2-6.25 6.5 0 0 .46 4.8 4.76 5 0 0 5.05-1.48 2.34-5.1 0 0-2.8-1.5-2.33 2.6 0 0-4.25-3.38 3.22-6.5 0 0 4.97-2.32 16.93 3.16 0 0 15.74 9.44 33.24 7.12v-2.38z" clip-path="url(#d)"/><path fill="#9E9369" d="M555.46 14.76s-15.8-9.7-30.53-8.24c0 0-4.22-.53-17.73 7.42 0 0-14.1 8.85-24.87 8.3 0 0-9.47 1.17-7.62-7.8 0 0 .47-3.37 7.53-2.77 0 0 2.78 1.7.43 2.73 0 0-3.15-1.76-2.93 1.9 0 0 4.7 7 7.28-1.07 0 0 1.44-5.08-4.56-6.36 0 0-10.43-3.2-11.4 7.34 0 0-1.5 10.48 12.2 10.05 0 0 13.9-2.28 15.82-5.62 0 0-11.62 10.9-23.78 11.65 0 0-16.08 1.62-11.62-7.98 0 0-4.46.27-3.8 5.07 0 0 0 2.7 2.16 4.42 0 0-1.1-1.03 0 0 0 0 4.87 3.42 9.9 1.5 0 0-9.27 3.16-18.7 2.12v1.8s15.9 1.58 31.13-4.33c0 0 8.12-3.1 14.12-8.4 0 0 6.86-6 7.33-8.14 0 0-5.98 13.82-11.73 14.36 0 0-1.63.2-3.15-.44 0 0 0 3.46 5 2.6l-.55 1.94s8.8.2 11.84-10.58c0 0 2.18 6.58 9.78 4.96l-1.3-1.3s-5.2 1.3-4.45-8.52c0 0-.27-8.3 13.64-11.44 0 0 16.3-1.64 29.17 6.8l.26-.86 1.44.2-.28-1.33z" clip-path="url(#d)"/><path fill="#48883A" d="M510.98 26.42l.08.47s-1.37 1.24-1.47 1.5c-.1.25-.5.56-1.02 1-.52.47-1.1 1.53-1.2 1.7-.08.2-1.12.98-1 1.44.13.46-.54 1.1-.64 1.27-.1.2 1 .27 1.32.06.3-.2.78-.87 1.3-.9.52-.06 1.38-1.6 1.38-1.6s.75.76 1.14.56c.4-.2.73-.22 1.07-.22.33 0 1.35-.36 1.35-.36l1.38-.05s.87.63 1.15.6c.28-.06.67-.03 1.12-.2.45-.2 1.04-.56 1.3-.92l.96-1.37 1.2-1.2.22-.8s-2.64.5-2.74.76c-.1.26-3.02.2-3.42-.05-.4-.24-1.3-.9-1.3-.9l1.05-1.88-1.75.06-1.47 1.04z" clip-path="url(#d)"/><path fill="#ABD076" d="M521.98 27.43s-1.4.64-1.6.77-1.07.36-1.23.6c-.16.22-.52.85-.87 1.23s-.93.62-.93.62l.33-1.05s-.8 1.26-1 1.43c-.2.16-.6.17-1.07.35-.45.2-.98-.1-1.2-.26-.22-.15-.16-.1-.82-.17-.66-.05-1.56.3-1.9-.03-.36-.32-.87-1-1.22-.84-.36.15-.05.3.35-.16.42-.46 2.6-2.17 2.9-2.35.3-.18 1.9-.96 2.5-1.22.6-.27 2-.57 2.6-.2.6.34 2.43.27 2.43.27l1.95.1-1.2.9z" clip-path="url(#d)"/><path fill="#C7D764" d="M522.18 26.47s-.5.35-.82.36c-.34 0-.65-.13-1.2-.18-.53-.05-1-.32-1.42-.2-.42.13-.96-.15-1.73.5s-.52.85-1.43 1.16c-.92.33-1.24-.26-2.2.52-.96.78-1.16 1.3-1.7 1.73-.56.43-1.12.77-1.5.83-.37.07-2.37 1.28-2.83 1.46-.45.17-1.03.42-1.14.58-.12.17 1.4-.97 1.4-.97s1-.94.9-1.26c-.1-.33 1.1-1.2 1.24-1.77.14-.55.88-1.36 1.18-1.68.3-.3.55-.55.94-.75l1.47-.8-1.72.1-.62.32s.05-1 .97-1.4c.93-.38 1.94-1 2.5-1 .6 0 3.1-.3 3.1-.3l2.06.8 1.5.67.94.65.7.5.97.03-1.6.45" clip-path="url(#d)"/><path fill="#48883A" d="M541.88 21.3l-.04-.45s1.47-1.14 1.6-1.4c.1-.23.52-.5 1.08-.9.56-.42 1.24-1.42 1.34-1.6.1-.18 1.2-.86 1.12-1.34-.1-.46.64-1.03.74-1.2.1-.17-.98-.34-1.3-.16-.33.2-.86.8-1.38.8-.52 0-1.5 1.46-1.5 1.46s-.7-.82-1.1-.65c-.4.17-.74.15-1.08.13-.33-.02-1.38.24-1.38.24l-1.38-.07s-.8-.7-1.1-.7c-.27.03-.66-.03-1.12.1-.47.14-1.1.47-1.37.8l-1.07 1.3-1.28 1.1-.3.76s2.68-.26 2.8-.5c.12-.25 3.02.05 3.4.34a38.97 38.97 0 0 1 1.23 1.03l-1.22 1.77 1.76.1 1.56-.92z" clip-path="url(#d)"/><path fill="#ABD076" d="M531 19.37s1.46-.52 1.65-.63c.2-.1 1.1-.27 1.3-.5.17-.2.58-.8.96-1.14.4-.36 1-.55 1-.55l-.42 1.02s.9-1.18 1.12-1.33c.2-.15.62-.12 1.1-.27.46-.14.97.2 1.17.37.2.17.16.13.8.24.66.1 1.6-.16 1.9.2.33.34.77 1.06 1.14.94.38-.13.1-.3-.36.12-.44.43-2.77 1.94-3.07 2.1-.3.15-1.98.8-2.6 1-.6.22-2.04.4-2.6 0-.58-.4-2.4-.5-2.4-.5l-1.93-.28 1.26-.8z" clip-path="url(#d)"/><path fill="#C7D764" d="M530.72 20.3s.52-.3.86-.28c.33.02.63.2 1.17.28.53.1.97.4 1.4.3.42-.08.94.25 1.76-.32.84-.56.6-.8 1.55-1.05.94-.23 1.22.38 2.23-.3 1.02-.7 1.27-1.2 1.85-1.58.6-.4 1.18-.68 1.56-.7.37-.04 2.47-1.08 2.93-1.22.47-.13 1.07-.33 1.2-.48.13-.16-1.5.84-1.5.84s-1.07.85-1 1.17c.1.33-1.18 1.1-1.37 1.65-.2.54-1 1.3-1.32 1.57-.33.28-.6.5-1 .67l-1.53.67 1.72.04.66-.26s-.13 1-1.1 1.3c-.95.3-2 .83-2.58.78-.57-.04-3.1.04-3.1.04l-1.98-.97-1.44-.8-.88-.73-.65-.55-.96-.13 1.65-.3" clip-path="url(#d)"/><path fill="#68B554" d="M536.07 32.3c2.9-.57 5.72-1.35 6.73 2.14-1.48.27-3-.07-4.57.24-.46.1-1.52.14-1.82.54-.6.82.33 1 1 1.62 2.78 2.52 5.17 2.3 8.8 1.4 0-1.54-2.17-3.64-3.05-4.86-1.17-1.64-1.46-3.33-3.66-3.6-1.08-.15-3.37-.17-4.23.63-1.4 1.32.14 2.15 1.2 2.53" clip-path="url(#d)"/><path fill="#48883A" d="M543.58 34.02c-2.26-.35-5.27.66-7.5 1.2 1.88 2.4 5.3 4.92 8.6 3.86-3.55.72-5.44.9-8.3-1.64-2.23-1.97-2.33-5.38-3.64-7.96.88.83 1.7 2.12 2.96 2.3.94.12 2.58-.38 3.53-.5 2.83-.4 4.72.8 5.52 3.65-1.03.04-1.87-.5-2.88-.4" clip-path="url(#d)"/><ellipse cx="541.31" cy="26.82" fill="#F8DF3B" transform="rotate(-5.66 541.56 26.825)" clip-path="url(#d)" rx="1.8" ry="1.62"/><ellipse cx="542.78" cy="27.63" fill="#DB752D" transform="rotate(-5.6 542.508 27.628)" clip-path="url(#d)" rx="1.39" ry="2.56"/><path fill="#577EB2" d="M539.3 28.55l-1.7.27s-1.68-.62-1.28.13c.4.74 1.2 1.75 1.66 1.73.47-.03 1.52-.15 1.52-.15s1.3.82 1.3-.13c-.02-.95.2-1.48-.2-1.88-.4-.4-2.07-2.6-2.07-2.6l.96-1.42.98-1.43-1.08-.84-1.46-.64-2.3.52s-.44.26-.4 1.46c.03 1.2.26 2.65.26 2.65l1.37-.13-.13-1.33c-.1-.93.05-2.28.05-2.28l.76-.1s.4-.6.28.93c-.12 1.54.12 2.24.1 3.02 0 .78.37 1.72.37 1.72" clip-path="url(#d)"/><path fill="#40649D" d="M539.45 24.2c-.46-1.43 1.2-1.7 2.25-1.65-.2 1.82 3.14.6 2.22 2.08-.44.7-3.5.35-4.38.33-.06-.23-.1-.5-.1-.75" clip-path="url(#d)"/><path fill="#C9DAE5" d="M537.75 23.57c.16 0 .3-.05.46-.03.25 1.14.74 5.63-1 5.27-.52-1.46-2.82-5.44.68-5.57m3.84-2.33c-.89.1-3.83.3-2.73 2.06.6 1 4.06.44 4.36-.75.1.17.3.34.38.6.22-.65.14-1.8-.7-1.87m1.2 3.95c1.82-.44 1.88 4.2 1.28 5.2-.64 1.1-3.9 2.33-5.15 1.85-.9-.34-1-1.5.16-2.1.27-.14 1.66.2 2.24.07 2.25-.55 1.55-2.8.87-4.6.3-.23.7-.52 1.06-.63" clip-path="url(#d)"/><path fill="#577EB2" d="M543.98 22.3c1.64.4 2.12 1.32 2.52 2.78-1.78.07-2.44-.37-3.73-1.52.34-.4 1-.74 1.38-1.1" clip-path="url(#d)"/><path fill="#40649D" d="M541.38 20.77c-.2-2.2-6.44-1.45-6 1.4 2.28-.17 4-1.8 6.12-1.9m5.32 6.14c.28 2.83.7 3.82-1.6 5.22-1.43.86-3.2 1.77-4.94 1.3 1.65-1.02 3.9-.85 5.26-2.64.98-1.3-.28-4.5 1.14-5.14.05.2.05.4.08.63" clip-path="url(#d)"/><path fill="#68B554" d="M527.9 24.17c3.66-1.73 6.1.47 6.4-5.1.23-4.12-1.95-5.93-4.13-8.88-.82 2.94-1.34 3.32-3.3 5.32-2.7 2.73-1.12 3.52 2.12 5.87-.62 1.4-2.37 2.74-3.2 2.9" clip-path="url(#d)"/><path fill="#48883A" d="M529.07 23.25s.6-1.62 1.44-2.05c.85-.43 2.74-3.3 2.28-3.56-.46-.27-.92-2.9-.92-2.9l-.83-.6s-2.1 2.26-2 2.87c.1.6-1.9 2.38-1.9 2.38l.5 2.85 1.44 1.02z" clip-path="url(#d)"/><path fill="#E9CFD9" d="M523.82 19.23c.7-.5 1.23-1.68 2.3-1.52.35.07.5.34.83.43.46.14.94-.03 1.4.08.8.2 1.57.86 2.26 1.3.88.55 1.25.77 1.18 1.72-.06.8.2.8 1 1 .58.16 1.45.64.55 1.22-.33.2-1.1.3-1.48.37-.63.13-1 .02-1.5-.38-.56-.43-1-1.03-1.63-1.4-.62-.36-1.32-.32-2.04-.34-.72-.03-1.37-.13-1.92-.64-.45-.4-.26-.64-.45-1.08-.17-.42-.54-.48-.43-.93.1-.4.7-.64 1-.85" clip-path="url(#d)"/><path fill="#E29AB2" d="M518.7 28.35c.58 1.83 2.06 2.12 3.75 2 .3-.04.66-.22.96-.15.6.14 1.13.95 1.65 1.3.4.26 1 .33 1.35.62.4.33.4.88.7 1.33.6.9 1.55 1.18 2.4 1.68-.54.2-.9.74-1.46.93-.68.25-1.33.03-1.97-.33-.87-.5-1.83-1.15-2.54-1.86-.37-.37-.6-.9-1.12-1-.82-.2-1.53.24-2.36-.22-.6-.34-.9-.93-1.02-1.6-.15-.8-.06-1.74-.28-2.5" clip-path="url(#d)"/><path fill="#E9CFD9" d="M520 25.13l-.57.83c-.17.24-.4.42-.14.84.23.4.54.55.37.85s-.22.02-.52.74c-.3.7-.34-.05-.3.7.03.78.18 1.04.45 1.24.28.2.24.24.8.56.56.3.32.2.95.7.63.5 1.44.73 1.76.63.33-.1.4.27.72-.23.32-.5.5-.76 1.08-.16.6.6 2.36 1.67 2.36 1.67l2.52.08s.54-.27.97-.2c.42.1 2.07 1.14 2.43 1.2.36.04 1.1-.48 1.1-.48l1.2-1.13-.23-1.34s.3-.65.87-1c.56-.34 1.22-.5 1.3-1 .08-.5.3-1.06.13-1.27-.18-.2-.47-1.04-.47-1.04l-.87-.38s-2.07.36-2.08.7c0 .36-.28 1.94-.74 2-.46.06-1.2.9-1.76.98-.54.08-1.87-.02-2.84-.39-.98-.36-2.36-.75-2.83-1.3-.47-.53-2.67-1.53-2.88-1.9-.2-.4-.94-1.42-1.28-1.65-.35-.23-1.5-.24-1.5-.24z" clip-path="url(#d)"/><path fill="#CE2B3D" d="M532 26.26l-.6-.88-1.17-.82s-1.05-.5-1.42-.54c-.37-.04-1.04-.37-1.52-.4-.48 0-.83.85-.83.85s1.32.57.97.68c-.34.12-1.4.05-1.63.14-.24.07-.95 1.55-.58 1.97.36.4.4 1.27.53 1.1.1-.16-.56-.14-1.04-.4-.46-.25-.5-1-.5-1l-1.32-.12s-1-.3-.82-.57c.2-.27.3-.7.65-.92.35-.24.9-.12 1.4-.68.5-.55-.76-.46-1.17-.47-.4 0-1.5.07-1.7.1-.2.03.28-.63.6-.86.33-.23 1.8-.28 1.8-.28s.85-.1 1.18-.37c.35-.27-.26-.52-.16-1.02s.76-.6.94-.5c.17.12 1 .64 1.43.75.43.1.32.15 1.98 0s.68-.5 1.04-.6c.36-.13.73-.52 1-.54s-.1.95-.14 1.47c-.04.52.62.74.62.74s1.48-.46 1.97-.5c.5 0 .4.5.48.88.06.37.7.26 1.07.23.35-.03 1.26.9 1.26.9s-.27.5-.24.7c.03.17-.12.4-.33.46-.2.07-.97 0-1.18-.3-.2-.28-.92.73-1.14 1.05-.15.22-.5.3-.72.35l-.2.02m-.67 7.48s-.98-.6-1.1-.77c-.13-.17-.68-.9-1.17-.8-.5.12-1.3.22-1.83.17-.54-.06-1.42-.2-1.9-.58-.48-.36-.54-.43-1-.7-.45-.26-1.33-.94-1.33-.94l-.32.5s.14.75-.3.93c-.46.17-1.26.02-1.26.02l-.56-.4 1.12.8s.36.5.86.2.62-.88.62-.88 1.82.73 1.87 1c.07.27 1.4.96 1.4.96s.37.04.54.4c.16.34 1.1.76 1.1.76l1.27.17 1.64-.35.77-.4-.4-.1z" clip-path="url(#d)"/><path fill="#DB7594" d="M536.33 26.15c.08.5.3 1.2-.32 1.27-.5.05-.68-.54-1.2-.23-.33.18-.27.63-.44.83-.15.17-.44.25-.52.35-.25.3-.1.4-.22.78-.25.77-.78.9-1.28 1.38.48.66 1.7.52 1.34 1.6-.8-.24-1.36-.95-2.1-1.23-.52-.18-1.08-.04-1.55-.33-.36-.22-.58-.7-1.02-.88-.45-.17-.73-.12-1.16-.42.65.13 1.1.42 1.73.16.45-.18.93-.56 1.32-.85.37-.3.7-.58.88-1.07.23-.63-.07-.94.75-.8.6.12.7.42 1.25-.1.26-.24.36-.7.65-.92.6-.46 1.24-.04 1.78.37-.07.1-.05.22-.1.3" clip-path="url(#d)"/><path fill="#DC5377" d="M530.66 20.92c.06-.1.1-.2.13-.3-.58-.47-1.4-1.56-2.16-.8-.23.25-.08.87-.3 1.03-.32.24-.76-.14-1.03-.32-.32-.2-.72-.7-1.14-.64-.3.02-.77.82-1.07.3-.15-.23.3-.57.23-.88-.15-.78-.93-.35-1.3-.02-.65.58-.62.93-.85 1.63-.14.42-.5.6-.42 1.1.14 1 1.02 1.22 1.56.44.46-.65.6-1.4 1.5-.92.32.16.47.53.74.68.72.38.9-.27 1.56-.47.63-.2.95.4 1.54.32.5-.06 1.05-.87 1.18-1.2m-6.98 3.3c-.37.52-.78.84-1.18 1.3-.67.76-.14 1.18.6 1.58-.3.62-.62.7-1.25.86-.25.05-1.1.52-1.24.48-.66-.18.23-2.3-.05-2.82-.1-.2-.4-.3-.5-.48-.1-.2-.06-.44-.12-.63-.1-.37-.43-.86-.4-1.22.18-1.63 1.72-.86 2.3-.1-.32.48-.68.95-.92 1.46.4.48 2.7-.1 3.02-.32m1.77 7.97c1.02.72 1.85.93 2.9.26.42-.25 1.2-1.2 1.68-.62-.15.68 1.43 1.5 1.92 1.03-.76.32-.04.9.46.95.6.06 1.1-.44 1.28-.94-.4 1.4-1.87 2.1-3.08 1.18-.7-.53-1.08-1.22-1.96-1.27-.55-.02-1.13.16-1.64.14" clip-path="url(#d)"/><path fill="#ECA747" d="M531.16 25.46c1.35.88.86 1.8.26 3-.77 1.53-1.73 2-3.27.95-.42-.28-.82-.63-1.27-.87-.34-.17-.9-.2-1.15-.57-.4-.58.12-1.44.67-1.68.43-.2.6-.02.97.13.7.28 1.1.4 1.86.16.7-.2 1.4-.65 2.1-.74" clip-path="url(#d)"/><path fill="#F5EAA2" d="M527.65 24.4c-.1-.24-.48-.14-.48-.14l.04.75s-.17.2-.42.22c-.26 0-1 .07-1 .07l-.17.58.26.18.4.3s-.48.55-.16.62c.33.07 1.02-.04 1.02-.04s.6.98.78.55c.17-.44.3-1.43.6-1.46.3-.03.26-.9.26-.9l-.24-.87-.87.12z" clip-path="url(#d)"/><path fill="#F8DF3B" d="M529.9 26.36l-.58.8-1.28-.13.46-1-.75.03.24-1.04s.12-.7.32-.73c.2-.03.8-.2.8-.2s.55.06.83.26c.3.2 1.05.2 1.02.46-.02.24.44.56.44.56l.3.56s-.7-.43-.56 0c.13.4 0 .58-.16 1s-.65.93-.65.93-.1-.3-.12-.63c0-.32-.3-.88-.3-.88z" clip-path="url(#d)"/><path fill="#45362A" d="M-.14 39.95h605.86v4.27H-.14z" clip-path="url(#d)"/><circle cx="302.27" cy="14.94" r="9.34" fill="#9E9369" clip-path="url(#d)"/><path fill="#ECA747" d="M299.22 12.64c-1.95 1.27-1.24 2.6-.38 4.3 1.12 2.23 2.5 2.92 4.7 1.4.62-.4 1.2-.93 1.85-1.26.48-.26 1.3-.3 1.65-.83.55-.83-.17-2.08-.97-2.43-.62-.27-.85-.03-1.4.18-1.02.4-1.6.6-2.7.23-.98-.3-2-.94-3-1.07" clip-path="url(#d)"/><path fill="#F5EAA2" d="M304.28 11.1c.12-.33.7-.2.7-.2l-.07 1.1s.28.3.64.3 1.42.1 1.42.1l.25.85-.34.25-.6.42s.7.8.25.92c-.46.1-1.46-.06-1.46-.06s-.87 1.42-1.12.8c-.25-.63-.45-2.06-.87-2.1-.42-.04-.37-1.32-.37-1.32l.34-1.24 1.26.18z" clip-path="url(#d)"/><path fill="#F8DF3B" d="M301.05 13.94l.82 1.16 1.85-.18-.67-1.44 1.1.02-.36-1.48s-.2-1.02-.5-1.06c-.28-.04-1.14-.27-1.14-.27s-.8.07-1.2.35c-.4.3-1.5.3-1.48.66.04.36-.62.82-.62.82l-.4.8s1-.6.8 0c-.2.6-.03.86.2 1.45s.96 1.35.96 1.35.16-.45.16-.9c0-.47.47-1.28.47-1.28z" clip-path="url(#d)"/><circle cx="605.39" cy="14.94" r="9.34" fill="#9E9369" clip-path="url(#d)"/><path fill="#ECA747" d="M602.33 12.64c-1.94 1.27-1.23 2.6-.37 4.3 1.1 2.23 2.5 2.92 4.7 1.4.6-.4 1.2-.93 1.84-1.26.5-.26 1.32-.3 1.66-.83.56-.83-.17-2.08-.97-2.43-.63-.27-.85-.03-1.4.18-1.02.4-1.6.6-2.7.23-.98-.3-2-.94-3-1.07" clip-path="url(#d)"/><path fill="#F5EAA2" d="M607.4 11.1c.12-.33.7-.2.7-.2L608 12s.27.3.64.3c.36 0 1.42.1 1.42.1l.25.85-.35.25-.6.42s.7.8.24.92c-.47.1-1.46-.06-1.46-.06s-.87 1.42-1.12.8c-.25-.63-.45-2.06-.87-2.1-.42-.04-.37-1.32-.37-1.32l.34-1.24 1.26.18z" clip-path="url(#d)"/><path fill="#F8DF3B" d="M604.17 13.94l.8 1.16 1.86-.18-.66-1.44 1.1.02-.36-1.48s-.18-1.02-.47-1.06c-.3-.04-1.16-.27-1.16-.27s-.8.07-1.2.35c-.4.3-1.5.3-1.47.66.04.36-.62.82-.62.82l-.4.8s1-.6.8 0c-.2.6-.03.86.2 1.45.25.6.96 1.35.96 1.35s.16-.45.16-.9c0-.47.47-1.28.47-1.28z" clip-path="url(#d)"/></g></svg>