<svg xmlns="http://www.w3.org/2000/svg" xmlns:xlink="http://www.w3.org/1999/xlink" viewBox="0 0 302.582 49.789"><defs><path id="e" d="M0-.964h302.904v50.43H0z"/></defs><clipPath id="f"><use xlink:href="#e" overflow="visible"/></clipPath><g clip-path="url(#f)"><defs><path id="g" d="M-.14-.79h605.532v50.664H-.14z"/></defs><clipPath id="h"><use xlink:href="#g" overflow="visible"/></clipPath><path clip-path="url(#h)" fill="#45362A" d="M-.14 4.13h303.044v37.572H-.14z"/><path clip-path="url(#h)" fill="#7CC7CB" d="M-.14 44.263h303.044v5.61H-.14z"/><path clip-path="url(#h)" fill="#9E9369" d="M-.14 44.263h5.612v5.61H-.14zM11.083 44.263h5.613v5.61h-5.613zM22.31 44.263h5.61v5.61h-5.61zM33.532 44.263h5.61v5.61h-5.61zM44.756 44.263h5.612v5.61h-5.612zM55.98 44.263h5.61v5.61h-5.61zM67.204 44.263h5.612v5.61h-5.612zM78.428 44.263h5.612v5.61h-5.612zM89.65 44.263h5.613v5.61H89.65zM100.875 44.263h5.612v5.61h-5.612zM112.1 44.263h5.61v5.61h-5.61zM123.323 44.263h5.612v5.61h-5.612zM134.547 44.263h5.612v5.61h-5.613zM145.77 44.263h5.613v5.61h-5.613zM156.995 44.263h5.612v5.61h-5.612zM168.218 44.263h5.612v5.61h-5.612zM179.442 44.263h5.613v5.61h-5.613zM190.666 44.263h5.612v5.61h-5.612zM201.89 44.263h5.613v5.61h-5.613zM213.114 44.263h5.612v5.61h-5.612zM224.337 44.263h5.613v5.61h-5.613zM235.562 44.263h5.61v5.61h-5.61zM246.786 44.263h5.61v5.61h-5.61zM258.01 44.263h5.61v5.61h-5.61zM269.234 44.263h5.612v5.61h-5.612zM280.458 44.263h5.61v5.61h-5.61zM291.683 44.263h5.61v5.61h-5.61z"/><path clip-path="url(#h)" fill="#7CC7CB" d="M-.14-.79h303.044V4.7H-.14zM-.14 37.07s20.416 3.076 38.45-14.94c0 0 39.324-28.374 59.74-5.927 0 0 27.802 26.516 53.978 21.847v2.296l-152.168.03v-3.307z"/><path clip-path="url(#h)" fill="#9E9369" d="M-.14 35.946s16.98 3.68 22.953-8.286c0 0 3.08-7.696-7-9.552 0 0-5.508-.185-6.815 3.895 0 0-.934 3.06 3.267 2.874 0 0-3.19-3.22.543-4.24 0 0 3.207.26 3.3 2.67 0 0-1.324 5.467-6.364 3.334 0 0-2.987-.647-2.894-4.544 0 0 .877-5.616 8.004-7.4 0 0 11.153-1.715 12.387 9.273 0 0 .17 5.295-5.438 8.978 0 0 13.49-7.498 12.982-16.402 0 0-.864-6.027-5.345-7.325 0 0 5.04-2.89 8.587.17l1.12-1.463s6.44 4.617 0 12.78l-.84 1.425s9.428-6.527 11.855-7.547l-.653 1.484 2.332-1.113s2.24 1.483 2.054 2.597c0 0-13.92 5.194-17.975 9.924 0 0 9.948-4.175 15.83-1.95 0 0 5.6 1.208 6.253 6.494 0 0-.467 4.822-4.762 5.008 0 0-5.04-1.483-2.332-5.1 0 0 2.8-1.485 2.333 2.597 0 0 4.253-3.372-3.213-6.498 0 0-4.964-2.314-16.93 3.158 0 0-15.738 9.455-33.238 7.137v-2.38z"/><path clip-path="url(#h)" fill="#9E9369" d="M49.794 14.755s15.81-9.692 30.525-8.24c0 0 4.223-.53 17.73 7.423 0 0 14.116 8.85 24.868 8.31 0 0 9.47 1.165 7.624-7.816 0 0-.462-3.365-7.515-2.76 0 0-2.78 1.705-.434 2.732 0 0 3.15-1.76 2.933 1.908 0 0-4.685 6.996-7.277-1.08 0 0-1.434-5.087 4.56-6.367 0 0 10.44-3.21 11.405 7.34 0 0 1.5 10.473-12.186 10.04 0 0-13.926-2.276-15.837-5.617 0 0 11.623 10.898 23.786 11.655 0 0 16.08 1.616 11.62-7.987 0 0 4.46.27 3.802 5.073 0 0 0 2.698-2.167 4.423 0 0 1.09-1.023 0 0 0 0-4.87 3.425-9.888 1.512 0 0 9.26 3.158 18.68 2.12v1.81s-15.875 1.564-31.12-4.344c0 0-8.117-3.1-14.123-8.38 0 0-6.863-6.006-7.325-8.147 0 0 5.974 13.814 11.73 14.354 0 0 1.627.215 3.15-.433 0 0 .006 3.452-4.995 2.59l.54 1.943s-8.79.217-11.834-10.578c0 0-2.174 6.585-9.776 4.964l1.305-1.295s5.21 1.294 4.45-8.525c0 0 .262-8.31-13.643-11.438 0 0-16.302-1.64-29.168 6.797l-.265-.858-1.443.183.282-1.315z"/><circle clip-path="url(#h)" fill="#9E9369" cx="151.384" cy="14.936" r="9.342"/><path clip-path="url(#h)" fill="#ECA747" d="M148.324 12.64c-1.944 1.268-1.238 2.598-.373 4.313 1.116 2.215 2.492 2.908 4.708 1.39.603-.416 1.188-.933 1.834-1.268.49-.253 1.317-.305 1.662-.822.555-.834-.17-2.087-.97-2.434-.62-.268-.846-.03-1.398.185-1.015.398-1.596.584-2.687.23-.988-.316-2.013-.944-3.005-1.078"/><path clip-path="url(#h)" fill="#F5EAA2" d="M153.388 11.1c.122-.332.69-.196.69-.196l-.063 1.086s.27.3.633.31c.364.012 1.423.094 1.423.094l.252.858-.355.25-.594.42s.708.807.24.913c-.47.104-1.467-.053-1.467-.053s-.87 1.416-1.122.79c-.25-.622-.45-2.05-.868-2.094-.418-.042-.372-1.315-.372-1.315l.343-1.24 1.26.176z"/><path clip-path="url(#h)" fill="#F8DF3B" d="M150.157 13.942l.818 1.16 1.848-.187-.666-1.438 1.09.028-.35-1.49s-.188-1.012-.48-1.053c-.29-.04-1.15-.276-1.15-.276s-.797.08-1.205.367c-.406.288-1.508.31-1.47.66.036.35-.622.81-.622.81l-.405.803s.99-.613.798-.003c-.194.608-.025.852.217 1.446s.95 1.348.95 1.348.16-.447.16-.906c0-.46.467-1.27.467-1.27z"/><circle clip-path="url(#h)" fill="#9E9369" cx="-.14" cy="14.936" r="9.342"/><path clip-path="url(#h)" fill="#ECA747" d="M-3.2 12.64c-1.943 1.268-1.237 2.598-.372 4.313 1.115 2.215 2.49 2.908 4.707 1.39.603-.416 1.188-.933 1.834-1.268.488-.253 1.316-.305 1.66-.822.555-.834-.17-2.087-.97-2.434-.62-.268-.845-.03-1.397.185-1.016.398-1.597.584-2.688.23-.987-.316-2.012-.944-3.004-1.078"/><path clip-path="url(#h)" fill="#F5EAA2" d="M1.865 11.1c.122-.332.69-.196.69-.196l-.063 1.086s.27.3.634.31c.364.012 1.423.094 1.423.094l.25.858-.355.25-.593.42s.708.807.24.913c-.47.104-1.467-.053-1.467-.053s-.87 1.416-1.122.79c-.25-.622-.45-2.05-.868-2.094-.418-.042-.372-1.315-.372-1.315l.343-1.24 1.26.176z"/><path clip-path="url(#h)" fill="#F8DF3B" d="M-1.366 13.942l.818 1.16 1.848-.187-.666-1.438 1.09.028-.35-1.49s-.19-1.012-.48-1.053c-.29-.04-1.15-.276-1.15-.276s-.798.08-1.205.367c-.408.288-1.51.31-1.473.66.038.35-.62.81-.62.81l-.406.803s.99-.613.8-.003c-.194.608-.027.852.216 1.446.242.594.95 1.348.95 1.348s.16-.447.162-.906c0-.46.466-1.27.466-1.27z"/><path clip-path="url(#h)" fill="#48883A" d="M94.275 26.422l-.083.464s1.372 1.252 1.472 1.512c.1.256.484.56 1.005 1.013.52.455 1.107 1.516 1.194 1.702.085.186 1.13.963 1.004 1.428-.127.463.547 1.088.638 1.27.093.185-1.004.256-1.317.047-.312-.21-.78-.866-1.3-.91-.518-.047-1.373-1.58-1.373-1.58s-.76.755-1.15.55c-.39-.2-.724-.214-1.06-.223-.334-.01-1.357-.357-1.357-.357l-1.38-.05s-.866.646-1.146.598c-.28-.05-.67-.02-1.122-.195-.45-.177-1.04-.55-1.3-.916-.257-.368-.962-1.37-.962-1.37L84.86 28.2l-.222-.79s2.638.493 2.74.75c.1.256 3.014.205 3.413-.047.397-.254 1.316-.927 1.316-.927L91.04 25.32l1.766.062 1.47 1.04z"/><path clip-path="url(#h)" fill="#ABD076" d="M83.274 27.434s1.41.637 1.586.764c.176.127 1.08.362 1.242.594.16.23.517.853.868 1.235.35.384.934.627.934.627l-.33-1.05s.8 1.258 1 1.424c.2.164.61.174 1.07.356.46.184.99-.11 1.21-.263.22-.153.166-.115.825-.168.658-.054 1.557.29 1.905-.03.348-.32.854-1 1.208-.847.355.158.05.305-.355-.154-.405-.46-2.592-2.17-2.884-2.35-.29-.183-1.905-.963-2.5-1.226-.596-.265-2.008-.566-2.608-.21-.603.353-2.426.283-2.426.283l-1.94.116 1.194.9z"/><path clip-path="url(#h)" fill="#C7D764" d="M83.074 26.468s.486.354.824.362c.337.007.652-.13 1.19-.18.537-.052 1.005-.32 1.422-.193.418.127.96-.152 1.734.483s.525.862 1.442 1.175c.917.313 1.24-.273 2.198.503.956.78 1.156 1.295 1.708 1.73.548.43 1.115.77 1.488.837.374.063 2.378 1.28 2.83 1.454.45.174 1.033.42 1.148.584.116.164-1.418-.97-1.418-.97s-.993-.942-.888-1.26c.103-.32-1.09-1.2-1.234-1.758-.146-.555-.88-1.367-1.18-1.68-.304-.312-.552-.55-.947-.758l-1.463-.8 1.714.105.635.317s-.05-1.002-.977-1.39c-.928-.387-1.934-1.003-2.508-1.003-.576-.002-3.08-.298-3.08-.298l-2.064.797-1.498.666-.937.658-.7.494-.97.04 1.628.448"/><path clip-path="url(#h)" fill="#48883A" d="M63.375 21.314l.043-.468s-1.475-1.132-1.597-1.382c-.12-.247-.53-.516-1.087-.923-.556-.407-1.235-1.413-1.337-1.592-.1-.178-1.207-.863-1.122-1.336.087-.473-.64-1.04-.744-1.212-.108-.174.98-.34 1.308-.158.33.185.852.795 1.374.797.52 0 1.503 1.457 1.503 1.457s.692-.82 1.097-.65c.406.17.74.152 1.076.134.334-.018 1.383.242 1.383.242l1.38-.07s.807-.717 1.092-.692c.284.023.67-.037 1.134.1.464.133 1.083.457 1.37.8l1.08 1.283 1.277 1.097.29.77s-2.672-.266-2.792-.514c-.122-.246-3.024.053-3.397.34a38.216 38.216 0 0 0-1.232 1.034l1.222 1.768-1.764.09-1.553-.914z"/><path clip-path="url(#h)" fill="#ABD076" d="M74.248 19.366s-1.46-.516-1.645-.627c-.186-.113-1.107-.27-1.29-.486-.18-.214-.587-.804-.97-1.156-.38-.352-.985-.546-.985-.546l.42 1.02s-.908-1.185-1.12-1.333c-.212-.148-.624-.123-1.096-.266-.474-.143-.98.194-1.185.367-.204.173-.154.128-.806.24-.65.11-1.576-.16-1.896.192-.32.348-.766 1.07-1.132.946-.368-.126-.077-.3.366.124.445.425 2.768 1.942 3.075 2.096.306.155 1.98.798 2.597 1.007.615.212 2.048.393 2.617-.012.57-.405 2.392-.49 2.392-.49l1.923-.285-1.265-.792z"/><path clip-path="url(#h)" fill="#C7D764" d="M74.53 20.31s-.515-.31-.853-.29c-.337.02-.638.187-1.17.282-.53.096-.974.405-1.4.313s-.944.233-1.77-.334c-.826-.564-.596-.814-1.538-1.047-.94-.233-1.214.38-2.233-.312-1.02-.694-1.264-1.19-1.85-1.573-.584-.385-1.18-.675-1.555-.708-.378-.032-2.48-1.074-2.943-1.21-.466-.134-1.066-.33-1.195-.484-.13-.154 1.496.845 1.496.845s1.07.856.993 1.183c-.077.327 1.188 1.104 1.38 1.644.192.54.995 1.287 1.32 1.574.33.285.594.497 1.007.677.414.18 1.527.67 1.527.67l-1.717.042-.658-.264s.133.993 1.092 1.3c.958.308 2.012.832 2.585.784.572-.047 3.092.036 3.092.036l1.988-.973 1.436-.79.877-.738.655-.552.965-.12-1.66-.31"/><path clip-path="url(#h)" fill="#68B554" d="M69.183 32.314c-2.89-.582-5.718-1.365-6.728 2.13 1.478.266 3.008-.07 4.565.235.466.092 1.522.137 1.826.538.618.82-.318 1.003-1.004 1.626-2.772 2.52-5.162 2.295-8.796 1.39 0-1.53 2.176-3.633 3.055-4.854 1.18-1.638 1.467-3.327 3.667-3.61 1.067-.14 3.358-.162 4.22.642 1.405 1.31-.137 2.14-1.208 2.522"/><path clip-path="url(#h)" fill="#48883A" d="M61.67 34.018c2.26-.352 5.268.663 7.512 1.203-1.886 2.41-5.31 4.92-8.61 3.862 3.553.718 5.435.894 8.3-1.64 2.233-1.974 2.328-5.384 3.64-7.964-.883.832-1.69 2.122-2.953 2.294-.945.127-2.583-.374-3.535-.506-2.83-.394-4.72.802-5.517 3.665 1.03.033 1.87-.508 2.876-.4"/><ellipse transform="rotate(-174.34 63.945 26.824)" clip-path="url(#h)" fill="#F8DF3B" cx="63.943" cy="26.823" rx="1.802" ry="1.621"/><ellipse transform="rotate(-174.405 62.473 27.628)" clip-path="url(#h)" fill="#DB752D" cx="62.471" cy="27.626" rx="1.387" ry="2.564"/><path clip-path="url(#h)" fill="#577EB2" d="M65.95 28.545l1.7.274s1.688-.617 1.28.126c-.41.74-1.186 1.753-1.66 1.73-.473-.022-1.516-.15-1.516-.15s-1.31.824-1.293-.126c.018-.95-.205-1.483.187-1.88.392-.394 2.074-2.587 2.074-2.587l-.96-1.434-.99-1.43 1.08-.836 1.458-.64 2.294.532s.45.26.414 1.46c-.035 1.2-.262 2.645-.262 2.645l-1.367-.134s.04-.394.13-1.326c.094-.932-.05-2.28-.05-2.28l-.776-.076s-.397-.625-.278.914c.122 1.543-.116 2.24-.11 3.02.01.78-.356 1.72-.356 1.72"/><path clip-path="url(#h)" fill="#40649D" d="M65.808 24.213c.46-1.445-1.188-1.718-2.252-1.66.2 1.812-3.142.61-2.226 2.074.44.708 3.5.354 4.378.33.06-.228.116-.505.1-.744"/><path clip-path="url(#h)" fill="#C9DAE5" d="M67.498 23.565c-.157.01-.3-.045-.46-.03-.23 1.147-.722 5.63 1.023 5.27.51-1.46 2.815-5.444-.69-5.576M63.532 20.896c.886.092 3.834.294 2.73 2.068-.62.996-4.067.44-4.368-.757-.1.162-.294.334-.38.59-.22-.65-.137-1.79.712-1.867M61.022 24.88c-1.824-.443-1.89 4.205-1.294 5.21.645 1.092 3.892 2.315 5.154 1.84.894-.337.988-1.51-.162-2.1-.27-.14-1.662.215-2.24.072-2.243-.55-1.548-2.79-.868-4.603-.306-.225-.692-.523-1.057-.63"/><path clip-path="url(#h)" fill="#577EB2" d="M61.278 22.302c-1.64.41-2.12 1.322-2.527 2.78 1.785.072 2.442-.376 3.73-1.52-.335-.407-1.007-.74-1.378-1.117"/><path clip-path="url(#h)" fill="#40649D" d="M63.87 20.77c.205-2.21 6.445-1.45 6 1.387-2.276-.16-3.982-1.788-6.112-1.89M58.432 26.413c-.277 2.812-.698 3.804 1.612 5.205 1.425.865 3.186 1.774 4.926 1.298-1.65-1.02-3.883-.848-5.254-2.637-.986-1.285.273-4.493-1.14-5.14-.05.207-.055.41-.08.627"/><path clip-path="url(#h)" fill="#68B554" d="M77.36 24.173c-3.667-1.728-6.105.468-6.412-5.1-.227-4.124 1.957-5.936 4.137-8.887.816 2.95 1.336 3.337 3.3 5.332 2.7 2.736 1.115 3.526-2.118 5.874.607 1.418 2.355 2.752 3.188 2.91"/><path clip-path="url(#h)" fill="#48883A" d="M76.186 23.25s-.605-1.62-1.44-2.048c-.837-.433-2.733-3.3-2.27-3.564.462-.27.914-2.907.914-2.907l.833-.585s2.116 2.256 2.01 2.86c-.105.608 1.904 2.376 1.904 2.376l-.497 2.85-1.454 1.02z"/><path clip-path="url(#h)" fill="#E9CFD9" d="M81.438 19.227c-.704-.498-1.233-1.673-2.307-1.512-.347.052-.51.32-.823.416-.463.143-.94-.03-1.402.08-.786.19-1.574.85-2.26 1.286-.875.553-1.247.77-1.17 1.725.063.81-.192.805-.995 1.012-.587.15-1.46.627-.552 1.207.322.203 1.094.303 1.477.372.625.114.99.002 1.497-.39.562-.437 1.014-1.038 1.626-1.398.625-.366 1.323-.323 2.042-.346.728-.026 1.374-.128 1.928-.64.447-.414.257-.637.447-1.076.183-.424.55-.48.433-.935-.1-.404-.706-.637-1.008-.85"/><path clip-path="url(#h)" fill="#E29AB2" d="M86.54 28.35c-.566 1.828-2.05 2.124-3.733 1.986-.3-.024-.662-.206-.968-.135-.58.136-1.114.946-1.637 1.298-.394.265-1.005.328-1.347.616-.4.338-.392.88-.697 1.334-.618.914-1.552 1.18-2.414 1.676.546.2.898.74 1.46.937.687.245 1.336.026 1.968-.333.877-.497 1.83-1.146 2.54-1.856.375-.37.617-.893 1.12-1.012.834-.2 1.55.25 2.377-.21.61-.34.888-.928 1.02-1.598.155-.81.057-1.74.278-2.515"/><path clip-path="url(#h)" fill="#E9CFD9" d="M85.246 25.134l.583.83c.168.24.38.418.137.835-.242.415-.555.553-.39.847.168.294.222.02.524.745.305.72.343-.042.305.72-.037.768-.18 1.032-.453 1.225-.275.193-.238.248-.796.56-.56.31-.32.215-.95.704-.63.49-1.442.73-1.762.63-.318-.105-.394.27-.714-.228-.32-.497-.484-.76-1.072-.158-.59.604-2.36 1.662-2.36 1.662l-2.525.073s-.543-.272-.968-.19c-.425.083-2.078 1.134-2.434 1.184-.357.048-1.097-.47-1.097-.47l-1.2-1.13.228-1.342s-.294-.647-.865-.992c-.568-.345-1.22-.5-1.298-1-.08-.498-.312-1.07-.134-1.278.178-.206.47-1.043.47-1.043l.867-.374s2.083.357 2.088.705c.007.35.28 1.933.74 1.994.463.057 1.22.9 1.765.977.547.077 1.87-.023 2.845-.385.974-.364 2.357-.752 2.83-1.294.47-.54 2.67-1.54 2.88-1.92.208-.38.935-1.407 1.28-1.638.34-.23 1.478-.248 1.478-.248z"/><path clip-path="url(#h)" fill="#CE2B3D" d="M73.265 26.26l.583-.88 1.17-.822s1.05-.486 1.428-.535c.377-.045 1.045-.378 1.53-.393.482-.01.832.837.832.837s-1.32.572-.975.685c.345.115 1.408.047 1.634.137.227.084.934 1.558.57 1.976-.36.418-.415 1.275-.53 1.112-.115-.167.556-.145 1.033-.398.478-.255.514-1.02.514-1.02l1.32-.106s1.013-.306.815-.574c-.2-.27-.31-.686-.648-.92-.34-.235-.9-.123-1.394-.68-.495-.552.767-.458 1.173-.464.406-.006 1.514.052 1.702.086.186.03-.276-.627-.604-.858-.327-.23-1.782-.287-1.782-.287s-.865-.096-1.2-.362c-.334-.262.277-.514.172-1.014-.106-.5-.76-.61-.934-.497-.175.117-1.017.64-1.433.748-.416.106-.304.152-1.963.007-1.66-.146-.683-.502-1.044-.62-.36-.115-.734-.51-.996-.53-.26-.02.1.958.138 1.48.037.517-.627.738-.627.738s-1.475-.465-1.964-.492c-.49-.026-.412.495-.48.864-.068.37-.717.266-1.07.23-.355-.042-1.262.885-1.262.885s.27.506.24.692c-.034.187.12.407.334.476.212.068.98-.007 1.186-.296.206-.29.92.727 1.143 1.04.146.21.494.302.717.34.115.022.195.027.195.027M73.46 34.35s.97-.6 1.096-.77c.126-.17.68-.898 1.17-.787.487.112 1.29.203 1.83.153.538-.052 1.41-.21 1.893-.572.482-.36.537-.434.995-.7.46-.263 1.342-.942 1.342-.942l.32.5s-.147.75.305.925c.45.175 1.247.024 1.247.024l.548-.386-1.12.787s-.356.498-.856.195c-.5-.306-.616-.88-.616-.88s-1.828.73-1.88 1.003c-.052.274-1.37.965-1.37.965s-.387.034-.55.386c-.163.35-1.096.77-1.096.77l-1.274.172-1.638-.348-.767-.394.42-.1z"/><path clip-path="url(#h)" fill="#DB7594" d="M68.92 26.146c-.072.497-.306 1.196.324 1.27.52.057.692-.533 1.212-.224.323.19.264.633.44.838.145.174.44.254.52.354.243.304.093.408.212.778.25.768.784.905 1.28 1.377-.475.66-1.71.52-1.334 1.592.793-.227 1.36-.937 2.108-1.22.513-.195 1.07-.05 1.54-.34.364-.22.578-.713 1.026-.877.458-.168.735-.114 1.17-.417-.653.132-1.09.428-1.73.165-.454-.184-.936-.56-1.318-.854-.388-.302-.714-.568-.894-1.062-.228-.628.07-.936-.75-.784-.605.11-.69.41-1.246-.104-.267-.247-.37-.712-.654-.932-.6-.465-1.24-.042-1.782.362.08.098.067.226.122.31"/><path clip-path="url(#h)" fill="#DC5377" d="M74.596 20.924c-.06-.092-.095-.2-.128-.31.566-.46 1.4-1.552 2.147-.782.234.24.084.86.3 1.02.32.24.758-.142 1.035-.32.324-.208.73-.69 1.147-.645.292.028.77.83 1.07.322.14-.24-.304-.583-.244-.888.154-.782.936-.35 1.31-.02.648.577.607.928.844 1.63.142.422.49.595.418 1.105-.144.997-1.02 1.214-1.563.436-.457-.653-.6-1.41-1.513-.923-.305.165-.46.534-.728.677-.72.383-.914-.266-1.563-.464-.627-.194-.944.412-1.542.323-.492-.07-1.044-.873-1.178-1.196M81.395 24.18c.363.518.774.845 1.18 1.298.673.757.14 1.186-.6 1.58.29.625.617.708 1.25.86.25.057 1.11.52 1.238.482.647-.18-.236-2.285.042-2.822.103-.197.392-.3.49-.482.1-.182.067-.44.125-.627.117-.367.44-.857.4-1.224-.177-1.623-1.712-.857-2.298-.09.325.478.678.94.925 1.454-.393.475-2.685-.102-3.01-.333M79.362 32.25c-1.028.716-1.857.927-2.917.26-.41-.258-1.205-1.206-1.672-.627.154.677-1.43 1.507-1.917 1.03.76.31.038.886-.464.937-.6.06-1.094-.438-1.275-.943.394 1.397 1.865 2.084 3.075 1.173.705-.53 1.085-1.22 1.958-1.27.553-.034 1.13.148 1.647.13"/><path clip-path="url(#h)" fill="#ECA747" d="M74.095 25.46c-1.348.876-.858 1.8-.26 2.99.774 1.535 1.73 2.015 3.266.964.418-.29.824-.646 1.273-.88.338-.175.913-.212 1.153-.57.384-.58-.118-1.448-.672-1.688-.432-.184-.588-.02-.97.13-.705.275-1.106.405-1.865.158-.686-.218-1.396-.655-2.084-.747"/><path clip-path="url(#h)" fill="#F5EAA2" d="M77.606 24.39c.083-.23.48-.135.48-.135l-.046.752s.188.207.44.217c.253.007.987.064.987.064l.175.595-.247.174-.412.29s.492.562.166.633c-.327.073-1.018-.035-1.018-.035s-.604.98-.778.548c-.172-.433-.312-1.422-.602-1.453-.29-.03-.257-.912-.257-.912l.237-.86.874.12z"/><path clip-path="url(#h)" fill="#F8DF3B" d="M75.366 26.36l.567.807 1.28-.132-.46-.996.755.018-.244-1.033s-.13-.7-.332-.73c-.2-.027-.8-.19-.8-.19s-.552.055-.833.253c-.283.2-1.047.216-1.022.46.025.24-.43.562-.43.562l-.282.557s.688-.426.553-.003c-.136.42-.02.59.15 1.002s.658.937.658.937.112-.31.113-.628c.002-.322.326-.884.326-.884z"/><path clip-path="url(#h)" fill="#7CC7CB" d="M305.48 37.26s-23.316 2.887-41.348-15.13c0 0-39.326-28.374-59.742-5.927 0 0-27.802 26.516-53.977 21.847v2.296l158.804.03-3.738-3.116z"/><path clip-path="url(#h)" fill="#9E9369" d="M303.964 36.163s-18.363 3.463-24.337-8.503c0 0-3.08-7.696 7-9.552 0 0 5.507-.185 6.815 3.895 0 0 .933 3.06-3.268 2.874 0 0 3.19-3.22-.543-4.24 0 0-3.207.26-3.3 2.67 0 0 1.323 5.467 6.363 3.334 0 0 2.987-.647 2.895-4.544 0 0-.876-5.616-8.004-7.4 0 0-11.154-1.715-12.387 9.273 0 0-.17 5.295 5.438 8.978 0 0-13.49-7.498-12.982-16.402 0 0 .865-6.027 5.346-7.325 0 0-5.042-2.89-8.59.17l-1.12-1.463s-6.44 4.617 0 12.78l.84 1.425s-9.427-6.527-11.855-7.547l.654 1.484-2.334-1.113s-2.24 1.483-2.054 2.597c0 0 13.92 5.194 17.975 9.924 0 0-9.948-4.175-15.828-1.95 0 0-5.6 1.208-6.255 6.494 0 0 .467 4.822 4.76 5.008 0 0 5.04-1.483 2.335-5.1 0 0-2.8-1.485-2.334 2.597 0 0-4.252-3.372 3.214-6.498 0 0 4.964-2.314 16.93 3.158 0 0 17.124 9.604 34.623 7.286v-2.31z"/><path clip-path="url(#h)" fill="#9E9369" d="M252.646 14.755s-15.81-9.692-30.525-8.24c0 0-4.223-.53-17.73 7.423 0 0-14.115 8.85-24.868 8.31 0 0-9.47 1.165-7.623-7.816 0 0 .46-3.365 7.513-2.76 0 0 2.78 1.705.434 2.732 0 0-3.15-1.76-2.932 1.908 0 0 4.685 6.996 7.277-1.08 0 0 1.433-5.087-4.56-6.367 0 0-10.44-3.21-11.406 7.34 0 0-1.5 10.473 12.186 10.04 0 0 13.923-2.276 15.835-5.617 0 0-11.622 10.898-23.786 11.655 0 0-16.078 1.616-11.62-7.987 0 0-4.458.27-3.802 5.073 0 0 0 2.698 2.168 4.423 0 0-1.09-1.023 0 0 0 0 4.872 3.425 9.888 1.512 0 0-9.26 3.158-18.68 2.12v1.81s15.875 1.564 31.12-4.344c0 0 8.116-3.1 14.123-8.38 0 0 6.862-6.006 7.324-8.147 0 0-5.973 13.814-11.73 14.354 0 0-1.63.215-3.15-.433 0 0-.006 3.452 4.995 2.59l-.54 1.943s8.79.217 11.835-10.578c0 0 2.175 6.585 9.777 4.964l-1.305-1.295s-5.21 1.294-4.45-8.525c0 0-.262-8.31 13.642-11.438 0 0 16.302-1.64 29.17 6.797l.263-.858 1.442.183-.284-1.315z"/><path clip-path="url(#h)" fill="#48883A" d="M208.166 26.422l.084.464s-1.372 1.252-1.473 1.512c-.1.256-.484.56-1.005 1.013-.52.455-1.11 1.516-1.197 1.702-.085.186-1.128.963-1.003 1.428.127.463-.548 1.088-.64 1.27-.092.185 1.006.256 1.32.047.31-.21.78-.866 1.297-.91.52-.047 1.373-1.58 1.373-1.58s.76.755 1.15.55c.39-.2.725-.214 1.06-.223.334-.01 1.358-.357 1.358-.357l1.38-.05s.866.646 1.146.598.67-.02 1.122-.195c.45-.177 1.04-.55 1.3-.916.257-.368.963-1.37.963-1.37l1.18-1.204.222-.79s-2.64.493-2.738.75c-.102.256-3.016.205-3.415-.047-.396-.254-1.316-.927-1.316-.927l1.064-1.866-1.765.062-1.467 1.04z"/><path clip-path="url(#h)" fill="#ABD076" d="M219.165 27.434s-1.41.637-1.584.764c-.175.127-1.08.362-1.24.594-.162.23-.52.853-.87 1.235-.35.384-.935.627-.935.627l.332-1.05s-.802 1.258-1 1.424c-.2.164-.612.174-1.07.356-.46.184-.992-.11-1.212-.263-.22-.153-.164-.115-.824-.168-.658-.054-1.557.29-1.905-.03-.348-.32-.854-1-1.208-.847-.356.158-.052.305.354-.154.406-.46 2.593-2.17 2.884-2.35.29-.183 1.907-.963 2.5-1.226.597-.265 2.008-.566 2.61-.21.602.353 2.425.283 2.425.283l1.94.116-1.195.9z"/><path clip-path="url(#h)" fill="#C7D764" d="M219.367 26.468s-.486.354-.824.362c-.338.007-.652-.13-1.19-.18-.538-.052-1.005-.32-1.422-.193-.418.127-.96-.152-1.732.483-.774.635-.524.862-1.443 1.175-.917.313-1.24-.273-2.198.503-.955.78-1.156 1.295-1.708 1.73-.55.43-1.116.77-1.49.837-.374.063-2.378 1.28-2.83 1.454-.45.174-1.032.42-1.146.584-.117.164 1.417-.97 1.417-.97s.994-.942.89-1.26c-.105-.32 1.09-1.2 1.233-1.758.146-.555.88-1.367 1.182-1.68.3-.312.55-.55.945-.758l1.464-.8-1.715.105-.634.317s.05-1.002.977-1.39c.928-.387 1.934-1.003 2.508-1.003.577-.002 3.08-.298 3.08-.298l2.065.797 1.498.666.937.658.7.494.97.04-1.627.448"/><path clip-path="url(#h)" fill="#48883A" d="M239.066 21.314l-.043-.468s1.474-1.132 1.597-1.382c.12-.247.53-.516 1.088-.923.556-.407 1.235-1.413 1.337-1.592.1-.178 1.207-.863 1.122-1.336-.088-.473.638-1.04.745-1.212.107-.174-.98-.34-1.31-.158-.327.185-.85.795-1.372.797-.52 0-1.503 1.457-1.503 1.457s-.693-.82-1.098-.65c-.406.17-.74.152-1.076.134-.334-.018-1.382.242-1.382.242l-1.38-.07s-.807-.717-1.09-.692c-.284.023-.67-.037-1.136.1-.463.133-1.084.457-1.37.8l-1.08 1.283-1.278 1.097-.29.77s2.672-.266 2.793-.514c.124-.246 3.024.053 3.398.34a38.216 38.216 0 0 1 1.232 1.034l-1.222 1.768 1.764.09 1.554-.914z"/><path clip-path="url(#h)" fill="#ABD076" d="M228.193 19.366s1.46-.516 1.645-.627c.187-.113 1.107-.27 1.29-.486.18-.214.586-.804.97-1.156.38-.352.984-.546.984-.546l-.42 1.02s.91-1.185 1.12-1.333c.212-.148.625-.123 1.096-.266.473-.143.98.194 1.185.367.205.173.154.128.808.24.652.11 1.578-.16 1.897.192.32.348.765 1.07 1.132.946.367-.126.075-.3-.37.124-.443.425-2.767 1.942-3.073 2.096-.305.155-1.98.798-2.596 1.007-.615.212-2.047.393-2.615-.012-.57-.405-2.393-.49-2.393-.49l-1.925-.285 1.266-.792z"/><path clip-path="url(#h)" fill="#C7D764" d="M227.91 20.31s.513-.31.853-.29c.338.02.638.187 1.17.282.53.096.974.405 1.4.313.428-.092.945.233 1.77-.334.826-.564.596-.814 1.538-1.047.94-.233 1.213.38 2.233-.312 1.02-.694 1.263-1.19 1.85-1.573.584-.385 1.178-.675 1.555-.708.378-.032 2.48-1.074 2.942-1.21.465-.134 1.067-.33 1.195-.484.13-.154-1.496.845-1.496.845s-1.07.856-.994 1.183c.078.327-1.188 1.104-1.38 1.644-.192.54-.994 1.287-1.32 1.574-.33.285-.594.497-1.008.677l-1.526.67 1.718.042.657-.264s-.132.993-1.092 1.3c-.958.308-2.01.832-2.584.784-.573-.047-3.093.036-3.093.036l-1.988-.973-1.437-.79-.877-.738-.655-.552-.963-.12 1.66-.31"/><path clip-path="url(#h)" fill="#68B554" d="M233.258 32.314c2.887-.582 5.72-1.365 6.728 2.13-1.478.266-3.007-.07-4.566.235-.465.092-1.52.137-1.824.538-.62.82.318 1.003 1.004 1.626 2.77 2.52 5.16 2.295 8.796 1.39 0-1.53-2.176-3.633-3.056-4.854-1.18-1.638-1.466-3.327-3.665-3.61-1.067-.14-3.358-.162-4.22.642-1.405 1.31.138 2.14 1.21 2.522"/><path clip-path="url(#h)" fill="#48883A" d="M240.77 34.018c-2.26-.352-5.267.663-7.51 1.203 1.885 2.41 5.31 4.92 8.61 3.862-3.555.718-5.437.894-8.3-1.64-2.235-1.974-2.33-5.384-3.64-7.964.882.832 1.69 2.122 2.953 2.294.943.127 2.58-.374 3.534-.506 2.83-.394 4.72.802 5.517 3.665-1.03.033-1.87-.508-2.877-.4"/><ellipse transform="rotate(-5.66 238.542 26.827)" clip-path="url(#h)" fill="#F8DF3B" cx="238.497" cy="26.823" rx="1.802" ry="1.621"/><ellipse transform="rotate(-5.595 240.054 27.633)" clip-path="url(#h)" fill="#DB752D" cx="239.969" cy="27.626" rx="1.387" ry="2.564"/><path clip-path="url(#h)" fill="#577EB2" d="M236.492 28.545l-1.7.274s-1.688-.617-1.28.126c.408.74 1.186 1.753 1.658 1.73.473-.022 1.517-.15 1.517-.15s1.31.824 1.293-.126c-.016-.95.206-1.483-.185-1.88-.393-.394-2.075-2.587-2.075-2.587l.96-1.434.99-1.43-1.078-.836-1.458-.64-2.296.532s-.448.26-.413 1.46c.036 1.2.26 2.645.26 2.645l1.37-.134-.132-1.326c-.093-.932.05-2.28.05-2.28l.778-.076s.4-.625.28.914c-.122 1.543.116 2.24.11 3.02-.01.78.357 1.72.357 1.72"/><path clip-path="url(#h)" fill="#40649D" d="M236.634 24.213c-.46-1.445 1.188-1.718 2.25-1.66-.198 1.812 3.142.61 2.227 2.074-.44.708-3.498.354-4.378.33-.06-.228-.115-.505-.098-.744"/><path clip-path="url(#h)" fill="#C9DAE5" d="M234.943 23.565c.157.01.302-.045.46-.03.23 1.147.722 5.63-1.023 5.27-.51-1.46-2.815-5.444.692-5.576M238.908 20.896c-.885.092-3.833.294-2.732 2.068.62.996 4.068.44 4.37-.757.1.162.293.334.38.59.218-.65.137-1.79-.713-1.867M241.418 24.88c1.824-.443 1.89 4.205 1.293 5.21-.644 1.092-3.89 2.315-5.153 1.84-.894-.337-.987-1.51.162-2.1.27-.14 1.66.215 2.24.072 2.243-.55 1.546-2.79.868-4.603.305-.225.692-.523 1.056-.63"/><path clip-path="url(#h)" fill="#577EB2" d="M241.163 22.302c1.64.41 2.118 1.322 2.527 2.78-1.783.072-2.44-.376-3.73-1.52.336-.407 1.008-.74 1.38-1.117"/><path clip-path="url(#h)" fill="#40649D" d="M238.57 20.77c-.204-2.21-6.444-1.45-6 1.387 2.277-.16 3.983-1.788 6.114-1.89M244.008 26.413c.278 2.812.7 3.804-1.613 5.205-1.423.865-3.186 1.774-4.925 1.298 1.65-1.02 3.882-.848 5.253-2.637.987-1.285-.273-4.493 1.14-5.14.05.207.055.41.082.627"/><path clip-path="url(#h)" fill="#68B554" d="M225.08 24.173c3.667-1.728 6.106.468 6.413-5.1.227-4.124-1.957-5.936-4.138-8.887-.816 2.95-1.336 3.337-3.298 5.332-2.703 2.736-1.116 3.526 2.117 5.874-.607 1.418-2.355 2.752-3.188 2.91"/><path clip-path="url(#h)" fill="#48883A" d="M226.255 23.25s.604-1.62 1.442-2.048c.836-.433 2.732-3.3 2.27-3.564-.463-.27-.915-2.907-.915-2.907l-.833-.585s-2.118 2.256-2.012 2.86c.106.608-1.903 2.376-1.903 2.376l.497 2.85 1.453 1.02z"/><path clip-path="url(#h)" fill="#E9CFD9" d="M221.002 19.227c.704-.498 1.234-1.673 2.308-1.512.348.052.51.32.822.416.465.143.94-.03 1.403.08.786.19 1.574.85 2.26 1.286.876.553 1.246.77 1.17 1.725-.064.81.192.805.995 1.012.587.15 1.46.627.552 1.207-.323.203-1.095.303-1.477.372-.626.114-.99.002-1.497-.39-.562-.437-1.014-1.038-1.626-1.398-.625-.366-1.323-.323-2.043-.346-.728-.026-1.375-.128-1.928-.64-.448-.414-.258-.637-.448-1.076-.182-.424-.547-.48-.433-.935.102-.404.708-.637 1.01-.85"/><path clip-path="url(#h)" fill="#E29AB2" d="M215.9 28.35c.567 1.828 2.05 2.124 3.734 1.986.3-.024.662-.206.968-.135.58.136 1.113.946 1.635 1.298.394.265 1.006.328 1.346.616.4.338.393.88.697 1.334.618.914 1.55 1.18 2.413 1.676-.545.2-.898.74-1.46.937-.688.245-1.336.026-1.968-.333-.877-.497-1.83-1.146-2.54-1.856-.375-.37-.618-.893-1.12-1.012-.834-.2-1.55.25-2.377-.21-.61-.34-.89-.928-1.02-1.598-.155-.81-.058-1.74-.28-2.515"/><path clip-path="url(#h)" fill="#E9CFD9" d="M217.195 25.134s-.413.585-.582.83c-.17.24-.382.418-.138.835.24.415.554.553.388.847s-.22.02-.522.745c-.303.72-.34-.042-.303.72.037.768.18 1.032.453 1.225.276.193.238.248.798.56.558.31.318.215.948.704.63.49 1.443.73 1.762.63.32-.105.394.27.714-.228.32-.497.483-.76 1.07-.158.59.604 2.362 1.662 2.362 1.662l2.525.073s.54-.272.965-.19c.425.083 2.077 1.134 2.434 1.184.356.048 1.096-.47 1.096-.47l1.2-1.13-.227-1.342s.294-.647.865-.992c.567-.345 1.22-.5 1.298-1 .08-.498.312-1.07.134-1.278-.18-.206-.47-1.043-.47-1.043l-.866-.374s-2.083.357-2.088.705c-.006.35-.28 1.933-.74 1.994-.462.057-1.22.9-1.765.977-.546.077-1.87-.023-2.845-.385-.973-.364-2.357-.752-2.83-1.294-.47-.54-2.67-1.54-2.88-1.92-.208-.38-.937-1.407-1.28-1.638-.34-.23-1.477-.248-1.477-.248z"/><path clip-path="url(#h)" fill="#CE2B3D" d="M229.176 26.26l-.584-.88-1.17-.822s-1.05-.486-1.428-.535c-.377-.045-1.045-.378-1.53-.393-.482-.01-.832.837-.832.837s1.32.572.975.685c-.344.115-1.408.047-1.633.137-.228.084-.935 1.558-.572 1.976.36.418.415 1.275.53 1.112.116-.167-.555-.145-1.032-.398-.478-.255-.514-1.02-.514-1.02l-1.32-.106s-1.014-.306-.815-.574.31-.686.648-.92c.338-.235.898-.123 1.393-.68.497-.552-.766-.458-1.173-.464-.403-.006-1.512.052-1.7.086-.186.03.277-.627.604-.858.328-.23 1.784-.287 1.784-.287s.864-.096 1.2-.362c.334-.262-.28-.514-.173-1.014.106-.5.76-.61.934-.497.175.117 1.017.64 1.432.748.418.106.306.152 1.964.007 1.66-.146.683-.502 1.044-.62.36-.115.734-.51.995-.53s-.1.958-.138 1.48c-.037.517.627.738.627.738s1.474-.465 1.963-.492c.49-.026.412.495.48.864.067.37.717.266 1.072.23.354-.042 1.26.885 1.26.885s-.272.506-.24.692c.034.187-.12.407-.334.476-.212.068-.978-.007-1.185-.296-.206-.29-.92.727-1.143 1.04-.146.21-.495.302-.717.34-.114.022-.195.027-.195.027M228.98 34.35s-.97-.6-1.097-.77c-.125-.17-.68-.898-1.168-.787-.49.112-1.29.203-1.83.153-.54-.052-1.413-.21-1.894-.572-.483-.36-.538-.434-.996-.7-.458-.263-1.34-.942-1.34-.942l-.32.5s.146.75-.305.925c-.452.175-1.248.024-1.248.024l-.55-.386 1.12.787s.358.498.858.195c.5-.306.617-.88.617-.88s1.826.73 1.878 1.003c.053.274 1.372.965 1.372.965s.387.034.55.386c.16.35 1.095.77 1.095.77l1.275.172 1.637-.348.768-.394-.42-.1z"/><path clip-path="url(#h)" fill="#DB7594" d="M233.52 26.146c.073.497.305 1.196-.324 1.27-.52.057-.69-.533-1.212-.224-.322.19-.264.633-.44.838-.146.174-.44.254-.52.354-.242.304-.093.408-.212.778-.25.768-.783.905-1.28 1.377.475.66 1.71.52 1.334 1.592-.794-.227-1.36-.937-2.108-1.22-.513-.195-1.07-.05-1.54-.34-.363-.22-.577-.713-1.025-.877-.458-.168-.736-.114-1.17-.417.653.132 1.09.428 1.73.165.454-.184.936-.56 1.318-.854.39-.302.715-.568.896-1.062.228-.628-.072-.936.75-.784.606.11.69.41 1.247-.104.266-.247.368-.712.653-.932.6-.465 1.24-.042 1.784.362-.08.098-.068.226-.123.31"/><path clip-path="url(#h)" fill="#DC5377" d="M227.845 20.924c.06-.092.095-.2.127-.31-.565-.46-1.4-1.552-2.147-.782-.233.24-.083.86-.3 1.02-.32.24-.758-.142-1.034-.32-.324-.208-.73-.69-1.146-.645-.292.028-.77.83-1.07.322-.14-.24.304-.583.244-.888-.155-.782-.936-.35-1.31-.02-.647.577-.607.928-.844 1.63-.14.422-.49.595-.418 1.105.144.997 1.018 1.214 1.563.436.456-.653.6-1.41 1.512-.923.304.165.458.534.727.677.72.383.912-.266 1.562-.464.625-.194.943.412 1.54.323.493-.07 1.046-.873 1.18-1.196M221.046 24.18c-.364.518-.775.845-1.18 1.298-.674.757-.14 1.186.6 1.58-.29.625-.617.708-1.25.86-.25.057-1.11.52-1.24.482-.645-.18.237-2.285-.04-2.822-.103-.197-.392-.3-.492-.482-.1-.182-.065-.44-.124-.627-.115-.367-.437-.857-.397-1.224.176-1.623 1.71-.857 2.297-.09-.324.478-.68.94-.924 1.454.393.475 2.684-.102 3.01-.333M223.078 32.25c1.03.716 1.857.927 2.917.26.408-.258 1.205-1.206 1.673-.627-.155.677 1.427 1.507 1.915 1.03-.76.31-.038.886.464.937.6.06 1.095-.438 1.275-.943-.394 1.397-1.865 2.084-3.075 1.173-.704-.53-1.085-1.22-1.958-1.27-.553-.034-1.13.148-1.648.13"/><path clip-path="url(#h)" fill="#ECA747" d="M228.346 25.46c1.348.876.858 1.8.26 2.99-.774 1.535-1.73 2.015-3.266.964-.418-.29-.824-.646-1.272-.88-.338-.175-.914-.212-1.153-.57-.384-.58.118-1.448.672-1.688.43-.184.588-.02.97.13.705.275 1.107.405 1.866.158.684-.218 1.394-.655 2.082-.747"/><path clip-path="url(#h)" fill="#F5EAA2" d="M224.835 24.39c-.084-.23-.48-.135-.48-.135l.045.752s-.188.207-.438.217c-.254.007-.987.064-.987.064l-.176.595.246.174.412.29s-.492.562-.167.633c.328.073 1.02-.035 1.02-.035s.603.98.777.548c.172-.433.312-1.422.603-1.453.29-.03.257-.912.257-.912l-.237-.86-.875.12z"/><path clip-path="url(#h)" fill="#F8DF3B" d="M227.075 26.36l-.567.807-1.28-.132.46-.996-.755.018.243-1.033s.13-.7.333-.73c.2-.027.797-.19.797-.19s.552.055.833.253c.283.2 1.047.216 1.022.46-.025.24.43.562.43.562l.282.557s-.687-.426-.553-.003c.135.42.02.59-.15 1.002-.167.41-.658.937-.658.937s-.112-.31-.113-.628c-.002-.322-.325-.884-.325-.884z"/><path clip-path="url(#h)" fill="#45362A" d="M302.673 4.13h303.044v37.572H302.673z"/><path clip-path="url(#h)" fill="#7CC7CB" d="M302.673 44.263h303.044v5.61H302.673z"/><path clip-path="url(#h)" fill="#9E9369" d="M302.673 44.263h5.61v5.61h-5.61zM313.896 44.263h5.612v5.61h-5.612zM325.12 44.263h5.613v5.61h-5.613zM336.345 44.263h5.61v5.61h-5.61zM347.57 44.263h5.61v5.61h-5.61zM358.792 44.263h5.613v5.61h-5.613zM370.016 44.263h5.612v5.61h-5.612zM381.24 44.263h5.612v5.61h-5.61zM392.464 44.263h5.61v5.61h-5.61zM403.688 44.263h5.61v5.61h-5.61zM414.913 44.263h5.612v5.61h-5.612zM426.135 44.263h5.613v5.61h-5.613zM437.36 44.263h5.61v5.61h-5.61zM448.583 44.263h5.612v5.61h-5.612zM459.807 44.263h5.61v5.61h-5.61zM471.03 44.263h5.613v5.61h-5.612zM482.254 44.263h5.613v5.61h-5.613zM493.48 44.263h5.61v5.61h-5.61zM504.702 44.263h5.613v5.61h-5.613zM515.926 44.263h5.613v5.61h-5.614zM527.15 44.263h5.613v5.61h-5.612zM538.375 44.263h5.61v5.61h-5.61zM549.598 44.263h5.61v5.61h-5.61zM560.823 44.263h5.61v5.61h-5.61zM572.046 44.263h5.612v5.61h-5.612zM583.27 44.263h5.61v5.61h-5.61zM594.495 44.263h5.61v5.61h-5.61z"/><path clip-path="url(#h)" fill="#7CC7CB" d="M302.673-.79h303.044V4.7H302.673zM302.673 37.07s20.417 3.076 38.448-14.94c0 0 39.326-28.374 59.742-5.927 0 0 27.8 26.516 53.978 21.847v2.296l-152.167.03v-3.307z"/><path clip-path="url(#h)" fill="#9E9369" d="M302.673 35.946s16.98 3.68 22.952-8.286c0 0 3.082-7.696-7-9.552 0 0-5.508-.185-6.814 3.895 0 0-.932 3.06 3.27 2.874 0 0-3.19-3.22.542-4.24 0 0 3.207.26 3.3 2.67 0 0-1.324 5.467-6.365 3.334 0 0-2.985-.647-2.893-4.544 0 0 .878-5.616 8.005-7.4 0 0 11.15-1.715 12.385 9.273 0 0 .17 5.295-5.44 8.978 0 0 13.492-7.498 12.984-16.402 0 0-.866-6.027-5.347-7.325 0 0 5.042-2.89 8.588.17l1.12-1.463s6.442 4.617 0 12.78l-.838 1.425s9.428-6.527 11.855-7.547l-.654 1.484 2.333-1.113s2.24 1.483 2.054 2.597c0 0-13.92 5.194-17.974 9.924 0 0 9.946-4.175 15.826-1.95 0 0 5.6 1.208 6.255 6.494 0 0-.466 4.822-4.762 5.008 0 0-5.04-1.483-2.332-5.1 0 0 2.8-1.485 2.332 2.597 0 0 4.254-3.372-3.213-6.498 0 0-4.965-2.314-16.93 3.158 0 0-15.74 9.455-33.24 7.137v-2.38z"/><path clip-path="url(#h)" fill="#9E9369" d="M352.608 14.755s15.81-9.692 30.523-8.24c0 0 4.227-.53 17.732 7.423 0 0 14.115 8.85 24.87 8.31 0 0 9.47 1.165 7.622-7.816 0 0-.463-3.365-7.515-2.76 0 0-2.782 1.705-.435 2.732 0 0 3.15-1.76 2.932 1.908 0 0-4.684 6.996-7.276-1.08 0 0-1.434-5.087 4.562-6.367 0 0 10.438-3.21 11.403 7.34 0 0 1.5 10.473-12.185 10.04 0 0-13.924-2.276-15.836-5.617 0 0 11.62 10.898 23.786 11.655 0 0 16.08 1.616 11.62-7.987 0 0 4.46.27 3.803 5.073 0 0 0 2.698-2.167 4.423 0 0 1.09-1.023 0 0 0 0-4.872 3.425-9.89 1.512 0 0 9.262 3.158 18.683 2.12v1.81s-15.877 1.564-31.12-4.344c0 0-8.118-3.1-14.125-8.38 0 0-6.863-6.006-7.324-8.147 0 0 5.977 13.814 11.73 14.354 0 0 1.63.215 3.15-.433 0 0 .007 3.452-4.993 2.59l.54 1.943s-8.79.217-11.836-10.578c0 0-2.173 6.585-9.777 4.964l1.307-1.295s5.21 1.294 4.45-8.525c0 0 .262-8.31-13.644-11.438 0 0-16.3-1.64-29.168 6.797l-.264-.858-1.443.183.288-1.315z"/><circle clip-path="url(#h)" fill="#9E9369" cx="454.196" cy="14.936" r="9.342"/><path clip-path="url(#h)" fill="#ECA747" d="M451.136 12.64c-1.944 1.268-1.237 2.598-.372 4.313 1.116 2.215 2.49 2.908 4.707 1.39.605-.416 1.19-.933 1.836-1.268.488-.253 1.317-.305 1.662-.822.554-.834-.172-2.087-.97-2.434-.62-.268-.846-.03-1.398.185-1.017.398-1.596.584-2.688.23-.987-.316-2.013-.944-3.005-1.078"/><path clip-path="url(#h)" fill="#F5EAA2" d="M456.2 11.1c.123-.332.692-.196.692-.196l-.064 1.086s.27.3.633.31c.364.012 1.425.094 1.425.094l.25.858-.354.25-.593.42s.708.807.24.913c-.47.104-1.468-.053-1.468-.053s-.87 1.416-1.122.79c-.248-.622-.45-2.05-.868-2.094-.418-.042-.372-1.315-.372-1.315l.345-1.24 1.258.176z"/><path clip-path="url(#h)" fill="#F8DF3B" d="M452.97 13.942l.817 1.16 1.848-.187-.666-1.438 1.09.028-.352-1.49s-.188-1.012-.48-1.053c-.287-.04-1.15-.276-1.15-.276s-.797.08-1.204.367c-.406.288-1.508.31-1.472.66.037.35-.62.81-.62.81l-.406.803s.99-.613.8-.003c-.194.608-.027.852.216 1.446s.95 1.348.95 1.348.16-.447.16-.906c0-.46.468-1.27.468-1.27z"/><path clip-path="url(#h)" fill="#48883A" d="M397.088 26.422l-.084.464s1.37 1.252 1.472 1.512c.1.256.484.56 1.006 1.013.52.455 1.11 1.516 1.195 1.702.085.186 1.13.963 1.005 1.428-.127.463.547 1.088.637 1.27.093.185-1.005.256-1.317.047-.312-.21-.78-.866-1.3-.91-.52-.047-1.373-1.58-1.373-1.58s-.76.755-1.15.55c-.39-.2-.724-.214-1.06-.223-.334-.01-1.357-.357-1.357-.357l-1.38-.05s-.865.646-1.146.598-.67-.02-1.122-.195c-.45-.177-1.04-.55-1.3-.916l-.962-1.37-1.18-1.204-.223-.79s2.64.493 2.738.75c.1.256 3.015.205 3.414-.047a40.326 40.326 0 0 0 1.316-.927l-1.066-1.866 1.765.062 1.47 1.04z"/><path clip-path="url(#h)" fill="#ABD076" d="M386.087 27.434s1.41.637 1.586.764c.175.127 1.08.362 1.24.594.163.23.517.853.87 1.235.35.384.933.627.933.627l-.33-1.05s.802 1.258 1 1.424c.2.164.612.174 1.07.356.46.184.992-.11 1.212-.263.22-.153.165-.115.825-.168.657-.054 1.558.29 1.905-.03.35-.32.853-1 1.21-.847.353.158.05.305-.357-.154-.403-.46-2.59-2.17-2.882-2.35-.29-.183-1.905-.963-2.5-1.226-.596-.265-2.008-.566-2.608-.21-.604.353-2.427.283-2.427.283l-1.94.116 1.194.9z"/><path clip-path="url(#h)" fill="#C7D764" d="M385.886 26.468s.486.354.825.362c.34.007.65-.13 1.19-.18.538-.052 1.006-.32 1.424-.193.417.127.958-.152 1.732.483.773.635.525.862 1.443 1.175.915.313 1.238-.273 2.197.503.956.78 1.155 1.295 1.707 1.73.55.43 1.116.77 1.49.837.372.063 2.376 1.28 2.826 1.454.453.174 1.034.42 1.15.584.115.164-1.42-.97-1.42-.97s-.99-.942-.886-1.26c.103-.32-1.093-1.2-1.235-1.758-.147-.555-.88-1.367-1.183-1.68-.303-.312-.55-.55-.944-.758l-1.466-.8 1.714.105.637.317s-.05-1.002-.978-1.39c-.93-.387-1.935-1.003-2.51-1.003-.576-.002-3.08-.298-3.08-.298l-2.063.797-1.498.666-.938.658-.7.494-.97.04 1.626.448"/><path clip-path="url(#h)" fill="#48883A" d="M366.188 21.314l.04-.468s-1.472-1.132-1.595-1.382c-.12-.247-.53-.516-1.088-.923-.556-.407-1.235-1.413-1.34-1.592-.1-.178-1.205-.863-1.12-1.336.09-.473-.637-1.04-.744-1.212-.107-.174.98-.34 1.31-.158.328.185.852.795 1.373.797.52 0 1.503 1.457 1.503 1.457s.692-.82 1.098-.65c.404.17.74.152 1.077.134.333-.018 1.384.242 1.384.242l1.378-.07s.808-.717 1.092-.692c.284.023.67-.037 1.134.1.464.133 1.084.457 1.372.8l1.08 1.283 1.275 1.097.29.77s-2.67-.266-2.792-.514c-.123-.246-3.023.053-3.396.34a37.1 37.1 0 0 0-1.232 1.034l1.22 1.768-1.762.09-1.555-.914z"/><path clip-path="url(#h)" fill="#ABD076" d="M377.06 19.366s-1.46-.516-1.645-.627c-.185-.113-1.106-.27-1.288-.486-.182-.214-.59-.804-.97-1.156-.382-.352-.985-.546-.985-.546l.42 1.02s-.907-1.185-1.122-1.333c-.21-.148-.622-.123-1.094-.266-.474-.143-.98.194-1.185.367-.203.173-.153.128-.806.24-.653.11-1.577-.16-1.896.192-.322.348-.767 1.07-1.133.946-.367-.126-.077-.3.366.124.444.425 2.768 1.942 3.076 2.096.305.155 1.98.798 2.598 1.007.613.212 2.047.393 2.616-.012.568-.405 2.392-.49 2.392-.49l1.925-.285-1.266-.792z"/><path clip-path="url(#h)" fill="#C7D764" d="M377.34 20.31s-.512-.31-.85-.29c-.337.02-.64.187-1.17.282s-.975.405-1.403.313c-.425-.092-.942.233-1.768-.334-.826-.564-.596-.814-1.538-1.047-.94-.233-1.213.38-2.23-.312-1.02-.694-1.265-1.19-1.853-1.573-.584-.385-1.18-.675-1.555-.708-.377-.032-2.478-1.074-2.942-1.21-.464-.134-1.065-.33-1.194-.484-.132-.154 1.494.845 1.494.845s1.07.856.992 1.183c-.076.327 1.19 1.104 1.38 1.644.193.54.995 1.287 1.32 1.574.33.285.596.497 1.008.677.413.18 1.527.67 1.527.67l-1.717.042-.656-.264s.132.993 1.09 1.3c.96.308 2.013.832 2.587.784.572-.047 3.094.036 3.094.036l1.987-.973 1.436-.79.878-.738.655-.552.965-.12-1.662-.31"/><path clip-path="url(#h)" fill="#68B554" d="M371.996 32.314c-2.888-.582-5.72-1.365-6.73 2.13 1.48.266 3.01-.07 4.568.235.465.092 1.52.137 1.824.538.618.82-.317 1.003-1.003 1.626-2.772 2.52-5.162 2.295-8.797 1.39 0-1.53 2.176-3.633 3.055-4.854 1.18-1.638 1.466-3.327 3.666-3.61 1.065-.14 3.357-.162 4.218.642 1.407 1.31-.136 2.14-1.207 2.522"/><path clip-path="url(#h)" fill="#48883A" d="M364.485 34.018c2.258-.352 5.265.663 7.51 1.203-1.886 2.41-5.31 4.92-8.61 3.862 3.554.718 5.435.894 8.3-1.64 2.233-1.974 2.33-5.384 3.64-7.964-.882.832-1.69 2.122-2.952 2.294-.944.127-2.582-.374-3.535-.506-2.83-.394-4.72.802-5.515 3.665 1.028.033 1.867-.508 2.875-.4"/><ellipse transform="rotate(-174.34 366.764 26.832)" clip-path="url(#h)" fill="#F8DF3B" cx="366.755" cy="26.823" rx="1.802" ry="1.621"/><path clip-path="url(#h)" fill="#DB752D" d="M363.903 27.49c-.14 1.41.367 2.61 1.128 2.688.765.075 1.494-1.005 1.635-2.416.137-1.408-.366-2.612-1.13-2.686-.762-.076-1.493 1.004-1.632 2.415z"/><path clip-path="url(#h)" fill="#577EB2" d="M368.762 28.545l1.698.274s1.69-.617 1.282.126c-.41.74-1.187 1.753-1.66 1.73-.473-.022-1.517-.15-1.517-.15s-1.31.824-1.294-.126c.02-.95-.204-1.483.19-1.88.39-.394 2.072-2.587 2.072-2.587l-.96-1.434-.99-1.43 1.077-.836 1.46-.64 2.295.532s.447.26.413 1.46c-.036 1.2-.262 2.645-.262 2.645l-1.368-.134.132-1.326c.093-.932-.052-2.28-.052-2.28l-.776-.076s-.398-.625-.28.914c.123 1.543-.115 2.24-.108 3.02.01.78-.356 1.72-.356 1.72"/><path clip-path="url(#h)" fill="#40649D" d="M368.62 24.213c.46-1.445-1.188-1.718-2.25-1.66.198 1.812-3.144.61-2.228 2.074.44.708 3.5.354 4.38.33.06-.228.114-.505.1-.744"/><path clip-path="url(#h)" fill="#C9DAE5" d="M370.31 23.565c-.157.01-.3-.045-.46-.03-.23 1.147-.722 5.63 1.024 5.27.508-1.46 2.812-5.444-.693-5.576M366.344 20.896c.887.092 3.833.294 2.73 2.068-.62.996-4.067.44-4.367-.757-.102.162-.294.334-.38.59-.22-.65-.138-1.79.712-1.867M363.835 24.88c-1.823-.443-1.89 4.205-1.294 5.21.644 1.092 3.893 2.315 5.154 1.84.894-.337.987-1.51-.162-2.1-.27-.14-1.663.215-2.24.072-2.243-.55-1.548-2.79-.87-4.603-.305-.225-.69-.523-1.055-.63"/><path clip-path="url(#h)" fill="#577EB2" d="M364.09 22.302c-1.64.41-2.12 1.322-2.527 2.78 1.784.072 2.44-.376 3.73-1.52-.336-.407-1.008-.74-1.38-1.117"/><path clip-path="url(#h)" fill="#40649D" d="M366.682 20.77c.204-2.21 6.444-1.45 6 1.387-2.277-.16-3.982-1.788-6.113-1.89M361.245 26.413c-.277 2.812-.7 3.804 1.613 5.205 1.424.865 3.184 1.774 4.926 1.298-1.65-1.02-3.883-.848-5.255-2.637-.987-1.285.272-4.493-1.14-5.14-.052.207-.057.41-.082.627"/><path clip-path="url(#h)" fill="#68B554" d="M380.173 24.173c-3.668-1.728-6.105.468-6.413-5.1-.226-4.124 1.957-5.936 4.14-8.887.814 2.95 1.335 3.337 3.297 5.332 2.702 2.736 1.116 3.526-2.115 5.874.605 1.418 2.354 2.752 3.185 2.91"/><path clip-path="url(#h)" fill="#48883A" d="M378.998 23.25s-.604-1.62-1.44-2.048c-.837-.433-2.732-3.3-2.27-3.564.464-.27.914-2.907.914-2.907l.832-.585s2.116 2.256 2.01 2.86c-.103.608 1.904 2.376 1.904 2.376l-.496 2.85-1.454 1.02z"/><path clip-path="url(#h)" fill="#E9CFD9" d="M384.25 19.227c-.703-.498-1.233-1.673-2.307-1.512-.35.052-.51.32-.825.416-.462.143-.938-.03-1.4.08-.786.19-1.576.85-2.262 1.286-.874.553-1.246.77-1.17 1.725.064.81-.19.805-.993 1.012-.59.15-1.46.627-.552 1.207.322.203 1.095.303 1.477.372.626.114.99.002 1.498-.39.562-.437 1.014-1.038 1.626-1.398.626-.366 1.324-.323 2.042-.346.73-.026 1.373-.128 1.93-.64.445-.414.256-.637.445-1.076.183-.424.55-.48.434-.935-.1-.404-.705-.637-1.006-.85"/><path clip-path="url(#h)" fill="#E29AB2" d="M389.352 28.35c-.565 1.828-2.05 2.124-3.732 1.986-.3-.024-.662-.206-.968-.135-.58.136-1.114.946-1.637 1.298-.394.265-1.005.328-1.347.616-.4.338-.392.88-.697 1.334-.616.914-1.55 1.18-2.41 1.676.545.2.896.74 1.458.937.69.245 1.338.026 1.97-.333.876-.497 1.83-1.146 2.54-1.856.374-.37.615-.893 1.12-1.012.832-.2 1.55.25 2.375-.21.61-.34.89-.928 1.02-1.598.156-.81.058-1.74.278-2.515"/><path clip-path="url(#h)" fill="#E9CFD9" d="M388.057 25.134s.414.585.583.83c.17.24.383.418.14.835-.243.415-.556.553-.39.847.167.294.22.02.523.745.304.72.34-.042.304.72-.035.768-.18 1.032-.453 1.225-.273.193-.237.248-.797.56-.56.31-.317.215-.947.704-.63.49-1.445.73-1.764.63-.318-.105-.394.27-.713-.228-.32-.497-.485-.76-1.073-.158-.59.604-2.36 1.662-2.36 1.662l-2.525.073s-.542-.272-.967-.19c-.424.083-2.077 1.134-2.434 1.184-.357.048-1.098-.47-1.098-.47l-1.2-1.13.228-1.342s-.295-.647-.865-.992c-.57-.345-1.222-.5-1.3-1-.08-.498-.312-1.07-.135-1.278.18-.206.47-1.043.47-1.043l.866-.374s2.086.357 2.09.705c.007.35.28 1.933.74 1.994.463.057 1.22.9 1.766.977.547.077 1.87-.023 2.846-.385.973-.364 2.356-.752 2.828-1.294.473-.54 2.67-1.54 2.88-1.92.21-.38.937-1.407 1.28-1.638.34-.23 1.477-.248 1.477-.248z"/><path clip-path="url(#h)" fill="#CE2B3D" d="M376.077 26.26l.583-.88 1.17-.822s1.052-.486 1.43-.535c.377-.045 1.046-.378 1.53-.393.48-.01.833.837.833.837s-1.32.572-.977.685c.346.115 1.408.047 1.633.137.227.084.934 1.558.57 1.976-.36.418-.415 1.275-.53 1.112-.114-.167.556-.145 1.032-.398.48-.255.515-1.02.515-1.02l1.317-.106s1.016-.306.817-.574-.308-.686-.645-.92c-.34-.235-.898-.123-1.395-.68-.493-.552.767-.458 1.174-.464.404-.006 1.513.052 1.7.086.187.03-.277-.627-.603-.858-.326-.23-1.782-.287-1.782-.287s-.864-.096-1.2-.362c-.334-.262.277-.514.175-1.014-.108-.5-.764-.61-.935-.497-.176.117-1.02.64-1.434.748-.417.106-.305.152-1.964.007s-.683-.502-1.044-.62c-.36-.115-.732-.51-.996-.53-.26-.02.1.958.14 1.48.035.517-.63.738-.63.738s-1.472-.465-1.962-.492c-.49-.026-.413.495-.48.864-.068.37-.717.266-1.07.23-.355-.042-1.263.885-1.263.885s.272.506.242.692c-.035.187.12.407.334.476.212.068.98-.007 1.187-.296.205-.29.92.727 1.143 1.04.147.21.494.302.717.34.114.022.195.027.195.027M376.273 34.35s.97-.6 1.097-.77c.125-.17.68-.898 1.17-.787.487.112 1.29.203 1.83.153.537-.052 1.41-.21 1.893-.572.483-.36.537-.434.996-.7.46-.263 1.34-.942 1.34-.942l.322.5s-.15.75.304.925c.45.175 1.247.024 1.247.024l.55-.386-1.12.787s-.358.498-.858.195c-.5-.306-.617-.88-.617-.88s-1.825.73-1.88 1.003c-.05.274-1.37.965-1.37.965s-.385.034-.548.386c-.165.35-1.097.77-1.097.77l-1.274.172-1.64-.348-.768-.394.42-.1z"/><path clip-path="url(#h)" fill="#DB7594" d="M371.732 26.146c-.07.497-.305 1.196.325 1.27.52.057.69-.533 1.21-.224.324.19.267.633.44.838.146.174.442.254.523.354.242.304.093.408.212.778.248.768.782.905 1.278 1.377-.474.66-1.71.52-1.334 1.592.795-.227 1.36-.937 2.11-1.22.51-.195 1.07-.05 1.538-.34.363-.22.58-.713 1.025-.877.456-.168.735-.114 1.168-.417-.652.132-1.09.428-1.728.165-.455-.184-.936-.56-1.32-.854-.386-.302-.713-.568-.893-1.062-.23-.628.07-.936-.75-.784-.605.11-.69.41-1.246-.104-.266-.247-.367-.712-.652-.932-.6-.465-1.24-.042-1.784.362.08.098.068.226.124.31"/><path clip-path="url(#h)" fill="#DC5377" d="M377.41 20.924c-.06-.092-.096-.2-.13-.31.566-.46 1.4-1.552 2.148-.782.233.24.083.86.297 1.02.322.24.76-.142 1.037-.32.325-.208.732-.69 1.147-.645.29.028.768.83 1.068.322.142-.24-.305-.583-.244-.888.154-.782.936-.35 1.31-.02.648.577.607.928.845 1.63.14.422.49.595.416 1.105-.144.997-1.017 1.214-1.562.436-.457-.653-.6-1.41-1.514-.923-.303.165-.457.534-.726.677-.72.383-.914-.266-1.563-.464-.625-.194-.942.412-1.54.323-.492-.07-1.044-.873-1.178-1.196M384.207 24.18c.364.518.774.845 1.18 1.298.674.757.14 1.186-.6 1.58.29.625.617.708 1.25.86.25.057 1.11.52 1.24.482.646-.18-.238-2.285.04-2.822.104-.197.392-.3.492-.482.1-.182.064-.44.12-.627.118-.367.44-.857.4-1.224-.175-1.623-1.71-.857-2.296-.09.324.478.677.94.924 1.454-.394.475-2.685-.102-3.01-.333M382.174 32.25c-1.027.716-1.857.927-2.917.26-.408-.258-1.204-1.206-1.672-.627.154.677-1.43 1.507-1.917 1.03.76.31.038.886-.463.937-.6.06-1.094-.438-1.275-.943.394 1.397 1.864 2.084 3.075 1.173.705-.53 1.085-1.22 1.958-1.27.553-.034 1.13.148 1.646.13"/><path clip-path="url(#h)" fill="#ECA747" d="M376.907 25.46c-1.35.876-.858 1.8-.26 2.99.774 1.535 1.73 2.015 3.266.964.418-.29.824-.646 1.272-.88.34-.175.913-.212 1.153-.57.383-.58-.117-1.448-.673-1.688-.432-.184-.59-.02-.97.13-.705.275-1.106.405-1.864.158-.685-.218-1.395-.655-2.083-.747"/><path clip-path="url(#h)" fill="#F5EAA2" d="M380.418 24.39c.085-.23.48-.135.48-.135l-.046.752s.188.207.44.217c.253.007.985.064.985.064l.176.595-.247.174-.41.29s.49.562.164.633c-.324.073-1.016-.035-1.016-.035s-.605.98-.78.548c-.17-.433-.31-1.422-.6-1.453-.292-.03-.26-.912-.26-.912l.24-.86.874.12z"/><path clip-path="url(#h)" fill="#F8DF3B" d="M378.178 26.36l.566.807 1.28-.132-.46-.996.756.018-.243-1.033s-.13-.7-.332-.73c-.2-.027-.8-.19-.8-.19s-.552.055-.834.253c-.28.2-1.044.216-1.02.46.025.24-.432.562-.432.562l-.28.557s.688-.426.555-.003c-.135.42-.02.59.15 1.002.168.41.658.937.658.937s.113-.31.113-.628c.002-.322.325-.884.325-.884z"/><path clip-path="url(#h)" fill="#7CC7CB" d="M605.392 37.07s-20.416 3.076-38.446-14.94c0 0-39.327-28.374-59.742-5.927 0 0-27.803 26.516-53.978 21.847v2.296l152.166.03v-3.307z"/><path clip-path="url(#h)" fill="#9E9369" d="M605.392 35.946s-16.978 3.68-22.95-8.286c0 0-3.083-7.696 7-9.552 0 0 5.506-.185 6.813 3.895 0 0 .934 3.06-3.267 2.874 0 0 3.188-3.22-.546-4.24 0 0-3.205.26-3.3 2.67 0 0 1.323 5.467 6.365 3.334 0 0 2.987-.647 2.895-4.544 0 0-.877-5.616-8.005-7.4 0 0-11.153-1.715-12.387 9.273 0 0-.17 5.295 5.44 8.978 0 0-13.49-7.498-12.983-16.402 0 0 .865-6.027 5.346-7.325 0 0-5.043-2.89-8.59.17l-1.12-1.463s-6.44 4.617 0 12.78l.842 1.425s-9.43-6.527-11.857-7.547l.654 1.484-2.332-1.113s-2.242 1.483-2.054 2.597c0 0 13.918 5.194 17.973 9.924 0 0-9.947-4.175-15.828-1.95 0 0-5.6 1.208-6.254 6.494 0 0 .467 4.822 4.76 5.008 0 0 5.042-1.483 2.334-5.1 0 0-2.8-1.485-2.333 2.597 0 0-4.254-3.372 3.214-6.498 0 0 4.965-2.314 16.93 3.158 0 0 15.74 9.455 33.238 7.137v-2.38z"/><path clip-path="url(#h)" fill="#9E9369" d="M555.46 14.755s-15.81-9.692-30.526-8.24c0 0-4.224-.53-17.73 7.423 0 0-14.117 8.85-24.87 8.31 0 0-9.47 1.165-7.622-7.816 0 0 .462-3.365 7.514-2.76 0 0 2.78 1.705.435 2.732 0 0-3.15-1.76-2.932 1.908 0 0 4.686 6.996 7.277-1.08 0 0 1.434-5.087-4.562-6.367 0 0-10.438-3.21-11.403 7.34 0 0-1.5 10.473 12.186 10.04 0 0 13.923-2.276 15.835-5.617 0 0-11.62 10.898-23.785 11.655 0 0-16.08 1.616-11.62-7.987 0 0-4.46.27-3.802 5.073 0 0 0 2.698 2.167 4.423 0 0-1.09-1.023 0 0 0 0 4.873 3.425 9.89 1.512 0 0-9.263 3.158-18.683 2.12v1.81s15.877 1.564 31.12-4.344c0 0 8.117-3.1 14.123-8.38 0 0 6.863-6.006 7.325-8.147 0 0-5.975 13.814-11.73 14.354 0 0-1.63.215-3.15-.433 0 0-.006 3.452 4.994 2.59l-.542 1.943s8.792.217 11.837-10.578c0 0 2.175 6.585 9.776 4.964l-1.305-1.295s-5.21 1.294-4.45-8.525c0 0-.262-8.31 13.642-11.438 0 0 16.302-1.64 29.17 6.797l.266-.858 1.44.183-.284-1.315z"/><path clip-path="url(#h)" fill="#48883A" d="M510.978 26.422l.084.464s-1.372 1.252-1.473 1.512c-.1.256-.485.56-1.006 1.013-.52.455-1.11 1.516-1.197 1.702-.085.186-1.127.963-1.002 1.428.127.463-.548 1.088-.64 1.27-.094.185 1.007.256 1.318.047.31-.21.78-.866 1.298-.91.52-.047 1.376-1.58 1.376-1.58s.758.755 1.148.55c.39-.2.725-.214 1.062-.223.334-.01 1.358-.357 1.358-.357l1.377-.05s.87.646 1.148.598c.28-.05.67-.02 1.123-.195.45-.177 1.04-.55 1.298-.916l.965-1.37 1.18-1.204.22-.79s-2.638.493-2.734.75c-.105.256-3.02.205-3.418-.047-.394-.254-1.314-.927-1.314-.927l1.065-1.866-1.766.062-1.47 1.04z"/><path clip-path="url(#h)" fill="#ABD076" d="M521.978 27.434s-1.41.637-1.585.764-1.08.362-1.242.594c-.16.23-.517.853-.867 1.235-.35.384-.935.627-.935.627l.33-1.05s-.802 1.258-1 1.424c-.2.164-.612.174-1.07.356-.458.184-.99-.11-1.21-.263-.22-.153-.164-.115-.824-.168-.66-.054-1.56.29-1.907-.03-.35-.32-.854-1-1.21-.847-.354.158-.05.305.356-.154.405-.46 2.592-2.17 2.884-2.35.29-.183 1.906-.963 2.5-1.226.597-.265 2.008-.566 2.61-.21.602.353 2.424.283 2.424.283l1.943.116-1.195.9z"/><path clip-path="url(#h)" fill="#C7D764" d="M522.178 26.468s-.486.354-.823.362c-.336.007-.65-.13-1.19-.18-.537-.052-1.004-.32-1.422-.193-.42.127-.96-.152-1.734.483s-.525.862-1.442 1.175c-.918.313-1.24-.273-2.198.503-.956.78-1.156 1.295-1.708 1.73-.548.43-1.114.77-1.488.837-.373.063-2.377 1.28-2.83 1.454-.448.174-1.032.42-1.147.584-.116.164 1.418-.97 1.418-.97s.993-.942.888-1.26c-.104-.32 1.092-1.2 1.234-1.758.146-.555.883-1.367 1.182-1.68.3-.312.55-.55.945-.758l1.464-.8-1.716.105-.634.317s.05-1.002.977-1.39c.93-.387 1.935-1.003 2.508-1.003.577-.002 3.08-.298 3.08-.298l2.065.797 1.498.666.936.658.7.494.97.04-1.626.448"/><path clip-path="url(#h)" fill="#48883A" d="M541.878 21.314l-.043-.468s1.475-1.132 1.597-1.382c.12-.247.53-.516 1.09-.923.555-.407 1.234-1.413 1.337-1.592.098-.178 1.204-.863 1.12-1.336-.088-.473.638-1.04.744-1.212.107-.174-.98-.34-1.31-.158-.328.185-.85.795-1.37.797-.523 0-1.505 1.457-1.505 1.457s-.693-.82-1.1-.65c-.405.17-.74.152-1.075.134-.334-.018-1.383.242-1.383.242l-1.378-.07s-.81-.717-1.093-.692c-.28.023-.668-.037-1.134.1-.464.133-1.083.457-1.37.8l-1.078 1.283-1.278 1.097-.29.77s2.673-.266 2.792-.514c.122-.246 3.023.053 3.396.34a38.97 38.97 0 0 1 1.234 1.034l-1.223 1.768 1.764.09 1.554-.914z"/><path clip-path="url(#h)" fill="#ABD076" d="M531.005 19.366s1.46-.516 1.646-.627c.187-.113 1.108-.27 1.288-.486.182-.214.59-.804.972-1.156.38-.352.984-.546.984-.546l-.418 1.02s.905-1.185 1.12-1.333c.21-.148.622-.123 1.094-.266.473-.143.98.194 1.184.367.206.173.154.128.81.24.65.11 1.575-.16 1.895.192.32.348.764 1.07 1.13.946.37-.126.077-.3-.366.124-.444.425-2.77 1.942-3.074 2.096-.305.155-1.98.798-2.597 1.007-.615.212-2.047.393-2.616-.012-.57-.405-2.393-.49-2.393-.49l-1.926-.285 1.267-.792z"/><path clip-path="url(#h)" fill="#C7D764" d="M530.723 20.31s.513-.31.854-.29c.336.02.637.187 1.17.282.53.096.972.405 1.4.313.426-.092.943.233 1.768-.334.826-.564.597-.814 1.537-1.047.94-.233 1.214.38 2.233-.312 1.02-.694 1.263-1.19 1.85-1.573.584-.385 1.178-.675 1.555-.708.378-.032 2.48-1.074 2.942-1.21.466-.134 1.066-.33 1.194-.484.132-.154-1.497.845-1.497.845s-1.068.856-.99 1.183c.077.327-1.19 1.104-1.38 1.644-.193.54-.996 1.287-1.322 1.574-.327.285-.593.497-1.007.677l-1.525.67 1.718.042.656-.264s-.133.993-1.093 1.3c-.96.308-2.01.832-2.585.784-.574-.047-3.093.036-3.093.036l-1.99-.973-1.436-.79-.877-.738-.655-.552-.964-.12 1.66-.31"/><path clip-path="url(#h)" fill="#68B554" d="M536.07 32.314c2.888-.582 5.72-1.365 6.73 2.13-1.48.266-3.008-.07-4.567.235-.465.092-1.52.137-1.823.538-.62.82.317 1.003 1.004 1.626 2.77 2.52 5.16 2.295 8.796 1.39 0-1.53-2.177-3.633-3.057-4.854-1.177-1.638-1.466-3.327-3.664-3.61-1.07-.14-3.358-.162-4.22.642-1.407 1.31.136 2.14 1.208 2.522"/><path clip-path="url(#h)" fill="#48883A" d="M543.582 34.018c-2.26-.352-5.267.663-7.51 1.203 1.885 2.41 5.31 4.92 8.61 3.862-3.556.718-5.438.894-8.3-1.64-2.235-1.974-2.328-5.384-3.642-7.964.882.832 1.69 2.122 2.955 2.294.942.127 2.58-.374 3.532-.506 2.832-.394 4.72.802 5.518 3.665-1.03.033-1.87-.508-2.877-.4"/><ellipse transform="rotate(-5.66 541.56 26.825)" clip-path="url(#h)" fill="#F8DF3B" cx="541.31" cy="26.823" rx="1.802" ry="1.621"/><ellipse transform="rotate(-5.6 542.508 27.628)" clip-path="url(#h)" fill="#DB752D" cx="542.783" cy="27.626" rx="1.386" ry="2.564"/><path clip-path="url(#h)" fill="#577EB2" d="M539.304 28.545l-1.698.274s-1.69-.617-1.283.126c.41.74 1.188 1.753 1.66 1.73.472-.022 1.517-.15 1.517-.15s1.31.824 1.293-.126c-.016-.95.206-1.483-.186-1.88-.393-.394-2.075-2.587-2.075-2.587l.96-1.434.992-1.43-1.08-.836-1.46-.64-2.294.532s-.448.26-.412 1.46c.035 1.2.26 2.645.26 2.645l1.368-.134-.13-1.326c-.092-.932.05-2.28.05-2.28l.778-.076s.398-.625.278.914c-.12 1.543.115 2.24.11 3.02-.01.78.356 1.72.356 1.72"/><path clip-path="url(#h)" fill="#40649D" d="M539.446 24.213c-.46-1.445 1.19-1.718 2.252-1.66-.2 1.812 3.14.61 2.226 2.074-.44.708-3.5.354-4.38.33-.06-.228-.116-.505-.098-.744"/><path clip-path="url(#h)" fill="#C9DAE5" d="M537.754 23.565c.16.01.303-.045.46-.03.232 1.147.723 5.63-1.02 5.27-.51-1.46-2.815-5.444.69-5.576M541.72 20.896c-.885.092-3.834.294-2.73 2.068.62.996 4.067.44 4.37-.757.1.162.292.334.38.59.22-.65.136-1.79-.714-1.867M544.23 24.88c1.825-.443 1.89 4.205 1.294 5.21-.644 1.092-3.892 2.315-5.153 1.84-.893-.337-.986-1.51.163-2.1.27-.14 1.66.215 2.24.072 2.243-.55 1.547-2.79.87-4.603.303-.225.69-.523 1.056-.63"/><path clip-path="url(#h)" fill="#577EB2" d="M543.975 22.302c1.64.41 2.12 1.322 2.526 2.78-1.78.072-2.44-.376-3.728-1.52.336-.407 1.007-.74 1.38-1.117"/><path clip-path="url(#h)" fill="#40649D" d="M541.383 20.77c-.205-2.21-6.445-1.45-6 1.387 2.276-.16 3.982-1.788 6.112-1.89M546.82 26.413c.278 2.812.7 3.804-1.612 5.205-1.423.865-3.184 1.774-4.924 1.298 1.65-1.02 3.882-.848 5.253-2.637.987-1.285-.273-4.493 1.14-5.14.05.207.056.41.083.627"/><path clip-path="url(#h)" fill="#68B554" d="M527.892 24.173c3.666-1.728 6.106.468 6.412-5.1.23-4.124-1.957-5.936-4.138-8.887-.816 2.95-1.336 3.337-3.298 5.332-2.702 2.736-1.115 3.526 2.117 5.874-.607 1.418-2.355 2.752-3.188 2.91"/><path clip-path="url(#h)" fill="#48883A" d="M529.068 23.25s.604-1.62 1.44-2.048c.838-.433 2.733-3.3 2.27-3.564-.46-.27-.914-2.907-.914-2.907l-.832-.585s-2.116 2.256-2.012 2.86c.107.608-1.902 2.376-1.902 2.376l.498 2.85 1.452 1.02z"/><path clip-path="url(#h)" fill="#E9CFD9" d="M523.815 19.227c.703-.498 1.233-1.673 2.308-1.512.348.052.51.32.823.416.465.143.94-.03 1.402.08.787.19 1.573.85 2.26 1.286.875.553 1.246.77 1.17 1.725-.063.81.193.805.995 1.012.588.15 1.46.627.552 1.207-.322.203-1.094.303-1.477.372-.626.114-.99.002-1.496-.39-.562-.437-1.014-1.038-1.628-1.398-.625-.366-1.32-.323-2.043-.346-.725-.026-1.372-.128-1.925-.64-.448-.414-.258-.637-.448-1.076-.182-.424-.548-.48-.434-.935.102-.404.707-.637 1.01-.85"/><path clip-path="url(#h)" fill="#E29AB2" d="M518.71 28.35c.567 1.828 2.05 2.124 3.737 1.986.3-.024.66-.206.967-.135.58.136 1.113.946 1.635 1.298.394.265 1.006.328 1.346.616.402.338.394.88.7 1.334.616.914 1.55 1.18 2.41 1.676-.545.2-.898.74-1.46.937-.688.245-1.336.026-1.97-.333-.875-.497-1.83-1.146-2.54-1.856-.374-.37-.615-.893-1.12-1.012-.832-.2-1.548.25-2.374-.21-.61-.34-.89-.928-1.02-1.598-.155-.81-.058-1.74-.28-2.515"/><path clip-path="url(#h)" fill="#E9CFD9" d="M520.006 25.134s-.412.585-.58.83c-.17.24-.383.418-.14.835.24.415.554.553.388.847s-.22.02-.523.745c-.302.72-.338-.042-.302.72.036.768.18 1.032.453 1.225.276.193.238.248.798.56.56.31.318.215.95.704.63.49 1.442.73 1.76.63.32-.105.395.27.714-.228.32-.497.484-.76 1.073-.158.59.604 2.36 1.662 2.36 1.662l2.525.073s.54-.272.966-.19c.426.083 2.077 1.134 2.434 1.184.358.048 1.098-.47 1.098-.47l1.2-1.13-.228-1.342s.296-.647.866-.992c.567-.345 1.223-.5 1.3-1 .08-.498.31-1.07.134-1.278-.18-.206-.47-1.043-.47-1.043l-.867-.374s-2.083.357-2.09.705c-.005.35-.28 1.933-.74 1.994-.462.057-1.218.9-1.765.977-.544.077-1.868-.023-2.844-.385-.974-.364-2.357-.752-2.83-1.294-.47-.54-2.67-1.54-2.88-1.92-.208-.38-.936-1.407-1.28-1.638-.34-.23-1.478-.248-1.478-.248z"/><path clip-path="url(#h)" fill="#CE2B3D" d="M531.99 26.26l-.585-.88-1.17-.822s-1.05-.486-1.428-.535c-.38-.045-1.045-.378-1.53-.393-.482-.01-.832.837-.832.837s1.32.572.975.685c-.345.115-1.408.047-1.633.137-.228.084-.936 1.558-.57 1.976.36.418.414 1.275.53 1.112.114-.167-.557-.145-1.034-.398-.476-.255-.513-1.02-.513-1.02l-1.32-.106s-1.014-.306-.815-.574c.197-.27.31-.686.647-.92.338-.235.9-.123 1.393-.68.496-.552-.766-.458-1.173-.464-.403-.006-1.513.052-1.7.086-.187.03.277-.627.604-.858.327-.23 1.783-.287 1.783-.287s.86-.096 1.196-.362c.336-.262-.275-.514-.17-1.014.104-.5.76-.61.932-.497.177.117 1.018.64 1.433.748.42.106.307.152 1.966.007s.682-.502 1.043-.62c.36-.115.734-.51.994-.53s-.1.958-.137 1.48c-.037.517.627.738.627.738s1.476-.465 1.964-.492c.49-.026.414.495.48.864.067.37.717.266 1.072.23.354-.042 1.26.885 1.26.885s-.272.506-.24.692c.033.187-.12.407-.334.476-.212.068-.98-.007-1.185-.296-.205-.29-.92.727-1.143 1.04-.146.21-.496.302-.72.34-.112.022-.192.027-.192.027M531.792 34.35s-.97-.6-1.096-.77c-.126-.17-.68-.898-1.17-.787-.488.112-1.29.203-1.83.153-.538-.052-1.412-.21-1.894-.572-.483-.36-.538-.434-.995-.7-.46-.263-1.342-.942-1.342-.942l-.32.5s.147.75-.306.925c-.45.175-1.246.024-1.246.024l-.55-.386 1.118.787s.358.498.858.195c.5-.306.617-.88.617-.88s1.825.73 1.878 1.003c.053.274 1.373.965 1.373.965s.386.034.548.386c.163.35 1.096.77 1.096.77l1.276.172 1.636-.348.77-.394-.422-.1z"/><path clip-path="url(#h)" fill="#DB7594" d="M536.333 26.146c.074.497.306 1.196-.325 1.27-.517.057-.69-.533-1.21-.224-.323.19-.265.633-.44.838-.147.174-.44.254-.52.354-.244.304-.095.408-.215.778-.25.768-.782.905-1.278 1.377.473.66 1.71.52 1.333 1.592-.794-.227-1.36-.937-2.107-1.22-.512-.195-1.068-.05-1.54-.34-.36-.22-.576-.713-1.023-.877-.46-.168-.737-.114-1.17-.417.652.132 1.09.428 1.728.165.454-.184.938-.56 1.32-.854.387-.302.712-.568.893-1.062.228-.628-.07-.936.75-.784.606.11.69.41 1.247-.104.266-.247.368-.712.652-.932.6-.465 1.24-.042 1.784.362-.078.098-.066.226-.123.31"/><path clip-path="url(#h)" fill="#DC5377" d="M530.657 20.924c.06-.092.096-.2.128-.31-.564-.46-1.4-1.552-2.147-.782-.232.24-.083.86-.3 1.02-.32.24-.757-.142-1.033-.32-.326-.208-.73-.69-1.147-.645-.292.028-.77.83-1.07.322-.14-.24.305-.583.244-.888-.154-.782-.936-.35-1.31-.02-.647.577-.608.928-.846 1.63-.14.422-.49.595-.417 1.105.143.997 1.018 1.214 1.562.436.457-.653.6-1.41 1.513-.923.305.165.458.534.727.677.723.383.913-.266 1.563-.464.626-.194.943.412 1.54.323.494-.07 1.047-.873 1.18-1.196M523.858 24.18c-.364.518-.775.845-1.18 1.298-.673.757-.14 1.186.6 1.58-.287.625-.615.708-1.25.86-.25.057-1.11.52-1.24.482-.645-.18.238-2.285-.04-2.822-.102-.197-.39-.3-.492-.482-.098-.182-.064-.44-.123-.627-.115-.367-.437-.857-.397-1.224.176-1.623 1.71-.857 2.298-.09-.326.478-.68.94-.925 1.454.392.475 2.683-.102 3.01-.333M525.89 32.25c1.028.716 1.858.927 2.918.26.408-.258 1.203-1.206 1.673-.627-.154.677 1.43 1.507 1.917 1.03-.76.31-.038.886.463.937.6.06 1.096-.438 1.275-.943-.394 1.397-1.864 2.084-3.075 1.173-.704-.53-1.085-1.22-1.957-1.27-.552-.034-1.13.148-1.647.13"/><path clip-path="url(#h)" fill="#ECA747" d="M531.16 25.46c1.348.876.856 1.8.257 2.99-.77 1.535-1.727 2.015-3.264.964-.418-.29-.824-.646-1.27-.88-.34-.175-.914-.212-1.154-.57-.386-.58.117-1.448.67-1.688.432-.184.59-.02.97.13.706.275 1.108.405 1.866.158.685-.218 1.396-.655 2.082-.747"/><path clip-path="url(#h)" fill="#F5EAA2" d="M527.647 24.39c-.083-.23-.48-.135-.48-.135l.046.752s-.188.207-.438.217c-.254.007-.987.064-.987.064l-.175.595.246.174.41.29s-.49.562-.166.633c.326.073 1.02-.035 1.02-.035s.603.98.776.548c.174-.433.312-1.422.604-1.453.288-.03.256-.912.256-.912l-.236-.86-.877.12z"/><path clip-path="url(#h)" fill="#F8DF3B" d="M529.888 26.36l-.567.807-1.28-.132.463-.996-.758.018.244-1.033s.128-.7.33-.73c.202-.027.798-.19.798-.19s.553.055.835.253c.282.2 1.047.216 1.02.46-.024.24.433.562.433.562l.28.557s-.686-.426-.55-.003c.132.42.016.59-.153 1.002s-.658.937-.658.937-.11-.31-.112-.628c-.002-.322-.325-.884-.325-.884z"/><path clip-path="url(#h)" fill="#45362A" d="M-.14 39.948h605.857v4.274H-.14z"/><circle clip-path="url(#h)" fill="#9E9369" cx="302.275" cy="14.936" r="9.342"/><path clip-path="url(#h)" fill="#ECA747" d="M299.216 12.64c-1.944 1.268-1.237 2.598-.373 4.313 1.115 2.215 2.49 2.908 4.708 1.39.605-.416 1.19-.933 1.836-1.268.488-.253 1.316-.305 1.66-.822.555-.834-.17-2.087-.97-2.434-.62-.268-.845-.03-1.397.185-1.017.398-1.598.584-2.69.23-.987-.316-2.012-.944-3.004-1.078"/><path clip-path="url(#h)" fill="#F5EAA2" d="M304.28 11.1c.123-.332.692-.196.692-.196l-.064 1.086s.27.3.632.31c.364.012 1.425.094 1.425.094l.25.858-.355.25-.594.42s.708.807.24.913c-.47.104-1.467-.053-1.467-.053s-.87 1.416-1.122.79c-.25-.622-.45-2.05-.87-2.094-.417-.042-.37-1.315-.37-1.315l.343-1.24 1.26.176z"/><path clip-path="url(#h)" fill="#F8DF3B" d="M301.048 13.942l.818 1.16 1.85-.187-.668-1.438 1.09.028-.35-1.49s-.188-1.012-.48-1.053c-.288-.04-1.15-.276-1.15-.276s-.796.08-1.204.367c-.406.288-1.508.31-1.47.66.036.35-.622.81-.622.81l-.404.803s.99-.613.797-.003c-.193.608-.025.852.217 1.446s.95 1.348.95 1.348.16-.447.16-.906c0-.46.466-1.27.466-1.27z"/><circle clip-path="url(#h)" fill="#9E9369" cx="605.392" cy="14.936" r="9.342"/><path clip-path="url(#h)" fill="#ECA747" d="M602.333 12.64c-1.943 1.268-1.236 2.598-.373 4.313 1.115 2.215 2.49 2.908 4.708 1.39.604-.416 1.188-.933 1.835-1.268.488-.253 1.316-.305 1.66-.822.557-.834-.17-2.087-.97-2.434-.62-.268-.845-.03-1.396.185-1.017.398-1.597.584-2.688.23-.99-.316-2.013-.944-3.004-1.078"/><path clip-path="url(#h)" fill="#F5EAA2" d="M607.397 11.1c.122-.332.69-.196.69-.196l-.063 1.086s.27.3.633.31c.364.012 1.424.094 1.424.094l.252.858-.356.25-.593.42s.71.807.24.913c-.47.104-1.467-.053-1.467-.053s-.87 1.416-1.122.79c-.25-.622-.45-2.05-.868-2.094-.417-.042-.372-1.315-.372-1.315l.343-1.24 1.26.176z"/><path clip-path="url(#h)" fill="#F8DF3B" d="M604.166 13.942l.817 1.16 1.85-.187-.667-1.438 1.09.028-.35-1.49s-.19-1.012-.48-1.053c-.29-.04-1.152-.276-1.152-.276s-.796.08-1.203.367c-.404.288-1.507.31-1.47.66.037.35-.62.81-.62.81l-.405.803s.99-.613.797-.003c-.194.608-.025.852.217 1.446.24.594.947 1.348.947 1.348s.162-.447.164-.906c0-.46.466-1.27.466-1.27z"/></g></svg>