<svg xmlns="http://www.w3.org/2000/svg" xmlns:xlink="http://www.w3.org/1999/xlink" viewBox="100 240 405 545"><path fill="#7CC7CC" stroke="#45362A" stroke-width="2" stroke-miterlimit="10" d="M488.13 432.05c.658 104.576-83.085 189.876-187.048 190.528-103.963.653-188.773-83.587-189.43-188.163-.657-104.573 83.088-189.876 187.052-190.53 103.962-.653 188.77 83.593 189.427 188.165z"/><circle fill="#45362A" cx="298.855" cy="431.666" r="173.374"/><circle fill="#7CC7CC" cx="300.248" cy="432.797" r="134.317"/><circle fill="none" stroke="#9E9369" stroke-width="4" stroke-miterlimit="10" cx="299.912" cy="431.724" r="135.172"/><ellipse transform="rotate(-9.936 300.09 437.948)" fill="none" cx="300.099" cy="437.996" rx="148.135" ry="151.503"/><text transform="matrix(.2445 -.9467 .9682 .25 155.594 402.65)" fill="#9E9369" stroke="#9E9369" stroke-width=".75" stroke-miterlimit="10" font-family="'Geneva'" font-size="26.826"></text><text transform="matrix(.2984 -.931 .9523 .3052 157.78 394.185)" fill="#9E9369" stroke="#9E9369" stroke-width=".75" stroke-miterlimit="10" font-family="'Geneva'" font-size="26.826"></text><text transform="matrix(.3513 -.9125 .9332 .3593 160.446 385.87)" fill="#9E9369" stroke="#9E9369" stroke-width=".75" stroke-miterlimit="10" font-family="'Geneva'" font-size="26.826"></text><text transform="matrix(.403 -.8908 .911 .4122 163.58 377.726)" fill="#9E9369" stroke="#9E9369" stroke-width=".75" stroke-miterlimit="10" font-family="'Geneva'" font-size="26.826"></text><text transform="matrix(.4716 -.8565 .876 .4823 167.02 369.798)" fill="#9E9369" stroke="#9E9369" stroke-width=".75" stroke-miterlimit="10" font-family="'Geneva'" font-size="26.826">L</text><text transform="matrix(.56 -.8014 .8196 .573 173.713 357.294)" fill="#9E9369" stroke="#9E9369" stroke-width=".75" stroke-miterlimit="10" font-family="'Geneva'" font-size="26.826">O</text><text transform="matrix(.6517 -.729 .7455 .6665 184 342.456)" fill="#9E9369" stroke="#9E9369" stroke-width=".75" stroke-miterlimit="10" font-family="'Geneva'" font-size="26.826">V</text><text transform="matrix(.707 -.6754 .6908 .723 196.192 329.137)" fill="#9E9369" stroke="#9E9369" stroke-width=".75" stroke-miterlimit="10" font-family="'Geneva'" font-size="26.826">I</text><text transform="matrix(.7334 -.6466 .6613 .75 200.45 325.056)" fill="#9E9369" stroke="#9E9369" stroke-width=".75" stroke-miterlimit="10" font-family="'Geneva'" font-size="26.826">I</text><text transform="matrix(.7777 -.5926 .606 .7954 204.625 321.117)" fill="#9E9369" stroke="#9E9369" stroke-width=".75" stroke-miterlimit="10" font-family="'Geneva'" font-size="26.826">S</text><text transform="matrix(.8403 -.5 .5113 .8594 216.564 311.846)" fill="#9E9369" stroke="#9E9369" stroke-width=".75" stroke-miterlimit="10" font-family="'Geneva'" font-size="26.826">A</text><text transform="matrix(.8948 -.3943 .4032 .915 231.875 302.668)" fill="#9E9369" stroke="#9E9369" stroke-width=".75" stroke-miterlimit="10" font-family="'Geneva'" font-size="26.826">N</text><text transform="matrix(.9257 -.3148 .322 .9467 247.974 295.76)" fill="#9E9369" stroke="#9E9369" stroke-width=".75" stroke-miterlimit="10" font-family="'Geneva'" font-size="26.826"></text><text transform="matrix(.9413 -.2645 .2705 .9627 255.38 293.213)" fill="#9E9369" stroke="#9E9369" stroke-width=".75" stroke-miterlimit="10" font-family="'Geneva'" font-size="26.826"></text><text transform="matrix(.9658 -.1528 .1562 .9877 262.513 290.563)" fill="#9E9369" stroke="#9E9369" stroke-width=".75" stroke-miterlimit="10" font-family="'Geneva'" font-size="26.826">W</text><text transform="matrix(.9774 -.0257 .0263 .9997 285.807 286.866)" fill="#9E9369" stroke="#9E9369" stroke-width=".75" stroke-miterlimit="10" font-family="'Geneva'" font-size="26.826">A</text><text transform="matrix(.9733 .093 -.0952 .9955 303.646 286.34)" fill="#9E9369" stroke="#9E9369" stroke-width=".75" stroke-miterlimit="10" font-family="'Geneva'" font-size="26.826">N</text><text transform="matrix(.9555 .2072 -.212 .9773 320.958 287.938)" fill="#9E9369" stroke="#9E9369" stroke-width=".75" stroke-miterlimit="10" font-family="'Geneva'" font-size="26.826">H</text><text transform="matrix(.9242 .3192 -.3264 .9452 337.485 291.424)" fill="#9E9369" stroke="#9E9369" stroke-width=".75" stroke-miterlimit="10" font-family="'Geneva'" font-size="26.826">A</text><text transform="matrix(.8822 .4217 -.4313 .9022 354.404 297.267)" fill="#9E9369" stroke="#9E9369" stroke-width=".75" stroke-miterlimit="10" font-family="'Geneva'" font-size="26.826">T</text><text transform="matrix(.8463 .4897 -.5008 .8656 368.563 304.164)" fill="#9E9369" stroke="#9E9369" stroke-width=".75" stroke-miterlimit="10" font-family="'Geneva'" font-size="26.826"></text><text transform="matrix(.8196 .5332 -.5453 .8382 375.352 308.065)" fill="#9E9369" stroke="#9E9369" stroke-width=".75" stroke-miterlimit="10" font-family="'Geneva'" font-size="26.826"></text><text transform="matrix(.7755 .5955 -.609 .7932 381.96 312.132)" fill="#9E9369" stroke="#9E9369" stroke-width=".75" stroke-miterlimit="10" font-family="'Geneva'" font-size="26.826">T</text><text transform="matrix(.7052 .6773 -.6927 .7212 394.42 321.537)" fill="#9E9369" stroke="#9E9369" stroke-width=".75" stroke-miterlimit="10" font-family="'Geneva'" font-size="26.826">A</text><text transform="matrix(.63 .7477 -.7647 .6444 407.318 333.98)" fill="#9E9369" stroke="#9E9369" stroke-width=".75" stroke-miterlimit="10" font-family="'Geneva'" font-size="26.826">L</text><text transform="matrix(.5576 .8032 -.8215 .5702 415.398 343.203)" fill="#9E9369" stroke="#9E9369" stroke-width=".75" stroke-miterlimit="10" font-family="'Geneva'" font-size="26.826">O</text><text transform="matrix(.4764 .854 -.8733 .4872 424.7 356.446)" fill="#9E9369" stroke="#9E9369" stroke-width=".75" stroke-miterlimit="10" font-family="'Geneva'" font-size="26.826">T</text><g fill="#45362A"><path d="M271.12 552.573v-89.98h12.81v33.43h29.25v-33.43h12.81v92.02l-12.81 1.266V510.39h-29.25v44.502l-12.81-2.32zM342.468 551.527v-88.935h12.028v33.43h23.71v-33.43h12.028v63.698l-12.028 9.296V510.39h-23.71v37.137l-12.028 4zM226.19 521.463s14.077 10.176 30.022 12.695v15.662s-26.892-8.573-41.69-23.32v-5.606l11.668.57z"/><path d="M214.523 463.288h11.727v61.462h-11.727z"/></g><g fill="#45362A"><path d="M214.162 400.527V339.59l12.028-10.47v57.04h30.022v14.367h-42.05zM273.745 400.527l-14.85-87.57 11.91-3.547 9.968 64.554 10.92-63.37h14.38l10.488 64.355 10.367-66.442 11.424 2.97-14.952 89.05h-12.844L298.617 332l-11.83 68.527h-13.042zM344.254 313.114v14.006s5.482 1.927 18.24 10.84v62.567h12.028v-56.402s9.288 4.66 17.695 12.393v-13.643s-26.963-24.264-47.963-29.76z"/></g><g fill="#9E9369" stroke="#9E9369" stroke-width=".75" stroke-miterlimit="10"><path d="M152.48 507.314l17.87-10.3 1.3 2.252-15.9 9.165 5.234 9.077-1.97 1.135-6.533-11.328zM165.197 528.835c-1.445-2.037-1.85-4.248-1.217-6.632.633-2.385 2.377-4.59 5.232-6.613 2.855-2.023 5.51-2.938 7.966-2.745 2.457.194 4.407 1.31 5.854 3.346 1.443 2.04 1.853 4.25 1.225 6.635-.628 2.386-2.368 4.59-5.223 6.615-2.855 2.023-5.512 2.938-7.975 2.743s-4.418-1.31-5.863-3.348zm1.684-1.187c1.055 1.486 2.538 2.178 4.45 2.076 1.91-.103 3.958-.928 6.143-2.477 2.176-1.543 3.63-3.2 4.363-4.974s.573-3.4-.48-4.887c-1.05-1.48-2.533-2.168-4.45-2.066-1.918.102-3.966.924-6.144 2.468-2.184 1.548-3.64 3.21-4.365 4.98-.726 1.777-.564 3.403.484 4.88zM198.87 536.38l1.62 1.8-20.777 7.742-1.754-1.95 10.248-19.448 1.89 2.104-8.615 16.272 17.388-6.52zM190.09 556.377l-1.897-1.777 14.1-15.053 1.897 1.777-14.1 15.053zM196.557 556.143l2.035 1.62-.083.105c-.713.894-.903 1.76-.57 2.596.33.838 1.002 1.66 2.016 2.467.886.706 1.842 1.03 2.87.977 1.024-.057 1.886-.52 2.582-1.394.563-.707.767-1.492.61-2.354-.163-.856-.594-1.926-1.293-3.208l-.54-.992c-.732-1.353-1.187-2.478-1.366-3.374-.18-.896-.18-1.73 0-2.508.18-.775.544-1.51 1.097-2.202.973-1.22 2.21-1.918 3.712-2.092 1.502-.175 3.143.446 4.92 1.862 1.628 1.298 2.526 2.523 2.692 3.676.167 1.152-.08 2.146-.742 2.977l-.083.103-2.034-1.62.083-.104c.21-.265.315-.605.315-1.024 0-.42-.158-.85-.476-1.29a6.373 6.373 0 0 0-1.21-1.244c-1-.795-1.943-1.125-2.833-.99-.89.136-1.598.532-2.122 1.19a3.128 3.128 0 0 0-.656 1.526 3.635 3.635 0 0 0 .166 1.722c.193.574.592 1.454 1.195 2.636l.615 1.188c.982 1.903 1.43 3.438 1.346 4.605-.093 1.16-.486 2.177-1.18 3.048-.647.812-1.48 1.43-2.5 1.857-1.02.427-2.055.54-3.105.344-1.05-.198-2.19-.785-3.418-1.764-1.168-.93-2.028-1.85-2.582-2.76s-.772-1.855-.654-2.836c.116-.98.486-1.86 1.108-2.643l.083-.104zM209.273 571.682l-2.06-1.245 17.656-13.433 2.25 1.36-4.185 21.567-2.4-1.45 1.157-5.93-7.557-4.562-4.862 3.694zm6.6-5.052l6.23 3.764 1.946-10.02-8.177 6.256zM248.736 590.283l-2.508-.688 5.464-19.893 2.506.69-2.43 8.856 8.846 2.435 2.43-8.855 2.51.69-5.464 19.89-2.507-.688 2.485-9.05-8.847-2.435-2.484 9.048zM268.087 594.862l-2.557-.472 3.725-20.29 2.557.47-3.725 20.292zM273.345 591.15l2.584.28-.016.134c-.123 1.137.18 1.97.907 2.5.73.528 1.737.863 3.025 1.004 1.125.122 2.107-.114 2.944-.71.835-.596 1.314-1.45 1.434-2.56.098-.9-.15-1.672-.744-2.316-.595-.636-1.53-1.31-2.807-2.02l-.988-.55c-1.34-.752-2.327-1.46-2.957-2.12-.63-.662-1.077-1.37-1.34-2.12-.264-.752-.348-1.566-.253-2.448.168-1.553.84-2.804 2.015-3.755 1.177-.952 2.895-1.306 5.152-1.06 2.07.226 3.484.78 4.242 1.666.758.885 1.08 1.856.965 2.913l-.015.132-2.585-.28.015-.134c.036-.334-.058-.68-.282-1.034-.224-.354-.588-.632-1.092-.833a6.31 6.31 0 0 0-1.687-.404c-1.27-.138-2.243.088-2.923.68s-1.065 1.304-1.156 2.142c-.06.564.026 1.112.263 1.642.235.53.588.983 1.06 1.365.473.382 1.28.91 2.422 1.59l1.154.673c1.847 1.084 3.046 2.142 3.6 3.173.542 1.03.754 2.1.633 3.21-.11 1.03-.483 2-1.116 2.906-.633.907-1.444 1.558-2.437 1.953-.992.395-2.27.508-3.83.337-1.483-.16-2.703-.48-3.656-.95-.954-.475-1.644-1.156-2.07-2.048a5.148 5.148 0 0 1-.477-2.827l.015-.133zM296.4 597.536l.018-18.57-6.794-.013.002-2.062 16.086.028-.002 2.062-6.692-.012-.018 18.57-2.6-.002zM318.234 596.52c-2.472.353-4.623-.298-6.455-1.952-1.834-1.654-2.998-4.215-3.496-7.68-.497-3.467-.1-6.247 1.194-8.343 1.293-2.098 3.176-3.322 5.647-3.676 2.47-.354 4.624.295 6.46 1.944s3.002 4.206 3.5 7.67c.497 3.468.098 6.25-1.2 8.352-1.296 2.102-3.18 3.33-5.65 3.683zm-.287-2.042c1.802-.258 3.094-1.26 3.875-3.008.783-1.746.983-3.945.603-6.597-.38-2.642-1.19-4.694-2.434-6.158-1.24-1.462-2.764-2.064-4.565-1.807-1.793.257-3.083 1.262-3.868 3.014-.786 1.752-.988 3.95-.61 6.59.383 2.653 1.195 4.707 2.44 6.164 1.248 1.458 2.766 2.057 4.56 1.802zM333.934 592.986l-2.52.63-5.008-20.02 5.992-1.494c1.474-.367 2.636-.424 3.485-.17.85.253 1.597.742 2.236 1.463a5.932 5.932 0 0 1 1.324 2.54 6.18 6.18 0 0 1 .127 2.36 6.64 6.64 0 0 1-.735 2.252c-.38.712-1.07 1.435-2.072 2.17.478.136.85.284 1.11.446.264.164.605.448 1.027.854.422.407.796.793 1.126 1.16l4.562 5.15-2.89.722-3.99-4.597a12.085 12.085 0 0 0-3.38-2.708l-2.547.636 2.154 8.606zm-2.65-10.6l2.462-.616c1.043-.26 1.79-.623 2.247-1.09.454-.464.76-1.053.92-1.766.158-.713.146-1.43-.033-2.153-.158-.63-.424-1.16-.798-1.592a3.417 3.417 0 0 0-1.412-.972c-.567-.216-1.432-.18-2.59.11l-2.652.66 1.855 7.42zM350.716 588.282l-2.475.795-6.32-19.644 2.476-.796 6.32 19.645zM353.564 582.54l2.414-.962.05.123c.424 1.063 1.08 1.657 1.972 1.784s1.938-.05 3.142-.528c1.05-.42 1.808-1.087 2.267-2.005.46-.918.482-1.897.068-2.936-.335-.84-.916-1.406-1.743-1.698-.822-.283-1.964-.44-3.424-.47l-1.13-.02c-1.536-.04-2.737-.202-3.603-.492-.867-.29-1.594-.705-2.18-1.244-.583-.54-1.04-1.222-1.368-2.047-.58-1.45-.572-2.87.02-4.263.594-1.392 1.945-2.507 4.055-3.348 1.934-.77 3.442-.94 4.526-.515 1.085.428 1.823 1.135 2.218 2.122l.05.122-2.415.963-.05-.124c-.125-.31-.37-.572-.732-.78-.363-.207-.815-.283-1.354-.225-.54.056-1.1.2-1.68.432-1.185.473-1.94 1.13-2.263 1.97-.324.84-.33 1.65-.018 2.435.21.526.543.97 1 1.327.456.357.982.594 1.577.71.594.117 1.555.206 2.88.27l1.337.056c2.14.093 3.694.465 4.664 1.118.963.655 1.65 1.502 2.064 2.54.384.96.51 1.992.375 3.09-.135 1.1-.548 2.054-1.238 2.868-.692.813-1.767 1.51-3.224 2.092-1.386.553-2.61.843-3.676.872-1.063.028-1.992-.25-2.786-.84a5.178 5.178 0 0 1-1.745-2.272l-.05-.124zM374.58 578.58l-2.3 1.21-9.616-18.26 2.3-1.21 4.592 8.72 2.785-12.6 2.62-1.38-2.738 12.38 13.482 5.288-2.88 1.516-13.27-5.205 5.027 9.54zM390.252 569.87l-1.98 1.37-5.034-21.618 2.16-1.496 17.967 12.66-2.306 1.598-4.94-3.487-7.25 5.023 1.382 5.95zm-1.91-8.09l5.98-4.144-8.346-5.883 2.367 10.026zM423.433 541.947l-1.695 1.97-15.64-13.468 1.695-1.97 6.964 5.996 5.983-6.95-6.963-5.997 1.695-1.97 15.64 13.467-1.695 1.97-7.114-6.127-5.983 6.95 7.113 6.127zM417.392 517.03l1.448-2.157 11.02 7.408c1.606 1.08 2.785 1.653 3.537 1.72.752.065 1.485-.125 2.203-.573.718-.447 1.342-1.066 1.873-1.856.512-.76.82-1.53.93-2.312.106-.78-.054-1.523-.482-2.23-.428-.706-1.632-1.726-3.612-3.057l-10.238-6.88 1.335-1.986 10.804 7.263c2 1.346 3.256 2.512 3.767 3.5s.72 2.063.626 3.22-.568 2.37-1.424 3.646c-.796 1.182-1.71 2.138-2.745 2.868-1.036.73-2.11 1.07-3.224 1.02-1.112-.052-2.614-.712-4.506-1.983l-11.312-7.607zM440.927 510.21l1.217-2.296.117.062c1.01.535 1.896.562 2.656.083.762-.48 1.444-1.294 2.05-2.44.53-1 .673-2 .43-2.998-.246-.998-.86-1.76-1.85-2.282-.8-.423-1.608-.48-2.428-.165-.81.317-1.78.937-2.91 1.86l-.875.713c-1.194.968-2.216 1.62-3.063 1.962-.85.34-1.67.494-2.464.46-.796-.033-1.585-.257-2.37-.673-1.378-.73-2.294-1.82-2.742-3.265-.45-1.444-.144-3.17.92-5.178.974-1.84 2.01-2.947 3.112-3.324 1.103-.376 2.123-.314 3.062.183l.117.062-1.215 2.298-.117-.062c-.297-.157-.652-.197-1.064-.12s-.806.312-1.18.706a6.34 6.34 0 0 0-1 1.417c-.596 1.128-.746 2.117-.448 2.968.298.85.82 1.474 1.564 1.868a3.126 3.126 0 0 0 1.622.364c.578-.022 1.132-.183 1.66-.48s1.318-.85 2.37-1.658l1.053-.824c1.69-1.315 3.115-2.038 4.276-2.17 1.16-.122 2.23.077 3.218.6.916.485 1.68 1.19 2.287 2.115.61.925.914 1.92.916 2.988 0 1.068-.366 2.296-1.1 3.683-.7 1.32-1.444 2.334-2.236 3.045-.79.713-1.68 1.1-2.665 1.166a5.143 5.143 0 0 1-2.802-.604l-.116-.06z"/></g><path fill="none" stroke="#9E9369" stroke-width="13" stroke-miterlimit="10" stroke-dasharray="9.021,9.021" d="M480.55 432.712c0 100.188-80.76 181.402-180.388 181.402S119.774 532.9 119.774 432.712c0-100.186 80.76-181.4 180.388-181.4 99.63 0 180.39 81.214 180.39 181.4z"/><circle fill="none" stroke="#45362A" stroke-width="7" stroke-miterlimit="10" cx="298.912" cy="431.761" r="173.672"/><path fill="none" stroke="#45362A" stroke-width="2" stroke-miterlimit="10" d="M487.67 432.05c.656 104.576-83.087 189.876-187.05 190.528-103.963.653-188.773-83.587-189.43-188.163-.657-104.573 83.088-189.876 187.052-190.53 103.962-.653 188.77 83.593 189.427 188.165z"/><path fill="#45362A" d="M181.834 409.995s-14.255.376-18.144-9.467h-12.625l-2.66-24.658-25.71-7.98s-1.837 2.032-2.92 7.138c0 0-18.428 14.493-19.02 32.36 0 0 .467 9.59 8.608 24.41 0 0-5.59 13.243 2.285 19.393 0 0 1.907 28.147 8.126 37.192l36.16-8.128 12.76-6.457s-8.133-15.842 22.636-17.386h237.162s11.09 11.143 9.097 15.942l9.238 3.3 6.99-5.955v5.84l27.2 12.845s-.437-14.776 3.194-16.512c1.868-.893 9.96-6.99 3.11-20.903 0 0 12.845-1.18 6.77-22.186 0 0 11.57-16.694 6.54-35.372 0 0-5.52-13.748-23.508-25.52l-16.015 4.354-11.266 4.768-.957 18.336-8.267 2.937s2.67 15.787-45.25 13.75l-206.15-2.037h-7.386z"/><path opacity=".63" fill="#262321" d="M445.75 433.23s-3 9.44-3.25 9.605-.25 2.372 0 5.144-1.625 6.796-.188 8.283 1.953 7.237 1.445 7.987-.234 5.686-2.246-1.657-3.343-11.093-6.427-11.843S421 447.957 415 447.98s-21.04.228-23.52 0-10.38 2.57-20.556 1.92-54.675.9-63.925 0c0 0-93.75-.017-108-3.083 0 0-21.25-3.018-29.25 3.083 0 0-5.02 5.17-5.01 6.51s-3.36 5.276-2.675 6.184-.815 3.657-1.815 1.907-2.168-5.224-1.21-8.236 1.46-8.306.96-8.284-3.63-4.02-4.065-4.5-1.51 20.906-4.097 23.09l7.203 9.182 7.858-1.954s2.352-19.815 13.852-19.306l130.62 1.772 113.13-1.774s15 9.01 12 17.01c0 0 8.172 4.35 9.25 4.25s6.807-4.98 6.807-4.98l-2.71-25.45v-5.624l-4.097-6.465z"/><g fill="#9E9369" stroke="#9E9369" stroke-width=".75" stroke-miterlimit="10"><path d="M222.754 436.9c0 1.94-.842 3.533-2.525 4.773-1.573 1.167-3.448 1.75-5.622 1.75-1.844 0-3.374-.3-4.59-.903-1.487-.737-2.23-1.823-2.23-3.26 0-1.095.403-2.02 1.207-2.775.805-.756 1.766-1.133 2.885-1.133 1.155 0 2.095.21 2.82.625.823.48 1.235 1.157 1.235 2.028 0 .554-.2 1.035-.6 1.447a1.917 1.917 0 0 1-1.428.617c-.53 0-.91-.1-1.143-.296-.062-.06-.092-.11-.092-.147 0-.085.08-.147.24-.184.208-.074.384-.203.525-.388.14-.184.21-.473.21-.866 0-.357-.19-.647-.57-.876a2.36 2.36 0 0 0-1.235-.34c-.873 0-1.606.207-2.202.625-.597.417-.894.994-.894 1.73 0 1.034.657 1.833 1.972 2.397 1.094.467 2.39.7 3.89.7 1.56 0 2.924-.35 4.09-1.05 1.376-.824 2.065-1.936 2.065-3.337 0-1.4-.504-2.44-1.512-3.114-.625-.42-1.818-.842-3.574-1.272-1.008-.222-2.01-.447-3.005-.68-1.13-.31-1.958-.708-2.487-1.2-.69-.64-1.032-1.536-1.032-2.69 0-1.314.695-2.402 2.084-3.262 1.277-.8 2.746-1.2 4.406-1.2 1.498 0 2.71.192 3.63.57 1.217.507 1.825 1.286 1.825 2.343 0 .677-.326 1.235-.977 1.68-.602.402-1.296.605-2.083.605-.75 0-1.376-.14-1.88-.424-.615-.344-.92-.834-.92-1.475 0-.33.112-.623.34-.874.228-.252.482-.42.765-.507.123-.024.19-.04.203-.04.086 0 .13.064.13.188l-.038.367c0 .27.085.492.257.663.222.222.578.332 1.07.332.32 0 .595-.11.83-.332.232-.22.35-.478.35-.773 0-.553-.4-.946-1.198-1.18-.59-.17-1.358-.258-2.304-.258-1.18 0-2.243.265-3.19.792-1.044.59-1.566 1.32-1.566 2.193 0 .785.344 1.4 1.033 1.843.43.284 1.806.688 4.128 1.216 1.438.332 2.543.65 3.317.96 1.08.43 1.892.958 2.433 1.583.64.74.96 1.676.96 2.805zM233.747 442.255c.147.146.22.266.22.363 0 .144-.134.217-.404.217-.22 0-.406-.006-.553-.02a23.417 23.417 0 0 0-1.51-.09c-.443 0-.803.012-1.08.035-.275.026-.593.05-.95.074-.293 0-.44-.075-.44-.225 0-.075.06-.19.184-.34.307-.247.535-.44.683-.58.282-.245.423-.473.423-.68v-12.37c0-.613-.147-1.025-.442-1.233-.38-.136-.645-.228-.792-.276s-.22-.12-.22-.22c0-.073.057-.154.174-.24.116-.086.316-.202.6-.35.417-.222.742-.405.976-.554.577-.356 1.03-.654 1.354-.894.326-.24.532-.39.618-.45.086-.063.147-.094.184-.094.172 0 .227.11.166.333-.062.27-.12.72-.175 1.347-.056.627-.083 1.37-.083 2.233v12.805c0 .197.13.41.387.646.22.196.446.383.68.565zm-.424-22.283c0 .433-.162.8-.486 1.103a1.64 1.64 0 0 1-1.163.453c-.44 0-.813-.16-1.118-.48a1.604 1.604 0 0 1-.458-1.15c0-.444.165-.82.495-1.13a1.63 1.63 0 0 1 1.154-.464c.44 0 .812.167 1.118.5.305.334.458.723.458 1.168zM256.61 431.526c0 1.82-.32 3.563-.96 5.23-.64 1.667-1.584 3.207-2.837 4.623.037 0 .1.002.193.008a8.326 8.326 0 0 0 1.446-.055c.332-.043.658-.168.977-.378.318-.258.527-.425.626-.498a.236.236 0 0 1 .11-.054.26.26 0 0 1 .074-.02c.135 0 .172.11.11.33-.024.184-.048.402-.073.66a6.64 6.64 0 0 0-.037.512 11.92 11.92 0 0 0 .074 1.21c.05.244 0 .366-.148.366a.288.288 0 0 1-.184-.072c-.37-.202-.627-.334-.774-.396a3.86 3.86 0 0 0-.802-.215c-.252-.036-.642-.054-1.17-.054-.357 0-.64.005-.85.016-.208.01-.484.042-.828.094-.356.062-.535-.048-.535-.332a.43.43 0 0 1 .055-.22 42.874 42.874 0 0 0 1.548-2.563c.577-1.068 1.007-2.064 1.29-2.985.344-1.132.516-2.28.516-3.448 0-1.928-.43-3.495-1.29-4.7-.897-1.265-2.114-1.896-3.65-1.896-1.03 0-1.96.288-2.782.866-.738.515-1.346 1.23-1.825 2.152v11.303c0 .223.137.45.41.683.238.2.475.394.712.58.137.138.205.264.205.375 0 .126-.104.188-.314.188-.06 0-.34-.02-.832-.054-.494-.04-.944-.057-1.35-.057-.47 0-.843.013-1.12.036-.278.027-.595.052-.953.075-.296 0-.444-.07-.444-.206 0-.09.055-.195.165-.32.11-.126.29-.287.535-.487.418-.32.627-.59.627-.812v-10.897c0-1.044-.313-1.892-.94-2.54-.27-.284-.744-.604-1.42-.958-.097-.05-.147-.116-.147-.204 0-.085.037-.164.11-.238.16-.146.296-.266.407-.357.11-.093.25-.225.424-.396.173-.174.308-.315.406-.424.1-.11.19-.222.277-.333.05-.06.116-.09.203-.09.074 0 .13.018.166.054.442.355.91.854 1.4 1.493.676.872 1.07 1.63 1.18 2.267a9.435 9.435 0 0 1 1.972-2.305c1.155-.97 2.328-1.455 3.52-1.455 2.213 0 3.914.83 5.106 2.49a7.367 7.367 0 0 1 1.42 4.41zM278.992 438.375c0 .172-.05.38-.147.626-.393.997-1.094 1.905-2.1 2.73-1.39 1.13-3 1.694-4.83 1.694-2.69 0-4.83-.81-6.415-2.432-1.622-1.66-2.433-3.945-2.433-6.856 0-2.544.92-4.765 2.755-6.663 1.837-1.898 4.04-2.848 6.608-2.848 1.474 0 2.765.393 3.87 1.18 1.205.86 1.807 1.953 1.807 3.28 0 1.12-.353 2.06-1.06 2.83-.707.767-1.582 1.152-2.626 1.152-.884 0-1.645-.258-2.285-.775-.688-.552-1.03-1.253-1.03-2.1 0-.554.183-1.07.55-1.55.32-.43.652-.687.997-.774.134-.047.24-.036.313.038.074.073.092.16.056.258a3.636 3.636 0 0 0-.128.423 2.34 2.34 0 0 0-.11.664c0 .137.004.24.018.314.074.382.273.673.6.876.324.203.702.304 1.132.304.59 0 1.063-.214 1.42-.645.355-.43.534-.965.534-1.605 0-.935-.448-1.673-1.345-2.212-.81-.49-1.763-.737-2.856-.737-2.077 0-3.757.79-5.04 2.37-1.285 1.577-1.927 3.552-1.927 5.924 0 2.063.657 3.827 1.972 5.29 1.363 1.51 3.053 2.267 5.067 2.267 1.266 0 2.32-.187 3.16-.562.842-.375 1.706-1.07 2.59-2.093.013-.024.086-.128.222-.312.097-.134.183-.227.257-.277.06-.036.145-.038.25-.01.103.033.155.108.155.232zM300.05 438.927c-.32 1.046-1.09 2.023-2.306 2.93-1.425 1.07-2.98 1.605-4.663 1.605-1.08 0-2.04-.116-2.875-.35a8.186 8.186 0 0 1-2.728-1.383c-.344.43-.657.896-.94 1.4-.355.626-.534 1.08-.534 1.363 0 .344.093.583.277.72.123.084.325.128.608.128a.93.93 0 0 0 .258-.036c.074-.024.147-.05.22-.073.05-.023.093-.023.13 0 .085.05.104.147.055.296-.073.295-.22.565-.44.81-.296.32-.64.48-1.033.48-.418 0-.762-.154-1.032-.462-.27-.307-.405-.704-.405-1.197 0-.392.134-.873.405-1.438.074-.16.602-1.033 1.585-2.618-.91-.934-1.61-1.948-2.102-3.04-.54-1.22-.81-2.526-.81-3.927 0-2.58.837-4.81 2.515-6.69 1.677-1.88 3.763-2.82 6.257-2.82.995 0 2.015.24 3.06.718.578.284 1.154.562 1.732.83.11.05.27.087.48.11.208.024.418.037.626.037l.553-.036c.136 0 .204.056.204.164 0 .088-.043.155-.13.203-.195.126-.41.292-.644.5-.32.27-.598.547-.83.83-1.193 1.327-2.575 3.064-4.147 5.215a130.447 130.447 0 0 0-4.44 6.47c.724.517 1.46.916 2.21 1.198.885.33 1.807.498 2.765.498 1.327 0 2.42-.252 3.282-.756.625-.37 1.327-1.026 2.1-1.972.074-.11.16-.23.258-.36.1-.13.21-.18.332-.155.16.036.24.152.24.35 0 .148-.03.302-.09.46zm-5.052-10.874c0-.724-.393-1.29-1.18-1.694-.664-.346-1.463-.518-2.396-.518-1.745 0-3.183.743-4.313 2.23-1.058 1.4-1.586 3.065-1.586 4.995 0 1.142.276 2.285.83 3.428.466.97 1.05 1.795 1.75 2.47.835-1.24 1.486-2.205 1.954-2.894.75-1.104 1.388-2.032 1.916-2.783l2.028-2.875c.664-1.03.996-1.818.996-2.36zM329.405 439.722c-.16.295-.32.583-.48.866-.145.308-.272.61-.377.912a5.48 5.48 0 0 0-.23.856c-.05.27-.09.534-.13.793-.048.182-.128.273-.238.273a.482.482 0 0 1-.203-.054 11.03 11.03 0 0 0-2.58-.83c-1.168-.21-2.482-.314-3.944-.314-1.782 0-3.312.175-4.59.523-.073.025-.706.26-1.897.71-.16.05-.24 0-.24-.147l.02-.183c.085-.418.398-1.094.938-2.028a27.674 27.674 0 0 1 1.604-2.47c1.068-1.438 2.553-2.99 4.45-4.654 1.9-1.665 3.113-2.865 3.64-3.604.995-1.375 1.494-2.985 1.494-4.828 0-1.462-.473-2.71-1.42-3.742-.982-1.07-2.24-1.604-3.777-1.604-1.326 0-2.446.375-3.354 1.125-.907.75-1.363 1.627-1.363 2.635 0 .714.147 1.297.442 1.752.343.528.823.79 1.437.79.295 0 .544-.044.747-.136.202-.092.408-.255.617-.49.075-.072.135-.155.186-.247.05-.094.092-.202.13-.323.034-.124.115-.186.238-.186.197.175.325.43.387.767.062.34.094.642.094.912-.05.553-.34 1.028-.875 1.428a2.97 2.97 0 0 1-1.817.6c-.92 0-1.68-.38-2.275-1.134-.597-.757-.895-1.632-.895-2.627 0-1.658.68-3.047 2.047-4.165 1.288-1.056 2.83-1.585 4.625-1.585 2.112 0 3.84.546 5.18 1.638 1.51 1.24 2.267 2.99 2.267 5.25 0 1.19-.276 2.277-.83 3.26-.442.784-1.147 1.614-2.12 2.485-.294.27-1.228 1.03-2.8 2.284a530.5 530.5 0 0 0-2.783 2.172c-.973.773-1.74 1.486-2.305 2.138-.726.82-1.415 1.83-2.064 3.02a14.79 14.79 0 0 1 3.492-1.134c1.2-.228 2.553-.34 4.065-.34.38 0 1.123.03 2.23.092.172 0 .356-.007.555-.02.194-.012.44-.042.736-.09.295-.05.626-.148.994-.296.234-.1.475-.202.72-.313.11-.035.19-.03.24.02.045.048.05.127.013.24zM353.078 431.04c0 3.195-.896 6.032-2.69 8.514-1.868 2.582-4.092 3.87-6.673 3.87-2.494 0-4.477-.998-5.943-2.994-1.47-1.997-2.202-4.685-2.202-8.063 0-1.904.405-3.834 1.216-5.788.664-1.61 1.426-2.863 2.284-3.76.186-.185.308-.247.37-.185.06.062.092.136.092.222a.53.53 0 0 1-.02.165c-.022.074-.05.142-.072.2-.44 1.02-.807 2.188-1.088 3.502a17.992 17.992 0 0 0-.424 3.793c0 3.437.597 6.216 1.788 8.34 1.19 2.125 2.758 3.188 4.7 3.188 1.817 0 3.268-.75 4.35-2.25 1.228-1.704 1.844-4.222 1.844-7.548 0-3.45-.65-6.36-1.954-8.73-1.254-2.283-2.73-3.424-4.423-3.424-1.55 0-2.324.626-2.324 1.88 0 .308.094.56.286.764a.89.89 0 0 0 .672.305.654.654 0 0 0 .48-.203c.122-.172.207-.295.258-.37a.228.228 0 0 1 .2-.11c.074 0 .134.062.178.186.043.123.063.32.063.59 0 .086-.02.274-.055.56-.038.29-.222.578-.554.868-.33.287-.694.433-1.087.433-.614 0-1.124-.25-1.527-.748-.407-.497-.61-1.12-.61-1.87 0-.885.428-1.616 1.28-2.194.855-.577 1.865-.866 3.033-.866 2.41 0 4.435 1.13 6.083 3.39 1.645 2.26 2.468 5.037 2.468 8.33zM375.794 431.04c0 3.195-.898 6.032-2.69 8.514-1.868 2.582-4.093 3.87-6.674 3.87-2.493 0-4.477-.998-5.944-2.994-1.47-1.997-2.202-4.685-2.202-8.063 0-1.904.405-3.834 1.217-5.788.664-1.61 1.426-2.863 2.286-3.76.185-.185.31-.247.37-.185a.303.303 0 0 1 .092.222.563.563 0 0 1-.02.165c-.025.074-.05.142-.073.2-.443 1.02-.805 2.188-1.087 3.502a17.998 17.998 0 0 0-.426 3.793c0 3.437.597 6.216 1.788 8.34 1.193 2.125 2.76 3.188 4.7 3.188 1.82 0 3.27-.75 4.35-2.25 1.23-1.704 1.844-4.222 1.844-7.548 0-3.45-.65-6.36-1.953-8.73-1.253-2.283-2.728-3.424-4.423-3.424-1.548 0-2.322.626-2.322 1.88 0 .308.094.56.285.764a.89.89 0 0 0 .673.305.654.654 0 0 0 .48-.203c.12-.172.208-.295.257-.37a.233.233 0 0 1 .203-.11c.074 0 .13.062.175.186.043.123.064.32.064.59 0 .086-.018.274-.055.56-.037.29-.222.578-.553.868-.332.287-.695.433-1.088.433-.614 0-1.124-.25-1.53-.748-.404-.497-.608-1.12-.608-1.87 0-.885.428-1.616 1.28-2.194.855-.577 1.866-.866 3.032-.866 2.408 0 4.437 1.13 6.083 3.39 1.647 2.26 2.47 5.037 2.47 8.33zM395.374 432.735c0 2.814-1.045 5.283-3.133 7.408-2.15 2.188-4.742 3.28-7.776 3.28-1.414 0-2.617-.306-3.612-.92-1.132-.688-1.696-1.635-1.696-2.84 0-.576.188-1.096.562-1.557.375-.46.838-.69 1.392-.69.552 0 1.016.113 1.392.34.373.23.562.58.562 1.06 0 .457-.11.812-.33 1.07-.075.086-.148.128-.223.128s-.16-.067-.257-.203a.792.792 0 0 0-.202-.273c-.136-.11-.326-.167-.572-.167-.184 0-.335.09-.45.268a1.033 1.033 0 0 0-.175.58c0 .762.454 1.358 1.362 1.787.75.358 1.646.535 2.69.535 2.19 0 4.087-.938 5.697-2.81 1.61-1.875 2.414-4.022 2.414-6.443 0-1.598-.424-2.997-1.27-4.2-.92-1.304-2.09-1.955-3.514-1.955-.87 0-1.643.13-2.318.388-.822.32-1.373.778-1.655 1.382-.05.134-.093.273-.13.415-.037.142-.098.348-.184.616-.062.062-.154.087-.28.074l-1.375-.146c-.21-.05-.295-.208-.258-.478l.34-2.027c.09-.86.138-1.684.138-2.47a372.34 372.34 0 0 1-.074-4.35c0-.124.02-.272.065-.443l.084-.204c.06-.06.17-.09.332-.09 1.117.294 2.28.54 3.49.736a23.2 23.2 0 0 0 3.733.295c.7 0 1.228-.056 1.585-.168.54-.17.81-.484.81-.94 0-.294-.055-.516-.164-.662a.616.616 0 0 0-.26-.203c-.108-.05-.164-.104-.164-.167 0-.085.06-.163.175-.23.118-.067.266-.106.444-.12.177-.012.377-.018.598-.018.49 0 .92.177 1.29.534.37.356.554.78.554 1.27 0 .825-.454 1.457-1.362 1.9-.735.357-1.63.534-2.687.534a21.8 21.8 0 0 1-4.01-.386c-.92-.173-2.025-.45-3.313-.83 0 .418-.007.995-.02 1.733a103.87 103.87 0 0 0-.017 1.805 20.5 20.5 0 0 1-.306 3.576c.64-1.058 1.458-1.843 2.46-2.36 1-.516 2.107-.773 3.324-.773 1.928 0 3.46.654 4.595 1.963 1.137 1.31 1.704 3.124 1.704 5.447z"/></g><path fill="#2C2825" d="M173.634 409.686H424.77v5.05H173.635z"/><path fill="#9E9369" d="M138.61 404.448s8.128-11.065-3.726-9.104c0 0-13.292 6.703 1.397 16.014 0 0 12.598 4.25 17.753-7.53h9.195s1.034 9.787 27.31 8.203h144.467v-5.676H176.812s-9.854-1.078-10.062-11.01h-10.966s-1.03-16.137-20.27-16.137c0 0-22.76 2.276-22.76 26.068 0 0-2.274 17.586 22.346 32.69 0 0 12.992 6.144 13.847 15.725.083.936.238 1.888.22 2.892-.127 7.71-.41 9.36-3.723 13.658l13.656 13.033s3.725-8.69 15.102-5.38c0 0-6.826-19.7 15.723-20.113h140.02v-4.507H179.994s-13.033 1.862-14.482 16.55l-5.584 2.278-4.967-3.93s4.14-16.348 2.07-29.795c0 0 7.034-1.447 10.758-8.895 0 0-7.763-2.69-10.758-2.276l-2.995.413s7.34-6.62-.935-10.344c0 0-12.565 13.966-28.758-6 0 0-6.828-14.067 4.344-20.274 0 0 9.727-5.587 15.93.826 0 0 7.036 2.482 1.45 13.034l-7.242.417"/><path fill="#9E9369" d="M138.912 450.25s-6.37-10.698-19.684-11.206a27 27 0 0 0-1.07-.02c-14.045.047 3.748 12.014 11.306 13.272 0 0-9.02.164-9.942 5.042 0 0 3.37 4.567 10.97 3.07.13-.024.258-.05.39-.08 7.872-1.733.943 10.558-1.26 13.467 0 0 17.244-6.915 9.29-23.544zM466.063 404.448s-8.13-11.065 3.727-9.104c0 0 13.29 6.703-1.4 16.014 0 0-12.596 4.25-17.75-7.53h-9.193s-1.035 9.787-27.312 8.203H326.83v-5.676h99.954s10.934-1.078 11.14-11.01h10.967s1.03-16.137 20.27-16.137c0 0 22.76 2.276 22.76 26.068 0 0 2.274 17.586-22.345 32.69 0 0-12.99 6.144-13.846 15.725-.086.936-.24 1.888-.223 2.892.127 7.71.41 9.36 3.723 13.658l-13.656 13.033s-3.724-8.69-15.102-5.38c0 0 6.827-19.7-15.724-20.113h-90.41v-4.507h100.344s13.032 1.862 14.48 16.55l5.587 2.278 4.966-3.93s-4.14-16.348-2.07-29.795c0 0-7.034-1.447-10.76-8.895 0 0 7.765-2.69 10.76-2.276l2.994.413s-7.34-6.62.937-10.344c0 0 12.565 13.966 28.757-6 0 0 6.83-14.067-4.344-20.274 0 0-9.727-5.587-15.93.826 0 0-7.037 2.482-1.45 13.034l7.24.417"/><path fill="#9E9369" d="M465.76 450.25s6.37-10.698 19.686-11.206c.353-.013.71-.02 1.07-.02 14.045.047-3.748 12.014-11.306 13.272 0 0 9.02.164 9.94 5.042 0 0-3.37 4.567-10.97 3.07a9.956 9.956 0 0 1-.39-.08c-7.872-1.733-.943 10.558 1.26 13.467 0 0-17.243-6.915-9.29-23.544z"/><path fill="#45362A" d="M130.973 424.48s6.877 9.42 15.808 2.55l9.155 6.15s-4.695-1.946 0 0c0 0-8.36 4.008-2.748 12.14 0 0-7.442-9.047-11.336-10.42 0-.002-11.565-5.843-10.877-10.42zM473.578 424.48s-6.878 9.42-15.81 2.55l-9.152 6.15s4.693-1.946 0 0c0 0 8.358 4.008 2.747 12.14 0 0 7.442-9.047 11.336-10.42 0-.002 11.564-5.843 10.878-10.42z"/><path fill="#DAC379" d="M174.203 477.896s39.92 94.318 137.167 85.794c0 0-96.17 12.478-137.167-85.794z"/><path fill="#DAC379" d="M428.55 477.896s-39.92 94.318-137.165 85.794c0 0 96.168 12.478 137.166-85.794z"/><g opacity=".77" fill="#DAC379"><path d="M119.774 387.116c-1.35.27 25.212-15.88 32.707 3.552 0 0-9.295-8.257-32.706-3.552z"/><ellipse cx="136.307" cy="399.345" rx="4.031" ry="2.183"/><path d="M113.845 439.792s21.387-2.38 26.493 16.47c0 0-10.15-15.04-26.493-16.47z"/></g><g opacity=".77" fill="#DAC379"><path d="M485.264 387.116c1.35.27-25.213-15.88-32.707 3.552 0 0 9.297-8.257 32.707-3.552z"/><ellipse cx="468.731" cy="399.345" rx="4.031" ry="2.183"/><path d="M491.193 439.792s-21.387-2.38-26.493 16.47c0 0 10.152-15.04 26.493-16.47z"/></g><g opacity=".39"><defs><path id="a" opacity=".39" d="M159.04 494.836l12.61-2.32s27.708 58.716 99.38 77.212c0 0 111.892 19.29 164.054-82.998l5.54 4.332s2 6.134 0 5.978-5.54 2.883-5.54 2.883-3.747 6.312-6.592 7.282-2.744 1.04-4.304 5.64-8.275 27.575-45.033 39.5c0 0-9.522 12.755-32.837 19.46s-1.73-.538-1.73-.538-25.375 17.312-52.66 8.69c0 0-47.814 5.023-55.228-11.293 0 0-34.663-23.402-41.365-24.72s-3.246 0-3.246 0-21.273-21.905-33.05-49.108z"/></defs><clipPath id="b"><use xlink:href="#a" overflow="visible"/></clipPath><g clip-path="url(#b)" fill="#DAC379" stroke="#DAC379" stroke-width=".75" stroke-miterlimit="10"><path d="M152.48 507.34l17.87-10.3 1.3 2.252-15.9 9.165 5.234 9.076-1.97 1.135-6.533-11.328zM165.197 528.86c-1.445-2.037-1.85-4.248-1.217-6.632.633-2.385 2.377-4.59 5.232-6.613 2.855-2.023 5.51-2.938 7.966-2.745 2.457.194 4.407 1.31 5.854 3.346 1.443 2.038 1.853 4.25 1.225 6.634-.628 2.386-2.368 4.59-5.223 6.615-2.855 2.023-5.512 2.938-7.975 2.743s-4.418-1.31-5.863-3.348zm1.684-1.186c1.055 1.486 2.538 2.178 4.45 2.076 1.91-.103 3.958-.928 6.143-2.477 2.176-1.543 3.63-3.2 4.363-4.974s.573-3.402-.48-4.888c-1.05-1.48-2.533-2.168-4.45-2.066-1.918.102-3.966.924-6.144 2.468-2.184 1.548-3.64 3.21-4.365 4.98-.726 1.776-.564 3.402.484 4.88zM198.87 536.404l1.62 1.802-20.777 7.74-1.754-1.95 10.248-19.447 1.89 2.103-8.615 16.272 17.388-6.52zM190.09 556.402l-1.897-1.777 14.1-15.053 1.897 1.777-14.1 15.052zM196.557 556.168l2.035 1.62-.083.105c-.713.894-.903 1.76-.57 2.596.33.837 1.002 1.658 2.016 2.466.886.705 1.842 1.03 2.87.976 1.024-.057 1.886-.52 2.582-1.394.563-.707.767-1.492.61-2.354-.163-.855-.594-1.925-1.293-3.207l-.54-.992c-.732-1.353-1.187-2.478-1.366-3.374-.18-.895-.18-1.73 0-2.507.18-.775.544-1.51 1.097-2.202.973-1.22 2.21-1.917 3.712-2.09 1.502-.176 3.143.445 4.92 1.86 1.628 1.3 2.526 2.524 2.692 3.677.167 1.152-.08 2.146-.742 2.977l-.083.104-2.034-1.62.083-.104c.21-.264.315-.604.315-1.023 0-.418-.158-.85-.476-1.288a6.373 6.373 0 0 0-1.21-1.245c-1-.795-1.943-1.125-2.833-.99-.89.136-1.598.532-2.122 1.19a3.128 3.128 0 0 0-.656 1.526 3.635 3.635 0 0 0 .166 1.722c.193.574.592 1.454 1.195 2.636l.615 1.19c.982 1.902 1.43 3.437 1.346 4.604-.093 1.16-.486 2.178-1.18 3.05-.647.81-1.48 1.43-2.5 1.856-1.02.427-2.055.54-3.105.344-1.05-.197-2.19-.784-3.418-1.763-1.168-.93-2.028-1.85-2.582-2.76s-.772-1.854-.654-2.835c.116-.98.486-1.86 1.108-2.643l.083-.104zM209.273 571.707l-2.06-1.245 17.656-13.433 2.25 1.36-4.185 21.566-2.4-1.45 1.157-5.93-7.557-4.563-4.862 3.694zm6.6-5.052l6.23 3.764 1.946-10.02-8.177 6.255zM248.736 590.31l-2.508-.69 5.464-19.892 2.506.69-2.43 8.856 8.846 2.435 2.43-8.856 2.51.69-5.464 19.89-2.507-.688 2.485-9.05-8.847-2.435-2.484 9.05zM268.087 594.888l-2.557-.472 3.725-20.29 2.557.47-3.725 20.292zM273.345 591.176l2.584.28-.016.134c-.123 1.137.18 1.97.907 2.5.73.528 1.737.863 3.025 1.004 1.125.122 2.107-.114 2.944-.71.835-.596 1.314-1.45 1.434-2.56.098-.9-.15-1.672-.744-2.316-.595-.636-1.53-1.31-2.807-2.02l-.988-.55c-1.34-.752-2.327-1.46-2.957-2.12-.63-.662-1.077-1.37-1.34-2.12-.264-.752-.348-1.566-.253-2.448.168-1.553.84-2.804 2.015-3.755 1.177-.95 2.895-1.305 5.152-1.058 2.07.225 3.484.78 4.242 1.665s1.08 1.856.965 2.913l-.015.133-2.585-.28.015-.134c.036-.334-.058-.68-.282-1.034-.224-.354-.588-.632-1.092-.833a6.31 6.31 0 0 0-1.687-.405c-1.27-.138-2.243.088-2.923.68s-1.065 1.304-1.156 2.142c-.06.564.026 1.112.263 1.642.235.53.588.983 1.06 1.365.473.383 1.28.912 2.422 1.59l1.154.674c1.847 1.084 3.046 2.142 3.6 3.173.542 1.03.754 2.1.633 3.21-.11 1.03-.483 1.998-1.116 2.905-.633.907-1.444 1.558-2.437 1.953-.992.396-2.27.51-3.83.338-1.483-.16-2.703-.48-3.656-.95-.954-.475-1.644-1.156-2.07-2.048a5.148 5.148 0 0 1-.477-2.826l.015-.134zM296.4 597.562l.018-18.57-6.794-.013.002-2.063 16.086.027-.002 2.062-6.692-.012-.018 18.57-2.6-.002zM318.234 596.544c-2.472.354-4.623-.297-6.455-1.95-1.834-1.655-2.998-4.216-3.496-7.682-.497-3.466-.1-6.246 1.194-8.342 1.293-2.098 3.176-3.322 5.647-3.676 2.47-.353 4.624.296 6.46 1.945s3.002 4.205 3.5 7.67c.497 3.467.098 6.25-1.2 8.35-1.296 2.103-3.18 3.33-5.65 3.684zm-.287-2.04c1.802-.26 3.094-1.26 3.875-3.01.783-1.745.983-3.944.603-6.596-.38-2.642-1.19-4.694-2.434-6.158-1.24-1.462-2.764-2.064-4.565-1.807-1.793.257-3.083 1.262-3.868 3.014-.786 1.752-.988 3.95-.61 6.59.383 2.653 1.195 4.707 2.44 6.164 1.248 1.46 2.766 2.06 4.56 1.803zM333.934 593.012l-2.52.63-5.008-20.02 5.992-1.494c1.474-.367 2.636-.424 3.485-.17.85.253 1.597.742 2.236 1.463a5.932 5.932 0 0 1 1.324 2.54 6.18 6.18 0 0 1 .127 2.36 6.64 6.64 0 0 1-.735 2.253c-.38.712-1.07 1.435-2.072 2.17.478.136.85.284 1.11.446.264.163.605.447 1.027.853.422.407.796.793 1.126 1.16l4.562 5.15-2.89.722-3.99-4.596a12.085 12.085 0 0 0-3.38-2.71l-2.547.637 2.154 8.605zm-2.65-10.602l2.462-.615c1.043-.26 1.79-.623 2.247-1.09.454-.464.76-1.053.92-1.766.158-.714.146-1.43-.033-2.154-.158-.63-.424-1.16-.798-1.593a3.417 3.417 0 0 0-1.412-.972c-.567-.215-1.432-.18-2.59.11l-2.652.66 1.855 7.42zM350.716 588.308l-2.475.795-6.32-19.644 2.476-.797 6.32 19.645zM353.564 582.565l2.414-.962.05.123c.424 1.062 1.08 1.656 1.972 1.783s1.938-.05 3.142-.53c1.05-.418 1.808-1.086 2.267-2.004.46-.92.482-1.898.068-2.937-.335-.842-.916-1.407-1.743-1.7-.822-.282-1.964-.44-3.424-.468l-1.13-.022c-1.536-.038-2.737-.2-3.603-.49-.867-.29-1.594-.706-2.18-1.245-.583-.54-1.04-1.222-1.368-2.047-.58-1.45-.572-2.87.02-4.263.594-1.392 1.945-2.507 4.055-3.348 1.934-.77 3.442-.94 4.526-.515 1.085.428 1.823 1.135 2.218 2.122l.05.123-2.415.963-.05-.124c-.125-.312-.37-.573-.732-.78-.363-.208-.815-.284-1.354-.226-.54.056-1.1.2-1.68.432-1.185.473-1.94 1.13-2.263 1.97-.324.84-.33 1.65-.018 2.435.21.526.543.97 1 1.327.456.358.982.595 1.577.71.594.118 1.555.207 2.88.272l1.337.055c2.14.094 3.694.466 4.664 1.12.963.654 1.65 1.5 2.064 2.538.384.962.51 1.993.375 3.092-.135 1.098-.548 2.053-1.238 2.867-.692.813-1.767 1.51-3.224 2.092-1.386.552-2.61.842-3.676.87-1.063.03-1.992-.25-2.786-.838a5.178 5.178 0 0 1-1.745-2.273l-.05-.125zM374.58 578.605l-2.3 1.21-9.616-18.26 2.3-1.21 4.592 8.72 2.785-12.6 2.62-1.38-2.738 12.38 13.482 5.288-2.88 1.516-13.27-5.206 5.027 9.54zM390.252 569.896l-1.98 1.37-5.034-21.618 2.16-1.496 17.967 12.66-2.306 1.598-4.94-3.487-7.25 5.023 1.382 5.95zm-1.91-8.09l5.98-4.144-8.346-5.883 2.367 10.025zM423.433 541.973l-1.695 1.97-15.64-13.468 1.695-1.97 6.964 5.997 5.983-6.95-6.963-5.997 1.695-1.97 15.64 13.468-1.695 1.97-7.114-6.127-5.983 6.95 7.113 6.127zM417.392 517.056l1.448-2.157 11.02 7.407c1.606 1.08 2.785 1.652 3.537 1.718.752.066 1.485-.124 2.203-.572.718-.447 1.342-1.066 1.873-1.856.512-.762.82-1.532.93-2.313.106-.78-.054-1.523-.482-2.23-.428-.706-1.632-1.726-3.612-3.057l-10.238-6.88 1.335-1.987 10.804 7.263c2 1.346 3.256 2.512 3.767 3.5s.72 2.063.626 3.22-.568 2.37-1.424 3.646c-.796 1.18-1.71 2.137-2.745 2.867-1.036.73-2.11 1.07-3.224 1.02-1.112-.053-2.614-.713-4.506-1.984l-11.312-7.607zM440.927 510.236l1.217-2.297.117.06c1.01.536 1.896.563 2.656.084.762-.48 1.444-1.293 2.05-2.438.53-1 .673-2 .43-3-.246-.997-.86-1.758-1.85-2.28-.8-.424-1.608-.48-2.428-.166-.81.317-1.78.937-2.91 1.86l-.875.713c-1.194.968-2.216 1.62-3.063 1.962-.85.34-1.67.494-2.464.46-.796-.033-1.585-.257-2.37-.673-1.378-.73-2.294-1.82-2.742-3.265-.45-1.444-.144-3.17.92-5.178.974-1.84 2.01-2.948 3.112-3.325 1.103-.376 2.123-.314 3.062.183l.117.062-1.215 2.298-.117-.062c-.297-.158-.652-.198-1.064-.12s-.806.31-1.18.705a6.34 6.34 0 0 0-1 1.418c-.596 1.128-.746 2.117-.448 2.968.298.85.82 1.473 1.564 1.867a3.126 3.126 0 0 0 1.622.364c.578-.022 1.132-.183 1.66-.48s1.318-.85 2.37-1.658l1.053-.825c1.69-1.315 3.115-2.038 4.276-2.17 1.16-.122 2.23.077 3.218.6.916.485 1.68 1.19 2.287 2.115.61.925.914 1.92.916 2.988 0 1.068-.366 2.296-1.1 3.683-.7 1.32-1.444 2.335-2.236 3.046-.79.712-1.68 1.1-2.665 1.165a5.143 5.143 0 0 1-2.802-.603l-.116-.06z"/></g></g><g opacity=".39"><defs><path id="c" opacity=".39" d="M152.48 366.9s35.238-76 104.13-90c0 0 69.2-19.5 122.544 19.5 0 0 37.846 31 46.846 35 0 0 13.223 22.762 22.36 33.88h15.304S424 262.9 294.5 256.4c0 0-107.324 5.5-154.162 104l11.5 4.88"/></defs><clipPath id="d"><use xlink:href="#c" overflow="visible"/></clipPath><g clip-path="url(#d)"><ellipse transform="rotate(-9.936 300.095 437.984)" fill="none" cx="300.099" cy="438.029" rx="148.135" ry="151.504"/><text transform="matrix(.2445 -.9467 .9682 .25 155.594 402.684)" fill="#DAC379" stroke="#DAC379" stroke-width=".75" stroke-miterlimit="10" font-family="'Geneva'" font-size="26.826"></text><text transform="matrix(.2984 -.931 .9523 .3052 157.78 394.218)" fill="#DAC379" stroke="#DAC379" stroke-width=".75" stroke-miterlimit="10" font-family="'Geneva'" font-size="26.826"></text><text transform="matrix(.3513 -.9125 .9332 .3593 160.446 385.902)" fill="#DAC379" stroke="#DAC379" stroke-width=".75" stroke-miterlimit="10" font-family="'Geneva'" font-size="26.826"></text><text transform="matrix(.403 -.8908 .911 .4122 163.58 377.758)" fill="#DAC379" stroke="#DAC379" stroke-width=".75" stroke-miterlimit="10" font-family="'Geneva'" font-size="26.826"></text><text transform="matrix(.4716 -.8565 .876 .4823 167.02 369.83)" fill="#DAC379" stroke="#DAC379" stroke-width=".75" stroke-miterlimit="10" font-family="'Geneva'" font-size="26.826">L</text><text transform="matrix(.56 -.8014 .8196 .573 173.713 357.327)" fill="#DAC379" stroke="#DAC379" stroke-width=".75" stroke-miterlimit="10" font-family="'Geneva'" font-size="26.826">O</text><text transform="matrix(.6517 -.729 .7455 .6665 184 342.49)" fill="#DAC379" stroke="#DAC379" stroke-width=".75" stroke-miterlimit="10" font-family="'Geneva'" font-size="26.826">V</text><text transform="matrix(.707 -.6754 .6908 .723 196.192 329.17)" fill="#DAC379" stroke="#DAC379" stroke-width=".75" stroke-miterlimit="10" font-family="'Geneva'" font-size="26.826">I</text><text transform="matrix(.7334 -.6466 .6613 .75 200.45 325.088)" fill="#DAC379" stroke="#DAC379" stroke-width=".75" stroke-miterlimit="10" font-family="'Geneva'" font-size="26.826">I</text><text transform="matrix(.7777 -.5926 .606 .7954 204.625 321.15)" fill="#DAC379" stroke="#DAC379" stroke-width=".75" stroke-miterlimit="10" font-family="'Geneva'" font-size="26.826">S</text><text transform="matrix(.8403 -.5 .5113 .8594 216.564 311.878)" fill="#DAC379" stroke="#DAC379" stroke-width=".75" stroke-miterlimit="10" font-family="'Geneva'" font-size="26.826">A</text><text transform="matrix(.8948 -.3943 .4032 .915 231.875 302.7)" fill="#DAC379" stroke="#DAC379" stroke-width=".75" stroke-miterlimit="10" font-family="'Geneva'" font-size="26.826">N</text><text transform="matrix(.9257 -.3148 .322 .9467 247.974 295.79)" fill="#DAC379" stroke="#DAC379" stroke-width=".75" stroke-miterlimit="10" font-family="'Geneva'" font-size="26.826"></text><text transform="matrix(.9413 -.2645 .2705 .9627 255.38 293.246)" fill="#DAC379" stroke="#DAC379" stroke-width=".75" stroke-miterlimit="10" font-family="'Geneva'" font-size="26.826"></text><text transform="matrix(.9658 -.1528 .1562 .9877 262.513 290.596)" fill="#DAC379" stroke="#DAC379" stroke-width=".75" stroke-miterlimit="10" font-family="'Geneva'" font-size="26.826">W</text><text transform="matrix(.9774 -.0257 .0263 .9997 285.807 286.9)" fill="#DAC379" stroke="#DAC379" stroke-width=".75" stroke-miterlimit="10" font-family="'Geneva'" font-size="26.826">A</text><text transform="matrix(.9733 .093 -.0952 .9955 303.646 286.373)" fill="#DAC379" stroke="#DAC379" stroke-width=".75" stroke-miterlimit="10" font-family="'Geneva'" font-size="26.826">N</text><text transform="matrix(.9555 .2072 -.212 .9773 320.958 287.97)" fill="#DAC379" stroke="#DAC379" stroke-width=".75" stroke-miterlimit="10" font-family="'Geneva'" font-size="26.826">H</text><text transform="matrix(.9242 .3192 -.3264 .9452 337.485 291.457)" fill="#DAC379" stroke="#DAC379" stroke-width=".75" stroke-miterlimit="10" font-family="'Geneva'" font-size="26.826">A</text><text transform="matrix(.8822 .4217 -.4313 .9022 354.404 297.3)" fill="#DAC379" stroke="#DAC379" stroke-width=".75" stroke-miterlimit="10" font-family="'Geneva'" font-size="26.826">T</text><text transform="matrix(.8463 .4897 -.5008 .8656 368.563 304.197)" fill="#DAC379" stroke="#DAC379" stroke-width=".75" stroke-miterlimit="10" font-family="'Geneva'" font-size="26.826"></text><text transform="matrix(.8196 .5332 -.5453 .8382 375.352 308.097)" fill="#DAC379" stroke="#DAC379" stroke-width=".75" stroke-miterlimit="10" font-family="'Geneva'" font-size="26.826"></text><text transform="matrix(.7755 .5955 -.609 .7932 381.96 312.165)" fill="#DAC379" stroke="#DAC379" stroke-width=".75" stroke-miterlimit="10" font-family="'Geneva'" font-size="26.826">T</text><text transform="matrix(.7052 .6773 -.6927 .7212 394.42 321.57)" fill="#DAC379" stroke="#DAC379" stroke-width=".75" stroke-miterlimit="10" font-family="'Geneva'" font-size="26.826">A</text><text transform="matrix(.63 .7477 -.7647 .6444 407.318 334.012)" fill="#DAC379" stroke="#DAC379" stroke-width=".75" stroke-miterlimit="10" font-family="'Geneva'" font-size="26.826">L</text><text transform="matrix(.5576 .8032 -.8215 .5702 415.398 343.236)" fill="#DAC379" stroke="#DAC379" stroke-width=".75" stroke-miterlimit="10" font-family="'Geneva'" font-size="26.826">O</text><text transform="matrix(.4764 .854 -.8733 .4872 424.7 356.48)" fill="#DAC379" stroke="#DAC379" stroke-width=".75" stroke-miterlimit="10" font-family="'Geneva'" font-size="26.826">T</text></g></g><g opacity=".94"><defs><path id="e" opacity=".94" d="M212.897 374.72s3.13 14.283 5.48 16.24 5.282 3.522 8.02 3.327 7.437.017 7.437.017 10.175.017 11.74 0 4.5-.36 6.85.007 5.9 1.003 6.47 0 10.356.71 11.14.54 1.99-5.07 1.99-5.07 5.836 9.986 13.467-3.32l13.126-55.065s8.203 58.196 8.398 58.783 1.15 2.75 2.337 2.843 1.772 2.417 3.143 1.842 2.152-.417 3.13.09 6.067 0 6.067 0 11.695-54.514 12.89-61.62c0 0 1.843-.096 3.77-1.074s3.885-3.745 3.885-3.745 17.61 4.332 21.328 6.093l-1.07 6.653-1.864 53.918s8.61 6.35 12.13-.892v-55.18s16.94 9.416 18.198 13.11l.52 3.03-14.805-8.9-.783 54.788H211.528l1.37-26.415z"/></defs><clipPath id="f"><use xlink:href="#e" overflow="visible"/></clipPath><g clip-path="url(#f)" fill="#302C2A"><path d="M214.162 399.92v-60.938l12.028-10.47v57.04h30.022v14.368h-42.05zM273.745 399.92l-14.85-87.57 11.91-3.547 9.968 64.554 10.92-63.37h14.38l10.488 64.355 10.367-66.44 11.424 2.968-14.952 89.05h-12.844l-11.938-68.527-11.83 68.527h-13.04zM344.254 312.507v14.006s5.482 1.927 18.24 10.84v62.567h12.028v-56.402s9.288 4.66 17.695 12.393V342.27s-26.963-24.264-47.963-29.76z"/></g></g><defs><path id="g" d="M214.536 527.34l-.013-2.78c1.314 0 15.15 11.362 26.493 12.724 0 0 5.67 2.27 6.805 2.27s5.22 2.268 6.806 2.268h5.67c.68 0 13 7.81 13 7.81s4.922 1.23 5.376 0 3.402-42.76 3.402-42.76h31.077s-5.838 36.99-5.073 40.848.765 4.99 2.353 5.218 11.115-1.6 11.115-1.6l1.814-17.455 1.932-64.423 3.285 81.878s3.855.216 5.217 0 4.99-1.707 4.99-1.707l5.805-1.456s5.163-3.176 5.01-3.856 3.476-35.27 3.476-35.27l25.633-1.25-1.59 4.763c-.227.682-1.812 16.788-1.36 17.922s2.95 1.36 2.95 1.36 9.3-2.928 9.526-20.632l2-39.707 3.066 59.658s-75.614 51.04-140.716 23.593c0-.003-31.927-11.555-38.05-27.412z"/></defs><clipPath id="h"><use xlink:href="#g" overflow="visible"/></clipPath><g clip-path="url(#h)" fill="#282625"><path d="M271.12 552.382v-89.98h12.81v33.43h29.25V462.4h12.81v92.02l-12.81 1.266V510.2h-29.25v44.503l-12.81-2.32zM342.468 551.336V462.4h12.028v33.43h23.71V462.4h12.028v63.7l-12.028 9.296V510.2h-23.71v37.137l-12.028 4zM226.19 521.27s14.077 10.177 30.022 12.696v15.662s-27.253-8.738-42.05-23.486v.272-5.73l12.028.587z"/><path d="M214.523 463.097h11.727v61.462h-11.727z"/></g><g opacity=".62" fill="#DAC379"><ellipse cx="370.868" cy="263" rx="3.632" ry="3"/><ellipse cx="387.849" cy="271.25" rx="3.632" ry="3"/><ellipse cx="354.368" cy="256.399" rx="3.632" ry="3"/><ellipse cx="319.185" cy="249.087" rx="3.197" ry="2.641"/><ellipse cx="337.25" cy="251.728" rx="3.197" ry="2.641"/><ellipse cx="403" cy="280" rx="3.197" ry="2.641"/><ellipse cx="417.75" cy="291.25" rx="3.197" ry="2.641"/><ellipse cx="432.337" cy="303.658" rx="2.747" ry="2.299"/><ellipse cx="300.429" cy="247.235" rx="2.747" ry="2.299"/><ellipse cx="443" cy="316.75" rx="2.747" ry="2.299"/><ellipse cx="454.858" cy="330.909" rx="2.138" ry="1.79"/><ellipse cx="282" cy="248.235" rx="2.138" ry="1.79"/></g><g opacity=".62" fill="#DAC379"><ellipse transform="rotate(-166.09 191.72 575.99)" cx="191.73" cy="576.002" rx="3.631" ry="2.998"/><ellipse transform="rotate(-166.083 177.242 563.938)" cx="177.233" cy="563.912" rx="3.632" ry="3"/><path d="M202.633 585.504c.398-1.607 2.3-2.52 4.247-2.037 1.947.48 3.202 2.176 2.804 3.784-.398 1.61-2.3 2.522-4.246 2.04s-3.203-2.178-2.805-3.786z"/><ellipse transform="rotate(-166.072 238.568 601.942)" cx="238.551" cy="601.939" rx="3.197" ry="2.642"/><ellipse transform="rotate(-166.096 221.65 595.03)" cx="221.651" cy="595.03" rx="3.196" ry="2.641"/><ellipse transform="rotate(-166.09 164.62 551.76)" cx="164.631" cy="551.774" rx="3.197" ry="2.642"/><ellipse transform="rotate(-166.072 153.005 537.3)" cx="153.021" cy="537.305" rx="3.197" ry="2.639"/><ellipse transform="rotate(-166.083 141.853 521.778)" cx="141.845" cy="521.753" rx="2.747" ry="2.298"/><ellipse transform="rotate(-166.072 256.312 608.246)" cx="256.31" cy="608.247" rx="2.747" ry="2.3"/><ellipse transform="rotate(-166.072 134.656 506.487)" cx="134.645" cy="506.482" rx="2.746" ry="2.3"/><ellipse transform="rotate(-166.072 126.55 489.89)" cx="126.54" cy="489.886" rx="2.137" ry="1.791"/><ellipse transform="rotate(-166.083 274.45 611.74)" cx="274.44" cy="611.708" rx="2.138" ry="1.79"/></g></svg>